<svg fill="none" height="229" viewBox="0 0 165 229" width="165" xmlns="http://www.w3.org/2000/svg"><path d="m142.708 22.8945c-.041-.0444-.083-.0888-.127-.1272-.027-.0237-.05-.0445-.077-.0652-.095-.0769-.201-.1421-.314-.1954-.494-.2338-1.08-.2013-1.598-.0355-.178.0592-.347.1303-.513.2132h-.002c-.009.0029-.018.0088-.027.0118-.012-.003-.024-.0089-.036-.0118h-.003c-.571.0148-1.104.0888-1.326.1036-.873.0651-1.743.1302-2.614.1983-1.699.1273-3.401.2546-5.1.3819-.003.2398-.027.4855-.074.743-.35 1.9124-1.948 3.6501-4.015 3.4163-2.581-.2931-3.283-3.135-2.457-5.2487-.213-.3671-.453-.672-.953-.6305-.447.0355-.838.3404-1.193.592.216 1.9923-.9 4.2895-3.179 4.5115-.453.0445-.865-.0236-1.235-.1746.151 1.3351.358 2.6732.66 3.9787.521 2.2587 1.333 4.4197 2.656 6.3114.586.8348 1.29 1.6252 2.208 2.0752.572.2782 1.791.37 2.83.2545-.006-.068.039-.1272.107-.1539 2.697-.9976 5.092-2.6169 7.031-4.7395.13-.1391.34.0711.21.2102-1.205 1.3174-2.582 2.4393-4.094 3.3452 1.506-.8822 2.765-1.942 4.097-3.283l3.759-5.3552c.193.3078.512.521.865.6216.118.0355.243.0592.367.0681.411.0296.82-.071 1.196-.2398.071-.0325.142-.0681.21-.1036.033-.0177.062-.0355.092-.0533.515-.293.95-.6927 1.329-1.1486.071-.0769.136-.1598.198-.2398.273-.3493.521-.7252.752-1.0982.447-.7283.865-1.5128.933-2.3653.047-.6336-.145-1.3115-.563-1.7674zm-1.521 2.7887c-.258.6986-.927 1.2344-1.664 1.338h-.021c-.074 0-.136-.0532-.145-.1273-.012-.0799.045-.1569.125-.1687.633-.0858 1.204-.5477 1.426-1.1456.06-.1629.122-.4086.063-.6454-.054-.2102-.202-.3789-.376-.4322-.217-.0651-.492.0503-.64.2724-.092.142-.121.2989-.077.4233.042.1214.175.2013.278.1717.077-.0237.16.0207.184.0977.024.0799-.021.1628-.101.1835-.248.074-.544-.0858-.639-.3523-.077-.2102-.036-.4677.109-.6868.22-.3315.628-.4973.974-.3907.276.0829.495.3286.575.6394.062.2457.035.5299-.071.823z" fill="#e1a897"/><path d="m130.157 141.296v3.946h-2.034l-3.757 78.91h-2.815l-3.757-78.91h-4.369l-2.62 66.897h-1.963l-2.62-66.897h-60.5352l-2.6199 66.897h-1.9627l-2.6169-66.897h-4.2037l-3.7537 78.91h-2.8182l-3.7567-78.91h-23.658857v-3.946l22.720457-9.015h105.7284z" fill="#d9d9d9"/><path d="m130.157 141.592h-129.860907c-.142095 0-.2634671-.101-.29011-.24s.0503257-.278.18058-.332l22.720437-9.014c.0356-.015.0711-.021.1096-.021h105.7284c.145 0 .269.107.293.252l1.412 9.014c.011.086-.012.172-.068.237-.057.065-.14.104-.225.104zm-128.31265-.592h127.96565l-1.32-8.423h-105.4172z" fill="#808080"/><path d="m130.157 145.538h-129.860968c-.162817 0-.296032-.133-.296032-.296v-3.946c0-.163.133215-.296.296032-.296h129.860968c.162 0 .296.133.296.296v3.946c0 .163-.134.296-.296.296zm-129.564935-.592h129.267935v-3.354h-129.267935z" fill="#808080"/><path d="m30.5298 224.448h-2.8182c-.1569 0-.2872-.124-.2961-.281l-3.7566-78.91c-.003-.08.0266-.16.0829-.219.0562-.06.1332-.092.2131-.092h10.3286c.0799 0 .1599.032.2131.092.0563.059.0859.136.0829.219l-3.7537 78.91c-.0088.157-.1391.281-.296.281zm-2.537-.592h2.2528l3.7241-78.318h-9.7069z" fill="#808080"/><path d="m43.0668 212.435h-1.9627c-.1599 0-.2901-.124-.2961-.284l-2.6169-66.897c-.0029-.08.0267-.16.0829-.216.0563-.057.1332-.092.2132-.092h7.1995c.0799 0 .1569.032.2131.092.0562.059.0859.136.0829.216l-2.6199 66.897c-.0059.16-.1362.284-.296.284zm-1.6785-.592h1.3943l2.5962-66.305h-6.5838z" fill="#808080"/><path d="m110.805 212.435h-1.963c-.16 0-.29-.124-.296-.284l-2.62-66.897c-.003-.08.027-.16.083-.216.056-.057.133-.092.213-.092h7.203c.08 0 .157.032.213.092.056.059.086.136.083.216l-2.62 66.897c-.006.16-.136.284-.296.284zm-1.679-.592h1.395l2.596-66.305h-6.587z" fill="#808080"/><path d="m124.366 224.448h-2.815c-.157 0-.287-.124-.296-.281l-3.757-78.91c-.003-.08.027-.16.083-.219.056-.06.133-.092.213-.092h10.329c.08 0 .16.032.213.092.056.059.086.136.083.219l-3.757 78.91c-.009.157-.139.281-.296.281zm-2.534-.592h2.25l3.727-78.318h-9.707z" fill="#808080"/><path d="m113.721 1.26648h-74.4908v52.83292h74.4908z" fill="#7451eb"/><path d="m164.049 199.513c-1.314 1.688-4.508 2.816-8.919 3.662-4.414.844-9.766-1.409-10.237-1.598-.468-.187-2.046-7.981-2.046-7.981s-.393 7.042-.02 8.357c.376 1.314-4.882 3.194-7.887 3.194h-10.515c-4.319 0-4.695-.19-4.695-1.88s.939-32.863 1.501-42.629c.566-9.763 1.128-60.8431 1.128-60.8431l.012-.0237c.006.0029.015.0059.024.0088 1.05.349 2.101-.4233 3.14-.8111 2.745-1.0331 5.743.6483 8.677.5802 2.898-.0651 5.512-1.8354 8.393-2.1788 2.519-.2989 5.136.5092 7.578-.1835 1.403-.3967 2.655-1.3055 3.493-2.4985 1.057 3.4725 2.354 8.3127 2.673 12.0547.563 6.572-2.442 12.771-2.628 18.967-.19 6.198 10.328 73.803 10.328 73.803z" fill="#003668"/><path d="m163.46 224.646c-.006.521-.041 1.093-.397 1.472-.361.387-.941.459-1.471.485-4.301.21-8.546-.944-12.664-2.205-2.67-.82-5.415-1.741-7.463-3.638-.826-.764-1.542-1.723-1.531-2.916.003-.418.119-.835.359-1.179.749-1.074 2.045-.929 3.176-.775 2.096.284 4.204.473 6.314.565.249.009.516.027.752.098.302.092.415.462.225.713-.003.003-.003.003-.006.006l-.772.971c-.302.376-1.448 1.291-1.297 1.72.172.495.797.622 1.318.669 2.03.19 4.076.355 6.104.136 2.113-.231 4.224-.908 5.852-2.282.051-.041.107-.08.166-.11.166-.091.358-.127.542-.079.281.071.317.272.349.464.317 1.945.465 3.917.444 5.885z" fill="#00eda2"/><path d="m138.232 224.706c-.032.695-.13 1.418-.518 1.995-.692 1.033-2.069 1.302-3.303 1.448-4.601.544-9.24.624-13.873.701-2.91.047-5.82.095-8.732.145-1.176.018-2.425.018-3.423-.607-.281-.174-.541-.408-.654-.719-.174-.48.05-1.033.421-1.385.37-.353.266-.388 1.332-.738 1.065-.352 7.22-2.815 10.103-4.416.773-.433 1.543-.888 2.383-1.164.276-.089.584-.145.877-.142.447.003.864.142 1.098.509.553.871-.503 1.62-.379 2.978.127 1.356 1.24.717 1.865.489 2.984-1.075 10.746-3.923 11.151-3.958.119-.012.24-.009.359.012.29.044.562.18.722.42.11.16.16.352.207.542.305 1.27.427 2.584.364 3.89z" fill="#00eda2"/><path d="m137.466 204.839c-.249 5.003-.424 10.006-.527 15.015-.119-.021-.24-.024-.359-.012-.405.035-8.167 2.883-11.151 3.958-.625.228-1.738.867-1.865-.489-.124-1.358.932-2.107.379-2.978-.234-.367-.652-.506-1.099-.509.646-.527 1.43-.915 2.164-1.323 1.119-.622 2.268-1.466 2.543-2.712.098-.441.074-.9.051-1.35-.163-3.099-.364-6.196-.601-9.292h7.939c.743 0 1.626-.116 2.526-.308z" fill="#e1a897"/><path d="m162.125 218.377c-.059.029-.116.068-.166.109-1.628 1.374-3.739 2.052-5.852 2.283-2.028.219-4.074.053-6.105-.137-.521-.047-1.145-.174-1.317-.669-.151-.429.995-1.344 1.297-1.72l.772-.971c.003-.003.003-.003.006-.006.347-.023.693-.047 1.039-.071.326-.02.672-.047.936-.236.417-.293.503-.868.518-1.377.133-4.245-2.061-8.212-2.682-12.41 1.477.219 3.073.288 4.559.003 2.205-.423 4.103-.917 5.618-1.512-.331 5.568 1.048 11.127 1.377 16.714z" fill="#e1a897"/><path d="m108.084 6.8999h-63.2202v41.5629h63.2202z" fill="#f7ebe7"/><path d="m121.222 12.2197c-1.101-1.2848-2.244-2.66431-2.507-4.33689-.098-.62167-.068-1.2611-.154-1.88573-.234-1.67258-1.285-3.10242-2.303-4.45233-.196-.26051-.486-.550617-.794-.44405-.402.13914-.31.73417-.136 1.12197-.328-.77561-.843-1.46832-1.489-2.007099-.142-.1184131-.311-.233866-.494-.21314374-.219.02664294-.373.24866274-.394.46772674s.056.435172.133.642396c-.183-.35524-.39-.737123-.752-.902901-.361-.1657781-.905.038483-.908.438126 0 .301953.296.562465.242.861455-.157-.20426-.331-.42036-.58-.49437-.249-.074011-.574.08288-.571.34043.003.10361.053.19539.103.2842.93 1.61041 2.191 3.02841 2.967 4.71875.068.15098.136.30787.127.47365-.024.53582-.764.72824-1.264.53878s-.909-.59502-1.427-.72232c-.281-.06809-.66.01776-.711.30196-.02.10953.018.22202.06.32267.601 1.40615 2.362 1.79987 3.617 2.67317.794.55355 1.4 1.32325 1.998 2.08405.797 1.0154 1.593 2.0308 2.389 3.0432z" fill="#e1a897"/><path d="m127.617 64.1763c-1.19 0-2.816-1.5631-2.816-1.5631s-2.667 1.3381-6.163 3.0787c-4.322 2.1463-9.914 4.9053-13.307 6.498-6.1335 2.8804-8.1998 2.8182-10.4526.6246-2.2528-2.1907-15.2102-16.042-15.2102-16.042s-4.3191.7075-6.3854.894c-2.0663.1895-1.5038-1.2522-1.5038-1.2522l.0562-.0059c-.1243.0089-.3819.0266-.8674.0681-1.5038.1273-1.19-.9385-1.19-.9385-1.196-.5713-.601-1.1841-.2546-1.4387.1095-.0799.1924-.1243.1924-.1243-1.5038.1865-1.8798-1.3795 0-1.6904 1.8769-.3137 4.7573-.6897 6.0095-.8762 1.2522-.1895-3.1942-2.1907-1.8176-3.3807 1.3351-1.1516 6.1841 4.0882 8.3096 6.0716.071.0652.1391.1273.2042.1865 2.0042 1.8177 16.9657 11.3943 16.9657 11.3943l18.49-11.5453 5.672-3.5405c4.257.6868 1.501 3.3185 2.129 6.196.624 2.8804 3.943 1.5038 3.943 5.071 0 .376.438 2.315-2.004 2.315z" fill="#e1a897"/><path d="m133.567 34.5138c-1.205 1.3173-2.582 2.4393-4.094 3.3452-.116.0681-.234.1361-.353.2013-.236.1332-.482.2605-.734.3848-.213.1066-.432.2102-.657.3108-.003.003-.009.003-.012.006-.038.0266-.083.0533-.127.0769-.012.006-.021.0119-.033.0178-.011.0059-.023.0089-.035.0148-.068.0296-.139.0622-.21.0888-.012.0059-.024.0089-.036.0148-.089.0296-.183.0592-.284.0829-.062.0178-.124.0326-.19.0444-.177.0385-.367.0681-.562.0918-.006 0-.015.0029-.021.0029-.006-.0681.039-.1273.107-.1539 2.697-.9976 5.092-2.6169 7.031-4.7395.13-.1391.34.0711.21.2102z" fill="#e1a897"/><path d="m140.012 22.6844c-.572.0148-1.105.0888-1.327.1036-.873.0652-1.743.1303-2.614.1984-1.699.1273-3.401.2546-5.1.3819-.003.2398-.027.4855-.074.743-.35 1.9124-1.948 3.6501-4.014 3.4162-2.582-.293-3.283-3.135-2.458-5.2486-.213-.3671-.452-.672-.953-.6306-.447.0355-.838.3405-1.193.5921.216 1.9923-.9 4.2895-3.179 4.5115-.453.0444-.865-.0237-1.235-.1746-.041-.3612-.08-.7224-.112-1.0806-.015-.1628-.03-.3226-.045-.4825-.118-1.3381-.204-2.682-.21-4.0231 0-.3819.006-.7608.018-1.1397.033-.9651.118-1.9272.272-2.8833.063-.3227.134-.6306.208-.9266.003-.003.008-.003.011-.006.042-.0207.086-.0414.128-.0651.065-.0296.13-.0651.192-.1006 2.179-1.1427 4.029-2.9278 5.234-5.0799 1.726 3.1823 5.142 5.3877 8.754 5.6483.325.0207.675.0384.935.2338.009.0089.021.0148.03.0237.195.1569.308.3967.423.6217.983 1.939 2.579 3.5524 4.488 4.5885h.003c.58.3167 1.187.5772 1.818.7785z" fill="#e1a897"/><path d="m141.258 24.8603c.062.2457.035.5299-.071.8229-.258.6987-.927 1.2345-1.664 1.3381h-.021c-.074 0-.136-.0533-.145-.1273-.012-.0799.045-.1569.125-.1687.633-.0859 1.204-.5477 1.426-1.1457.06-.1628.122-.4085.063-.6453-.054-.2102-.202-.3789-.376-.4322-.216-.0652-.492.0503-.64.2723-.091.1421-.121.299-.077.4234.042.1213.175.2013.279.1716.077-.0236.159.0208.183.0977.024.08-.021.1629-.101.1836-.248.074-.544-.0859-.639-.3523-.077-.2102-.035-.4677.11-.6868.219-.3316.627-.4973.974-.3908.275.0829.494.3286.574.6395z" fill="#e1a897"/><path d="m139.159 40.7898c-2.57 1.415-5.569 2.0396-8.487 1.7495-.412-.0414-.829-.1006-1.238-.1006-.399-1.3144-.746-2.6406-1.045-3.9817 0-.0029-.003-.0088-.003-.0118.252-.1243.498-.2516.734-.3848.119-.0652.237-.1333.353-.2013 1.506-.8822 2.765-1.942 4.097-3.283l3.759-5.3553c.193.3079.513.521.865.6217-.607 1.8887-.533 3.9964.234 5.8259.361.8674.87 1.6904 1.03 2.614.145.8555-.018 1.6874-.299 2.5074z" fill="#e1a897"/><path d="m129.434 42.4386c-.21 0-.417.0148-.621.0533-.021.003-.042.0089-.063.0148-.488.1036-.941.3346-1.388.5684-2.593 1.3499-5.272 2.7679-7.051 5.0888-.063.0799-.122.1599-.178.2398-.731-.0089-1.451-.1303-2.134-.4144-.45-1.8206-.362-3.7715.257-5.5447.4-1.1427 1.016-2.244 1.057-3.4518.03-.9414-.296-1.8531-.527-2.7649-.468-1.8473-.554-3.7892-.261-5.672.522 2.2587 1.333 4.4198 2.656 6.3114.586.8348 1.291 1.6252 2.208 2.0752.575.2812 1.806.37 2.851.2516.616-.071 1.166-.2161 1.477-.4322.003-.0029.009-.0029.012-.0059.225-.1006.444-.2043.657-.3108.299 1.344.649 2.6761 1.048 3.9934z" fill="#000"/><path d="m154.689 47.9419-.237 1.5245-.033.2132c-.903.0444-1.811-.0444-2.714-.0444-.249 0-.498.0059-.746.0237-.859.0621-1.705.2546-2.546.447-2.73.6246-5.462 1.2492-8.191 1.8739-.459.1065-.995.1924-1.35-.1155-.136-.1154-.225-.2753-.308-.4352-1.22-2.3771-1.421-5.2575-.545-7.7797.139-.4026.305-.8022.474-1.2019.234-.5506.476-1.1012.666-1.6578.281-.82.444-1.6518.299-2.5074-.16-.9236-.669-1.7466-1.03-2.6139-.767-1.8295-.841-3.9373-.234-5.8259.118.0355.242.0592.367.068.411.0297.82-.071 1.196-.2397.071-.0326.142-.0681.21-.1036.033-.0178.062-.0356.092-.0533.515-.2931.95-.6928 1.329-1.1486.071-.077.136-.1599.198-.2398.273-.3493.521-.7253.752-1.0983.447-.7282.865-1.5127.933-2.3653.047-.6335-.145-1.3114-.563-1.7673-.041-.0444-.083-.0888-.127-.1273-.024-.0237-.05-.0444-.077-.0651-.095-.077-.201-.1421-.314-.1954-.494-.2339-1.08-.2013-1.598-.0355-.178.0592-.347.1302-.513.2131h-.002c-.009.003-.018.0089-.027.0118-.012-.0029-.024-.0088-.036-.0118h-.003c-.63-.2013-1.237-.4618-1.817-.7786h-.003c-1.91-1.0361-3.505-2.6495-4.488-4.5885-.116-.225-.228-.4647-.423-.6216-.009-.0089-.021-.0148-.03-.0237-.26-.1954-.61-.2132-.935-.2339-3.612-.2605-7.028-2.4659-8.754-5.6483-1.243 2.2203-2.999 4.0468-5.261 5.1865-.041.0237-.085.0444-.127.0651-.024.0119-.041.0415-.056.077-.045.1007-.062.2635-.133.296.035-.1036.068-.2042.103-.3049.015-.0473.033-.0947.048-.1391.023-.0681.047-.1332.068-.1984 2.469-7.0248 5.062-9.23912 7.294-10.17754.08-.03257.16-.06513.24-.09769.056-.02073.112-.04145.168-.06217.03-.01184.057-.02072.083-.0296 1.131-.39965 2.158-.52694 3.005-.87922 2.247-.9325 4.458-2.7975 6.646-1.73475 1.88.91178 3.037 2.91592 4.893 3.87802 2.179 1.12788 5.279.84666 6.578 2.93072 1.033 1.65783.246 3.91353 1.01 5.71343.541 1.2818 1.788 2.1373 2.451 3.36.909 1.6755.5 3.7181.263 5.6098-.236 1.8916-.145 3.8217 1.122 5.2457.711.7963 1.705 1.4772 2.271 2.383.77 1.2315.098 2.8804-.5 4.2037-.323.7134-.619 1.4091-.829 2.1285-.015.0384-.027.0769-.036.1154-.044.1599-.086.3227-.121.4885 0 .0029-.003.0088-.003.0118 0 .0059-.003.0118-.003.0178-.089.4144-.145.8407-.157 1.2847-.074 2.7235 2.567 5.0918 2.111 7.7798z" fill="#000"/><path d="m154.366 93.4301c-.725 1.7999-2.318 3.2297-4.183 3.7567-2.442.6927-5.059-.1155-7.578.1835-2.881.3434-5.495 2.1137-8.393 2.1788-2.934.0681-5.932-1.6134-8.677-.5802-1.039.3878-2.09 1.1601-3.141.8111-1.243-.4115-1.495-2.0367-1.509-3.3481-.083-7.0752.538-15.9739 1.45-22.9928-2.111-2.0071-3.173-4.852-3.697-7.7472 3.496-1.7407 6.163-3.0787 6.163-3.0787s1.625 1.563 2.815 1.563c2.443 0 2.005-1.939 2.005-2.315 0-3.5671-3.319-2.1906-3.944-5.071-.627-2.8774 2.129-5.5091-2.128-6.1959l-5.672 3.5405c.385-2.0663 1.039-4.0438 2.256-5.7312.056-.0799.115-.1598.177-.2398 1.78-2.3209 4.459-3.7389 7.052-5.0888.447-.2338.9-.4647 1.388-.5683.021-.006.042-.0119.062-.0148.205-.0385.412-.0533.622-.0533.409 0 .826.0592 1.237.1006 2.919.2901 5.918-.3345 8.488-1.7495-.19.5565-.432 1.1071-.666 1.6578-.169.3996-.335.7992-.474 1.2018-.876 2.5222-.675 5.4026.545 7.7798.083.1598.171.3197.308.4351.355.3079.891.2221 1.349.1155 2.73-.6246 5.462-1.2493 8.192-1.8739.84-.1924 1.687-.3848 2.546-.447.248-.0178.497-.0237.746-.0237.307 1.1723.429 2.4097.509 3.6235.692 10.6364-.506 26.1633.849 31.9063 1.356 5.7401 2.025 6.4654 1.303 8.2652z" fill="#f7ebe7"/><path d="m89.5735 36.2101h-26.1959c-.1628 0-.2961-.1332-.2961-.296s.1333-.2961.2961-.2961h26.1959c.1628 0 .296.1333.296.2961s-.1332.296-.296.296z" fill="#00eda2"/><path d="m92.2497 39.4605h-31.5482c-.1628 0-.296-.1332-.296-.296s.1332-.296.296-.296h31.5482c.1628 0 .296.1332.296.296s-.1332.296-.296.296z" fill="#00eda2"/><path d="m89.5735 42.8708h-26.1959c-.1628 0-.2961-.1332-.2961-.296s.1333-.2961.2961-.2961h26.1959c.1628 0 .296.1333.296.2961s-.1332.296-.296.296z" fill="#00eda2"/><path d="m83.2236 30.2184c-.524.4707-3.3393-1.6904-3.3393-1.6904s-1.0331 2.7235-1.5038 2.5341c-.3612-.1451-1.4358-6.9982-1.9005-10.077h-.003c-.222 0-.444-.0148-.6572-.0473-.4618 3.055-1.5453 9.9792-1.9123 10.1243-.4678.1894-1.5009-2.5341-1.5009-2.5341s-2.8183 2.1611-3.3422 1.6904c-.4322-.3878 3.4221-7.5784 4.7779-10.071-1.1723-.826-1.936-2.1907-1.936-3.733 0-2.5222 2.0456-4.5678 4.5707-4.5678 2.5222 0 4.5678 2.0456 4.5678 4.5678 0 1.7525-.9858 3.2741-2.4304 4.0408 1.4801 2.7295 5.0266 9.3902 4.6092 9.7632z" fill="#e2bc97"/><path d="m103.65 26.2812c-1.285 0-2.537-.7193-3.168-1.8443-.322-.5743-.47-1.2285-.453-1.8798-.5296.0888-1.0713.0296-1.5598-.2398-.743-.4114-1.2492-1.2758-1.3143-2.2587-.003-.0651-.0059-.1273-.0089-.1924-.5299.2102-1.0687.3404-1.5986.3878-1.4713.1332-2.9129-.4204-3.7566-1.4387-.0711-.0859-.1362-.1717-.1984-.2635-.3523.2339-.7371.4115-1.1427.521-1.4298.3908-3.0639-.1184-3.9816-1.2315-.3671-.447-.6128-.9828-.7312-1.5393-1.122.518-2.4127.6572-3.6234.3375-.1569-.0415-.2517-.2043-.2102-.3612.0414-.1569.2013-.2516.3611-.2102 1.119.2931 2.3565.1332 3.3955-.3937-.0266-.6927.1392-1.3884.5062-1.9746.305-.4884.6395-.595.8645-.5979.2161 0 .4263.0858.5861.2575.1895.2013.2931.4855.2724.7608-.0356.4529-.3316.8141-.5536 1.048-.3138.3286-.669.6098-1.0509.8437.0799.5269.296 1.0361.6424 1.4564.7756.9414 2.161 1.3677 3.3688 1.0362.3612-.0977.7016-.2576 1.0124-.4678-.4707-1.0539-.3937-2.309.2605-3.1942.2487-.3374.5299-.521.8378-.5417.2812-.0207.5329.0888.7164.3108.3316.3997.3641 1.045.2487 1.4743-.2161.8229-.6839 1.5571-1.3055 2.1077.0562.0859.1154.1688.1835.2487.7223.8703 1.9716 1.344 3.2505 1.2256.6157-.0563 1.187-.2309 1.6962-.4589.074-.4973.2368-1.0302.4944-1.6341.1421-.3315.3227-.7075.6601-.968.3494-.2664.9325-.3701 1.3263-.0355.2042.1746.3138.4114.3108.6868-.003.5387-.4174 1.0716-.7697 1.3647-.4736.3937-.968.7193-1.4683.9769-.0089.145-.0089.2871 0 .4263.0533.7844.4411 1.4653 1.0095 1.7791.4144.228.8851.2546 1.3436.1451.095-.4855.29-.9533.578-1.3647.272-.3878.82-.6454 1.219-.5773.261.0444.453.2161.527.4736.125.4382-.216.8053-.325.9266-.391.4204-.903.7786-1.46.9888-.053.6068.065 1.2315.358 1.7584.551.9799 1.723 1.6104 2.842 1.5364.166-.0118.305.1125.317.2753s-.112.3049-.275.3138c-.08-.0029-.157 0-.234 0zm-1.895-5.6986c-.171 0-.459.1421-.595.3375-.163.2309-.29.4884-.379.7578.329-.1776.634-.4144.879-.6779.143-.1539.214-.2871.193-.3641-.012-.0355-.018-.0444-.056-.0503-.012-.003-.027-.003-.042-.003zm-2.6878-3.6382c-.1273 0-.2634.0503-.3611.1273-.225.1717-.3641.4677-.4766.7312-.1629.3789-.2813.7252-.3642 1.0479.376-.225.7016-.4648.971-.6897.3138-.2606.5536-.6513.5536-.9118 0-.1007-.0326-.1717-.1036-.2339-.0562-.0503-.1362-.071-.2191-.071zm-6.6015-2.0604c-.0089 0-.0148 0-.0237 0-.1569.0118-.3078.1717-.4055.3049-.4885.6601-.5654 1.6193-.2546 2.4511.4766-.4588.8348-1.0538 1.0095-1.711.0858-.3286.0266-.7519-.1333-.9444-.0533-.0681-.1124-.1006-.1924-.1006zm-5.4174-1.193c-.0029 0-.0029 0 0 0-.1539.0029-.3019.2042-.3759.3226-.2457.3908-.3819.8408-.4145 1.3026.2339-.1658.453-.3523.6513-.5595.1598-.1658.373-.4174.3937-.6809.0089-.1066-.0355-.2309-.1125-.3079-.0325-.0355-.0829-.0769-.1421-.0769z" fill="#00eda2"/><path d="m49.1947 27.6813c-.2043 0-.4085-.0207-.6069-.0651-.1598-.0355-.2605-.1954-.225-.3523.0356-.1598.1954-.2605.3523-.2249.9207.2072 1.9953-.2073 2.7354-1.0569.4707-.5388.8259-1.2285 1.0864-2.1285-.5033-.3878-.8585-.8969-1.0184-1.4742-.0976-.3493-.0828-.6276.0445-.8585.1361-.2457.3907-.3908.6956-.3967.376-.0029.749.1925.9384.4974.2902.4707.2221 1.045.1185 1.5423-.0296.148-.0652.2931-.0977.4322.0237.0148.0503.0266.074.0414.6986.373 1.5364.4559 2.2409.225.9325-.3078 1.717-1.1071 2.1433-2.1077-.0385-.0178-.0799-.0385-.1184-.0563-.7282-.3789-1.2196-1.039-1.3144-1.7673-.0681-.524.077-.971.3997-1.2285.2102-.1658.4825-.2368.7697-.1984.3434.0474.669.2428.8703.524.2694.3789.37.8822.3049 1.5394-.0266.2783-.077.5476-.151.8111.3701.0651.7401.0148 1.0509-.148.7253-.3819 1.1102-1.2019 1.3381-1.9331-.7401-.6128-1.0154-1.6548-.6424-2.4363.0444-.0918.1332-.154.2339-.1658.5891-.0651 1.0539.4174 1.19.9058.1303.4648.0326.9385-.071 1.347-.0089.0326-.0178.0681-.0267.1036.6099.3375 1.3233.3316 1.7259.2901 1.1841-.1184 2.241-.7993 2.8626-1.7081-.373-.3345-.6631-.7401-.8525-1.196-.2132-.518-.2487-.9798-.1036-1.3765.1776-.4855.7223-.9029 1.2936-.7342.4737.1392.7815.6276.8259 1.3085.0415.6365-.1065 1.267-.3966 1.8443.2486.1628.5269.296.8289.3937.891.2871 1.8058.1983 2.5133-.2398.1391-.0858.3226-.0444.4085.0947.0858.1392.0444.3227-.0947.4086-.8556.5328-1.9509.6424-3.0077.3019-.3434-.1095-.6631-.2635-.9503-.45-.7223 1.0391-1.9242 1.8088-3.2682 1.942-.7282.074-1.4032-.0325-1.9538-.3019-.2694.8022-.7253 1.6785-1.5779 2.1284-.4529.2369-.9887.299-1.5156.1895-.4826 1.1812-1.4003 2.1107-2.5252 2.4807-.8407.2783-1.8324.1865-2.6613-.2427-.2813.9059-.6602 1.6163-1.1605 2.1877-.7312.8289-1.7406 1.3084-2.7057 1.3084zm3.0876-5.965c-.003 0-.0059 0-.0089 0-.0947.003-.1598.0326-.1924.0918-.0474.0829-.0444.222.0089.4085.1036.373.3138.7134.6128.9947.0118-.0563.0237-.1125.0355-.1717.0829-.4026.1362-.8171-.0444-1.1102-.074-.1213-.2487-.2131-.4115-.2131zm4.9734-2.6317c-.077 0-.1658.0177-.2428.0799-.1806.1451-.2131.45-.1806.6898.0711.5358.4441 1.0301 1.0006 1.3203.0119.0059.0267.0148.0385.0207.0592-.222.1036-.45.1273-.6839.0503-.5091-.0148-.8792-.1983-1.1367-.1037-.1451-.2902-.2576-.4678-.2813-.0237-.0059-.0473-.0088-.0769-.0088zm3.3925-1.7792c-.1243.4618.0533.974.3552 1.3351.0681-.299.1125-.6068.0355-.8792-.0562-.1954-.2101-.3908-.3907-.4559zm5.5328-2.4215c-.2013 0-.4085.1806-.4825.3819-.1155.3137-.0118.6897.0947.9473.1362.3315.3434.6305.6039.891.2043-.45.3079-.9384.2753-1.4269-.0207-.3108-.1391-.7016-.4026-.7785-.0296-.0119-.0592-.0148-.0888-.0148z" fill="#00eda2"/><path d="m139.846 21.8111c-.551.0266-1.102.0592-1.652.0947h-.003c-2.443.1599-4.882.3937-7.318.5802-.323-1.3055-1.611-2.4778-3.073-2.5044s-2.282.5181-2.91 1.418c-.258-.3197-.586-.5625-1.039-.6305-.66-.1007-1.246.1865-1.779.5387-.415-1.1752-1.51-2.1462-3.073-2.0485-.42.0266-.847.1806-1.243.4263-.083.0503-.163.1036-.24.1657-.009.003-.018.0119-.027.0178-.959.7135-1.693 1.9716-1.667 3.2564.033 1.3913.773 2.9248 2.043 3.4517.37.151.782.2191 1.235.1747 2.279-.2221 3.395-2.5193 3.179-4.5116.355-.2516.746-.5565 1.193-.592.5-.0415.74.2634.953.6305-.826 2.1137-.124 4.9556 2.457 5.2487 2.067.2338 3.665-1.5039 4.014-3.4162.048-.2576.072-.5033.074-.7431 1.7-.1273 3.402-.2546 5.101-.3819.87-.0681 1.741-.1332 2.614-.1983.222-.0148.755-.0888 1.326-.1036h.068c.166-.0829.335-.154.513-.2132.518-.1657 1.104-.1983 1.598.0356.113.0532.219.1184.314.1953.027.0208.05.0415.077.0652.044.0385.086.0829.127.1273-.423-.8733-1.856-1.1309-2.862-1.0835zm-20.59 4.029c-.606.1243-1.11-.0296-1.503-.3434-.894-.7135-1.229-2.2558-.936-3.3097.13-.4706.367-.8732.681-1.1959.429-.4441 1.004-.7401 1.646-.8585 3.191-.4707 2.91 5.1421.112 5.7075zm10.746-1.7496c-.29 1.3174-1.326 2.5874-2.773 2.5726-3.298-.0326-2.86-5.9681.527-5.7934 1.717.1599 2.64 1.4298 2.246 3.2208z" fill="#00eda2"/><path d="m129.363 23.9337c-.189.2783-.405.447-.719.5684-.056.0207-.142-.0148-.166-.0681-.403-.8644-1.338-1.1841-2.173-.7105-.166.0947-.317-.1599-.151-.2546.486-.2753 1.036-.3641 1.566-.1658.021.0089.042.0148.059.0267.237-.0503.421-.1954.527-.4145.083-.1717.338-.0207.255.1481-.095.1983-.252.3552-.441.4558.068.0444.13.0948.189.151 0 0 .003.0059.009.0089.003-.003.009-.003.015-.0059.216-.0651.394-.2013.515-.3967.101-.1599.355-.0118.255.151-.142.225-.341.3937-.581.4943.024.0267.042.0445.045.0474.029.1658.106.1984.225.0977.148-.0385.251-.1302.314-.2812.109-.1569.364-.0089.257.148z" fill="#000"/><path d="m119.843 22.8058c-.329-.5032-.956-.7549-1.522-.4677-.257.1302-.414.3819-.657.5299-.281.1687-.577.1391-.776-.1303-.112-.151.143-.299.255-.148.077.1007.219.0622.376-.0296-.145-.071-.278-.1628-.397-.2812-.136-.1332.074-.3434.207-.2102.128.1243.27.2191.436.2783.014.0029.026.0088.035.0177.062-.0473.122-.0947.172-.1391-.193-.1036-.346-.2694-.435-.4766-.074-.1747.18-.3227.254-.148.092.2131.252.3641.477.4292.003 0 .009.003.012.0059.192-.0829.402-.1213.607-.1154.518.0177.935.3138 1.213.7371.104.1599-.154.3079-.257.148z" fill="#000"/><path d="m122.797 30.0141c-.003 0-.006 0-.006 0l-1.367-.0681c-.107-.0059-.285-.0148-.409-.1391-.166-.1688-.115-.4263-.095-.5359.137-.6986.35-1.3943.557-2.0663.355-1.1634.722-2.3653.69-3.5849-.003-.0829.062-.151.145-.151h.003c.08 0 .145.0622.148.1451.035 1.264-.341 2.4926-.705 3.6796-.204.6661-.414 1.3529-.548 2.0397-.017.0918-.035.2191.015.2724.039.0384.128.0473.213.0503l1.368.0681c.083.0029.145.074.139.1539-.006.074-.071.1362-.148.1362z" fill="#000"/><path d="m141.187 25.6832c-.258.6987-.927 1.2345-1.664 1.3381h-.021c-.074 0-.136-.0533-.145-.1273-.012-.0799.045-.1569.125-.1687.633-.0859 1.204-.5477 1.426-1.1457.06-.1628.122-.4085.063-.6453-.054-.2102-.202-.3789-.376-.4322-.216-.0652-.492.0503-.64.2723-.091.1421-.121.299-.077.4234.042.1213.175.2013.279.1716.077-.0236.159.0208.183.0977.024.08-.021.1629-.101.1836-.248.074-.544-.0859-.639-.3523-.077-.2102-.035-.4677.11-.6868.219-.3316.627-.4973.974-.3908.275.0829.494.3286.574.6395.062.2457.035.5299-.071.8229z" fill="#000"/><path d="m120.405 70.9791c1.531 2.087 2.851 4.6596 5.284 5.8289.172.0829.323-.1717.148-.2546-2.386-1.1456-3.676-3.6708-5.177-5.7223-.11-.151-.367-.0059-.255.148z" fill="#808080"/><path d="m142.83 194.362c-.003 0-.006 0-.009 0-.163-.006-.293-.142-.287-.305l2.03-72.702c.003-.062.024-.121.06-.172 1.663-2.19 2.72-4.79 3.058-7.519.02-.163.165-.281.331-.258.163.021.278.169.258.332-.347 2.8-1.424 5.471-3.117 7.729l-2.028 72.608c-.006.16-.139.287-.296.287z" fill="#7451eb"/><path d="m142.596 54.4013c-.074.4855-.305 1.0509-.791 1.1279-.296.0474-.592-.1184-.775-.3493-.187-.2339-.278-.527-.346-.8141-.196-.7993-.255-1.6312-.181-2.4512.607-.1391 1.214-.2782 1.821-.4144.325.9236.426 1.9301.272 2.9011z" fill="#e1a897"/><path d="m119.535 39.1733c-.157 1.3647-.861 2.6288-1.202 3.952-.423 1.643-.471 3.283-.035 4.929.047.1835-.237.2635-.288.0799-.387-1.4742-.414-2.9662-.109-4.4553.299-1.4712 1.051-2.8241 1.308-4.2954.296-1.6933-.604-3.3304-.834-4.9822-.181-1.2966-.125-2.5992.145-3.8721.003.0089.003.0177.005.0266.054.228.107.4559.169.6809-.192 1.2522-.174 2.5251.086 3.7744.284 1.3825.924 2.7265.755 4.1622z" fill="#a37052"/><path d="m121.678 46.6897c-.089.0769-.175.1598-.26.2398-.145-.7253-.027-1.4299.115-2.1581.231-1.193.231-2.0841-.311-3.1913-.373-.7667-.645-1.4979-.642-2.3623 0-.8674.219-1.7199.465-2.5518.044.0681.088.1362.136.2013.026.0385.053.074.083.1125-.237.8171-.43 1.6548-.385 2.5044.053.9829.565 1.7348.909 2.6229.595 1.5364-.329 3.0491-.11 4.5826z" fill="#a37052"/><path d="m124.713 44.5198c-.113.0622-.22.1273-.329.1954.074-.4618.157-.9385.13-1.3973-.041-.7638-.583-1.0894-.888-1.7081-.408-.8259-.302-1.7436-.121-2.6169.083.0325.177.0621.281.0917-.127.6069-.216 1.2315-.083 1.8443.136.6246.536.9473.847 1.4594.385.6276.281 1.4062.163 2.1315z" fill="#a37052"/><path d="m133.567 34.5138c-1.205 1.3173-2.582 2.4393-4.094 3.3452-.116.0681-.234.1361-.353.2013-.236.1332-.482.2605-.734.3848-.213.1066-.432.2102-.657.3108-.003.003-.009.003-.012.006-.038.0266-.083.0533-.127.0769-.012.006-.021.0119-.033.0178-.011.0059-.023.0089-.035.0148-.068.0296-.139.0622-.21.0888-.012.0059-.024.0089-.036.0148-.089.0296-.183.0592-.284.0829-.062.0178-.124.0326-.19.0444-.177.0385-.367.0681-.562.0918-.006 0-.015.0029-.021.0029-.006-.0681.039-.1273.107-.1539 2.697-.9976 5.092-2.6169 7.031-4.7395.13-.1391.34.0711.21.2102z" fill="#e1a897"/><path d="m133.567 34.5138c-1.205 1.3173-2.582 2.4393-4.094 3.3452-.116.0681-.234.1361-.353.2013-.239.1391-.485.2694-.731.3966-.263.1333-.53.2606-.799.3819-.012.006-.021.0119-.033.0178-.011.0059-.023.0089-.035.0148-.068.0296-.139.0622-.21.0888-.012.0059-.024.0089-.036.0148-.231.1036-.465.1983-.699.2872.285.5091.649 1.0509.744 1.6193.091.5506-.61 1.5275-.187 1.9242.142.1273-.068.3374-.207.2072-.32-.296-.311-.6631-.166-1.0509.216-.5862.326-1.0391.036-1.643-.172-.3582-.373-.7075-.56-1.0568-.009-.0237-.015-.0444-.018-.0652-.006-.0681.039-.1273.107-.1539 2.697-.9976 5.092-2.6169 7.031-4.7395.13-.1391.34.0711.21.2102z" fill="#a37052"/><path d="m140.081 22.6844c-.009.0031-.021.0061-.03.0121-.012-.003-.028-.009-.04-.0121z" fill="#000"/><g fill="#a37052"><path d="m154.49 49.416c-.023.0563-.079.0888-.136.0888-.02 0-.038-.0029-.059-.0118-.074-.0326-.109-.1184-.077-.1954.696-1.6252.095-3.5228-.586-5.1628l-.118-.2783c-.681-1.6311-1.389-3.3185-1.066-5.0503.16-.8703.577-1.6992.977-2.5014.627-1.2463 1.216-2.4245.861-3.6649-.24-.8378-.861-1.4594-1.515-2.1166-.379-.3819-.773-.7727-1.087-1.2138-1.22-1.714-1.19-3.952-.998-5.9147l.03-.2931c.157-1.5808.32-3.2149-.441-4.5441-.269-.4707-.654-.8881-1.027-1.2877-.438-.4737-.888-.9621-1.178-1.5571-.436-.897-.444-1.9154-.456-2.8982-.009-1.0302-.018-2.0012-.471-2.85374-.515-.96803-1.557-1.67554-3.185-2.16104-.347-.10361-.702-.19538-1.048-.28419-.962-.24867-1.957-.50917-2.833-1.02427-.764-.44997-1.433-1.08644-2.081-1.70515-1.078-1.02723-2.093-1.99821-3.473-2.11958-1.205-.10658-2.339.49733-3.437 1.08347-.284.15098-.571.30491-.855.44405-.865.42036-1.925.65719-2.86.86441-.456.10065-.888.19538-1.237.30196-3.893 1.08347-8.408 8.81588-8.378 14.32498-.092.0563-.181.1155-.267.1836-.017-.0237-.029-.0504-.029-.0829-.083-5.6217 4.576-13.59383 8.594-14.70987.355-.10657.79-.20427 1.252-.30788.921-.20426 1.963-.43516 2.794-.84073.282-.13913.566-.28715.847-.43813 1.137-.60686 2.309-1.23149 3.603-1.119 1.483.13322 2.584 1.18413 3.65 2.20248.636.60391 1.294 1.2315 2.025 1.6637.843.49438 1.817.74896 2.759.99171.349.08881.707.18354 1.057.28715 1.711.50918 2.809 1.26406 3.362 2.30905.486.91182.498 1.96862.507 2.98692.012.9503.02 1.9331.426 2.7709.269.5566.687 1.0065 1.128 1.4861.385.4144.781.8407 1.066 1.341.811 1.4121.642 3.0965.482 4.7217l-.029.2931c-.187 1.9094-.222 4.0793.944 5.7134.299.4204.681.8023 1.051 1.1753.654.6542 1.332 1.3321 1.592 2.2439.388 1.3529-.257 2.6376-.879 3.881-.393.7845-.799 1.5956-.953 2.4215-.305 1.646.385 3.2919 1.051 4.8816l.115.2812c.705 1.6963 1.327 3.6649.586 5.3937z"/><path d="m143.007 50.6298c-.029.0267-.068.0415-.103.0415-.039 0-.077-.0148-.107-.0444-1.051-1.0983-1.329-2.8331-.832-5.1599.068-.3197.145-.6364.219-.9561.332-1.3914.675-2.8331.349-4.2067-.227-.9562-.743-1.7821-1.29-2.6583-.273-.4352-.554-.8852-.791-1.347-1.039-2.01-1.29-4.4197-.695-6.6281.071-.0326.142-.0681.21-.1037.032-.0177.062-.0355.092-.0532.02.0325.026.074.014.1124-.615 2.17-.381 4.553.64 6.5364.234.453.512.897.781 1.3263.536.8555 1.09 1.7436 1.33 2.7471.337 1.4447-.012 2.916-.35 4.3428-.077.3168-.151.6335-.219.9473-.476 2.2292-.222 3.8751.755 4.8935.056.0592.053.1539-.003.2101z"/><path d="m146.255 49.3925c-.009.077-.074.1332-.148.1332h-.015c-.08-.0089-.142-.0829-.133-.1628.151-1.492-.068-3.0136-.634-4.405-.145-.3552-.317-.7134-.482-1.0568-.353-.7341-.717-1.492-.862-2.312-.136-.7697-.074-1.5571-.015-2.315.024-.2901.048-.5802.06-.8703.148-3.3541-1.108-6.5305-2.638-10.0385.071-.0769.136-.1598.198-.2398.021.0119.036.0297.045.0533 1.56 3.5672 2.839 6.7999 2.691 10.2368-.012.2931-.036.5862-.06.8822-.059.7401-.121 1.5068.009 2.238.139.7815.495 1.5216.838 2.2351.169.3493.34.7104.489 1.0745.586 1.4358.814 3.0077.657 4.5471z"/><path d="m147.998 49.203c-.017 0-.038-.003-.056-.0118-.077-.0297-.112-.1185-.083-.1925 1.353-3.3451 1.17-7.2528-.494-10.4529-.272-.524-.586-1.039-.891-1.5364-.492-.8022-.998-1.6311-1.344-2.5251-.764-1.9716-.72-4.1386-.678-6.2315.006-.2576.012-.5181.015-.7756.035-2.3476-.113-4.7809-1.424-6.6726-1.32-1.9035-3.653-3.0876-7.348-3.727-.518-.0888-1.039-.1688-1.563-.2487-2.312-.3552-4.701-.7223-6.737-1.9183-1.744-1.0243-3.044-2.3712-3.784-3.9017-1.199 1.9953-3.383 4.0645-5.405 5.0977-.071.0385-.163.0089-.199-.0651-.038-.0741-.009-.1629.066-.1984 2.057-1.0539 4.289-3.2031 5.426-5.2279.026-.0503.077-.077.136-.074.056.0029.107.0385.127.0888.687 1.5838 1.993 2.9751 3.781 4.029 1.986 1.1693 4.348 1.5305 6.634 1.8828.524.0799 1.048.1598 1.569.2516 2.377.4115 5.743 1.2552 7.54 3.8484 1.355 1.9597 1.509 4.4464 1.474 6.8443-.003.2575-.009.518-.015.7756-.041 2.0663-.086 4.2007.657 6.119.338.8703.838 1.6873 1.32 2.4777.308.5033.625 1.0214.9 1.5542 1.703 3.2771 1.892 7.2765.507 10.7016-.018.0533-.071.0888-.131.0888z"/><path d="m140.823 16.9502c-.033 0-.063-.0089-.089-.0296-1.918-1.4505-4.387-1.8591-6.776-2.2557-2.164-.3582-4.405-.7312-6.291-1.865-1.095-.6572-2.016-1.5335-3.02-2.5282-.059-.0562-.059-.1509 0-.2101.057-.0593.151-.0593.211 0 .991.9798 1.897 1.8442 2.966 2.4837 1.838 1.1042 4.047 1.4712 6.184 1.8265 2.424.4026 4.932.82 6.906 2.312.066.0503.077.1421.03.2072-.033.0385-.077.0592-.121.0592z"/><path d="m139.221 14.2474c-.032 0-.065-.0118-.095-.0325-1.358-1.1102-2.765-2.2588-4.428-2.9012-.897-.3463-1.862-.5358-2.798-.7223-.417-.0829-.846-.1687-1.27-.2664-1.104-.2576-2.7-.7312-3.798-1.87685-.056-.0592-.053-.15394.006-.21018.059-.05625.154-.05329.21.00592 1.042 1.08644 2.582 1.54233 3.65 1.79101.418.0977.844.1806 1.258.2635.948.1865 1.928.3818 2.848.7341 1.708.6572 3.132 1.8206 4.509 2.9485.062.0503.074.1451.021.2072-.027.0415-.071.0592-.113.0592z"/><path d="m132.528 8.88335c-.018 0-.036-.00296-.05-.00888-1.288-.47365-2.469-1.16637-3.514-2.05743-.063-.05329-.071-.14506-.018-.20722.053-.06217.148-.07105.21-.01776 1.018.86737 2.17 1.54233 3.422 2.00414.077.0296.116.11249.089.18946-.024.0592-.08.09769-.139.09769z"/><path d="m149.819 48.75c-.006 0-.009 0-.015 0-.08-.0089-.142-.08-.133-.1628.266-2.7443.568-5.8556-.391-8.6412-.237-.6868-.553-1.3588-.861-2.0101-.412-.8733-.835-1.7762-1.081-2.7324-.388-1.5186-.311-3.1113-.234-4.6506.071-1.4565.145-2.9604-.18-4.3843-.373-1.6282-1.258-3.1054-2.114-4.5352-.462-.7726-.941-1.569-1.338-2.389-.364-.7519-.672-1.5453-.968-2.312-.444-1.1486-.906-2.3386-1.566-3.3925-1.679-2.685-4.512-4.36057-7.25-5.98283-1.015-.60094-2.063-1.22261-3.043-1.88868-.068-.04736-.086-.13913-.039-.20426.048-.06809.14-.08585.205-.03849.971.66015 2.016 1.27886 3.028 1.87981 2.768 1.64002 5.634 3.33625 7.348 6.08055.675 1.0775 1.139 2.2794 1.589 3.4428.296.7608.601 1.5483.959 2.2883.391.8082.868 1.6016 1.327 2.3683.867 1.4476 1.764 2.9455 2.149 4.6211.334 1.4624.26 2.9869.186 4.4641-.074 1.5187-.151 3.0876.225 4.5648.237.9296.658 1.8177 1.06 2.6791.311.6572.631 1.3381.873 2.0397.983 2.8478.678 5.9917.409 8.7655-.006.074-.068.1303-.145.1303z"/><path d="m135.42 7.4446c-.036 0-.074-.0148-.104-.04144-1.19-1.14861-2.566-2.05743-4.088-2.70278-.074-.03256-.109-.11841-.08-.19538.033-.07697.119-.10953.195-.07993 1.558.65719 2.964 1.58673 4.18 2.76198.06.05625.063.15098.003.21019-.029.03256-.068.04736-.106.04736z"/><path d="m152.324 48.2024c-.048 0-.092-.0207-.122-.0622-1.015-1.4358-1.018-3.3363-.932-4.6447.023-.3582.056-.7164.088-1.0746.107-1.193.22-2.4245-.008-3.6027-.217-1.1368-.746-2.2084-1.259-3.2475-.515-1.0421-1.045-2.1226-1.275-3.283-.252-1.267-.131-2.5755-.015-3.8396.115-1.2433.234-2.5281-.009-3.7536-.308-1.5572-1.178-2.9485-2.022-4.2925-.394-.6306-.802-1.2818-1.152-1.9449-.343-.6572-.642-1.344-.929-2.0131-.178-.4144-.361-.8407-.554-1.2522-2.229-4.7809-6.074-8.67373-10.826-10.96502-.074-.03552-.103-.12433-.068-.19834.036-.07401.125-.10361.199-.06808 4.813 2.32089 8.706 6.26404 10.965 11.10714.195.4174.379.8466.559 1.2611.284.6601.58 1.3469.918 1.9923.343.6542.749 1.2996 1.14 1.9242.855 1.3677 1.743 2.7827 2.06 4.3931.252 1.267.13 2.5755.015 3.8395-.116 1.2434-.234 2.5282.009 3.7537.222 1.125.746 2.1848 1.252 3.209.521 1.0539 1.057 2.1463 1.282 3.3215.234 1.2197.121 2.4719.012 3.6856-.033.3552-.066.7134-.089 1.0687-.083 1.2611-.083 3.0965.876 4.4553.047.0681.033.1598-.036.2072-.02.0148-.05.0237-.079.0237z"/><path d="m121.367 9.38073c-.053 0-.106-.0296-.133-.08289-.035-.07401-.006-.16281.065-.19834 1.424-.7164 2.943-1.18413 4.512-1.39431.08-.00888.157.0444.165.12729.012.07993-.047.1569-.127.16578-1.536.20426-3.022.66311-4.417 1.36471-.02.01184-.041.01776-.065.01776z"/><path d="m119.674 12.19c-.068 0-.13-.0473-.145-.1184-.015-.0799.035-.1569.115-.1747.856-.1746 1.661-.6039 2.265-1.2078l.098-.0977c.361-.367.775-.78444 1.317-.70155.08.01184.136.08881.124.16875-.011.0799-.088.1362-.168.1243-.397-.0621-.734.2842-1.06.6158l-.101.1006c-.645.6454-1.501 1.1013-2.412 1.2907-.012 0-.024 0-.033 0z"/><path d="m128.635 6.18652c-.033 0-.068-.01184-.095-.03553-.636-.53285-1.592-.3878-2.442-.20722-.477.10065-1.036.19835-1.551.16282-.083-.00592-.142-.07697-.136-.1569.005-.08288.08-.14505.159-.13617.477.03256 1.01-.05921 1.469-.1569.983-.20722 1.989-.31675 2.691.27235.062.05329.071.14506.017.20723-.029.03256-.071.05032-.112.05032z"/></g><g fill="#808080"><path d="m36.4119 51.7045c-.0059 0-.0089 0-.0148 0l-3.8188-.1865c-.1628-.0089-.2901-.148-.2812-.3108.0088-.1629.1391-.2872.3108-.2813l3.8188.1865c.1628.0089.2901.148.2813.3109-.006.1569-.1392.2812-.2961.2812z"/><path d="m27.4629 58.7766c-.1066 0-.2072-.0563-.2605-.1569-.077-.1451-.0237-.3227.1214-.3996l9.0142-4.8194c.145-.077.3226-.0237.3996.1213.077.1451.0237.3227-.1214.3997l-9.0141 4.8194c-.0444.0237-.0918.0355-.1392.0355z"/><path d="m34.4729 59.6529c-.0799 0-.1599-.0326-.2191-.0977-.1095-.1214-.1006-.3079.0208-.4174l2.753-2.5045c.1214-.1095.3079-.1006.4175.0208.1095.1213.1006.3078-.0208.4174l-2.7531 2.5044c-.0562.0533-.1273.077-.1983.077z"/><path d="m36.6016 67.104c-.0385 0-.0741-.0059-.1125-.0207-.151-.0622-.225-.2339-.1629-.3849l3.881-9.5144c.0622-.151.2339-.225.3849-.1629.151.0622.225.2339.1628.3849l-3.881 9.5145c-.0444.1124-.1569.1835-.2723.1835z"/><path d="m43.4872 60.843c-.1628 0-.296-.1332-.296-.296v-3.1913c0-.1628.1332-.296.296-.296s.296.1332.296.296v3.1913c0 .1628-.1332.296-.296.296z"/><path d="m69.692 54.1733c-.071 0-.1361-.0532-.145-.1273-.0119-.0799.0444-.1568.1243-.1687l5.447-.8141c.0799-.0118.1569.0444.1687.1244.0119.0799-.0444.1568-.1243.1687l-5.447.8141c-.0089 0-.0177.0029-.0237.0029z"/><path d="m69.9524 55.6297c-.0711 0-.1362-.0532-.1451-.1243-.0118-.0799.0414-.1569.1243-.1687l5.8378-.9088c.0829-.0119.1569.0414.1687.1243.0119.0799-.0414.1569-.1243.1687l-5.8378.9088c-.0088 0-.0148 0-.0236 0z"/><path d="m71.844 56.5624c-.0711 0-.1362-.0533-.1451-.1244-.0118-.0799.0415-.1568.1243-.1687l5.0326-.7815c.0829-.0119.1569.0414.1687.1243.0119.08-.0414.1569-.1243.1688l-5.0326.7815c-.0088 0-.0177 0-.0236 0z"/><path d="m114.502 5.39024c-.062 0-.121-.04145-.142-.10362-.453-1.42095-2.806-3.89282-2.83-3.91946-.056-.05921-.053-.15394.006-.21019.059-.05624.154-.05328.21.00593.098.10361 2.425 2.54587 2.898 4.03196.024.07696-.017.15985-.094.1865-.018.00592-.033.00888-.048.00888z"/><path d="m115.728 5.13855c-.062 0-.121-.04144-.142-.10361-.456-1.42391-2.605-3.89874-2.626-3.92242-.053-.06217-.047-.153943.015-.210189.062-.053286.154-.047364.21.014802.089.103607 2.211 2.545877 2.685 4.028997.024.07697-.018.15986-.095.1865-.017.00296-.032.00592-.047.00592z"/><path d="m116.947 4.95496c-.062 0-.121-.04145-.142-.10361-.456-1.42392-2.605-3.89875-2.625-3.922433-.054-.062166-.048-.153934.014-.21018.063-.053286.154-.047364.211.014803.088.103611 2.211 2.54587 2.685 4.02899.023.07697-.018.15986-.095.18651-.018.00592-.033.00592-.048.00592z"/></g><path d="m105.038 139.437-12.3946-4.068c-.145-.047-.1894-.234-.0828-.34l5.8614-5.9c.0533-.057.1362-.074.2102-.051l11.9508 3.831c.142.044.189.222.092.332l-5.418 6.136c-.053.062-.139.086-.219.06z" fill="#7451eb"/><path d="m92.519 134.999v-1.341l18.046-2.066v1.35l-5.524 6.113z" fill="#f7ebe7"/><path d="m104.832 137.749-12.2939-3.783c-.1717-.053-.222-.269-.0918-.391l6.0184-5.761c.0621-.059.148-.08.2309-.053l11.7254 3.609c.163.05.219.254.104.382l-5.45 5.935c-.062.065-.157.089-.243.062z" fill="#7451eb"/><path d="m92.608 135.141c.0059.083.0355.166.0769.243l-.0414-.015c-.1451-.05-.1895-.234-.08-.343l.0474-.048c-.0059.053-.0089.11-.0029.163z" fill="#c5bedc"/><path d="m95.1005 134.315c-.5329-.299-.7756.468-.8704.838-.0414.16-.0828.331-.068.497.0059.083.0355.166.0769.243l-.3523-.115c-.0236-.134-.0236-.27-.0059-.397.0829-.631.5329-1.788 1.3677-1.323.1658.094.0178.349-.148.257z" fill="#c5bedc"/><path d="m96.6547 134.824c-.5358-.299-.7756.471-.8704.838-.0414.163-.0828.332-.068.497.0059.083.0355.166.0769.243l-.3523-.115c-.0236-.134-.0236-.27-.0059-.397.08-.631.5329-1.788 1.3677-1.32.1658.091.0178.346-.148.254z" fill="#c5bedc"/><path d="m98.2059 135.334c-.5328-.297-.7726.47-.8674.84-.0414.16-.0858.329-.068.498.0059.08.0355.162.0769.239l-.3523-.115c-.0236-.133-.0236-.269-.0059-.397.0799-.627.5329-1.785 1.3677-1.32.1658.092.0177.349-.151.255z" fill="#c5bedc"/><path d="m99.7601 135.843c-.5328-.296-.7726.47-.8673.84-.0415.16-.0859.329-.0681.498.0059.083.0355.166.0769.243l-.3552-.119c-.0207-.13-.0207-.266-.0059-.394.0829-.63.5358-1.788 1.3706-1.323.1659.092.0148.349-.151.255z" fill="#c5bedc"/><path d="m101.314 136.355c-.533-.299-.775.468-.87.838-.041.159-.083.331-.068.497.009.083.035.166.077.243l-.352-.116c-.021-.133-.021-.269-.006-.396.083-.631.533-1.788 1.367-1.324.169.095.018.35-.148.258z" fill="#c5bedc"/><path d="m102.869 136.864c-.533-.299-.776.471-.871.838-.041.163-.083.331-.068.497.006.083.036.166.077.243l-.352-.116c-.021-.133-.021-.269-.006-.396.083-.631.533-1.788 1.368-1.321.168.092.017.347-.148.255z" fill="#c5bedc"/><path d="m104.423 137.373c-.533-.296-.776.471-.871.841-.041.16-.082.329-.068.497.006.08.036.163.077.24l-.352-.115c-.024-.134-.024-.27-.006-.397.083-.628.533-1.785 1.368-1.32.166.091.018.349-.148.254z" fill="#c5bedc"/><path d="m93.5463 133.803c-.5329-.296-.7756.471-.8703.841-.0267.106-.0563.222-.0652.334-.0059.053-.0088.11-.0029.163.0059.083.0355.166.0769.243.1125.207.3286.349.5211.168l.293.098c-.0029.018-.0148.036-.0266.053-.1836.234-.5151.296-.7786.143-.3345-.199-.4115-.622-.3671-.974.0829-.631.5329-1.788 1.3677-1.324.1687.092.0178.35-.148.255z" fill="#808080"/><path d="m95.1005 134.315c-.5329-.299-.7756.468-.8704.838-.0414.16-.0828.331-.068.497.0059.083.0355.166.0769.243.1125.207.3257.349.521.172l.2931.094c-.0029.018-.0148.036-.0266.054-.1836.234-.5151.296-.7786.142-.2161-.125-.3227-.344-.3612-.577-.0236-.134-.0236-.27-.0059-.397.0829-.631.5329-1.788 1.3677-1.323.1658.094.0178.349-.148.257z" fill="#808080"/><path d="m96.6547 134.824c-.5358-.299-.7756.471-.8704.838-.0414.163-.0828.332-.068.497.0059.083.0355.166.0769.243.1096.207.3227.349.5181.172l.296.095c-.0029.017-.0148.035-.0266.053-.1865.237-.5181.296-.7786.142-.2161-.124-.3227-.343-.3612-.577-.0236-.134-.0236-.27-.0059-.397.08-.631.5329-1.788 1.3677-1.32.1658.091.0178.346-.148.254z" fill="#808080"/><path d="m98.2059 135.334c-.5328-.297-.7726.47-.8674.84-.0414.16-.0858.329-.068.498.0059.08.0355.162.0769.239.1096.208.3257.353.521.172l.2902.095c-.003.018-.0119.035-.0237.053-.1865.237-.5181.299-.7786.145-.2161-.127-.3227-.346-.3612-.58-.0236-.133-.0236-.269-.0059-.397.0799-.627.5329-1.785 1.3677-1.32.1658.092.0177.349-.151.255z" fill="#808080"/><path d="m99.7601 135.843c-.5328-.296-.7726.47-.8673.84-.0415.16-.0859.329-.0681.498.0059.083.0355.166.0769.243.1125.207.3257.349.5211.168l.293.098c-.0059.018-.0118.035-.0266.053-.1865.234-.5181.296-.7786.142-.2161-.127-.3256-.346-.3641-.58-.0207-.13-.0207-.266-.0059-.394.0829-.63.5358-1.788 1.3706-1.323.1659.092.0148.349-.151.255z" fill="#808080"/><path d="m101.314 136.355c-.533-.299-.775.468-.87.838-.041.159-.083.331-.068.497.009.083.035.166.077.243.112.207.326.349.521.171l.293.095c-.003.018-.012.036-.024.053-.186.234-.518.296-.781.143-.213-.125-.323-.344-.361-.578-.021-.133-.021-.269-.006-.396.083-.631.533-1.788 1.367-1.324.169.095.018.35-.148.258z" fill="#808080"/><path d="m102.869 136.864c-.533-.299-.776.471-.871.838-.041.163-.083.331-.068.497.006.083.036.166.077.243.113.207.326.349.521.172l.293.094c-.003.018-.015.036-.026.054-.184.236-.516.296-.779.142-.213-.125-.323-.344-.361-.578-.021-.133-.021-.269-.006-.396.083-.631.533-1.788 1.368-1.321.168.092.017.347-.148.255z" fill="#808080"/><path d="m104.423 137.373c-.533-.296-.776.471-.871.841-.041.16-.082.329-.068.497.006.08.036.163.077.24.11.207.326.352.524.172l.29.097c-.006.018-.014.036-.026.051-.184.237-.515.299-.779.145-.216-.127-.323-.347-.361-.58-.024-.134-.024-.27-.006-.397.083-.628.533-1.785 1.368-1.32.166.091.018.349-.148.254z" fill="#808080"/><path d="m76.1128 13.7116c-.6039 0-1.1605.2043-1.6016.5477l.8822 1.0598c.2043-.1451.45-.228.7194-.228.6868 0 1.2433.5566 1.2433 1.2434s-.5565 1.2433-1.2433 1.2433c-.2665 0-.5151-.0829-.7164-.228l-.8822 1.0598c.4411.3405.9976.5447 1.5986.5447 1.4476 0 2.6199-1.1722 2.6199-2.6198 0-1.4506-1.1723-2.6229-2.6199-2.6229z" fill="#7451eb"/><path d="m100.225 133.738-.403-.791.397-.201c.157-.08.509-.536.488-.903-.003-.074-.015-.245-.343-.367-.5479-.201-.8795-.003-1.0275.133-.2072.19-.299.471-.2338.717l.1125.429-.8585.228-.1125-.429c-.151-.572.0385-1.184.4944-1.602.4973-.456 1.2196-.571 1.9304-.311.763.279.908.838.926 1.149.045.755-.536 1.525-.971 1.747z" fill="#d9d9d9"/><g fill="#e27356"><path d="m130.02 30.55c.174 0 .314-.1405.314-.3138s-.14-.3138-.314-.3138c-.173 0-.313.1405-.313.3138s.14.3138.313.3138z"/><path d="m128.431 29.0935c.173 0 .314-.1405.314-.3138s-.141-.3138-.314-.3138c-.174 0-.314.1405-.314.3138s.14.3138.314.3138z"/><path d="m126.823 30.2213c.173 0 .314-.1405.314-.3138s-.141-.3137-.314-.3137-.314.1404-.314.3137.141.3138.314.3138z"/><path d="m125.533 30.9082c.173 0 .313-.1405.313-.3138s-.14-.3138-.313-.3138c-.174 0-.314.1405-.314.3138s.14.3138.314.3138z"/><path d="m125.071 28.4185c.173 0 .313-.1405.313-.3138s-.14-.3138-.313-.3138c-.174 0-.314.1405-.314.3138s.14.3138.314.3138z"/><path d="m124.032 29.4339c.173 0 .313-.1405.313-.3138s-.14-.3138-.313-.3138c-.174 0-.314.1405-.314.3138s.14.3138.314.3138z"/><path d="m120.003 28.3238c.173 0 .314-.1405.314-.3138s-.141-.3138-.314-.3138c-.174 0-.314.1405-.314.3138s.14.3138.314.3138z"/><path d="m118.419 28.1433c.173 0 .314-.1405.314-.3138s-.141-.3138-.314-.3138c-.174 0-.314.1405-.314.3138s.14.3138.314.3138z"/><path d="m119.422 30.4701c.174 0 .314-.1405.314-.3138s-.14-.3138-.314-.3138c-.173 0-.313.1405-.313.3138s.14.3138.313.3138z"/><path d="m125.343 32.8294c.003.0207-.009.0385-.03.0444-.719.151-1.364.228-1.965.228-.69 0-1.323-.1007-1.942-.302-.018-.0059-.03-.0266-.024-.0473.006-.0178.03-.0296.048-.0237 1.145.373 2.338.3967 3.869.071.02-.0029.038.0089.044.0296z"/><path d="m126.646 32.4031c-.024-.0592-.086-.1007-.151-.0948-3.502.2754-6.253-.3345-6.279-.3404-.062-.0148-.13.0148-.16.0711-.033.0562-.024.1272.021.1746.059.0651 1.527 1.6075 3.072 1.6726.039.003.074.003.11.003 1.513 0 3.259-1.2582 3.333-1.3144.054-.0385.074-.1096.054-.1717zm-1.333.4707c-.719.1509-1.364.2279-1.965.2279-.69 0-1.323-.1006-1.942-.3019-.018-.006-.03-.0267-.024-.0474.006-.0178.03-.0296.048-.0237 1.145.373 2.338.3967 3.869.0711.02-.003.038.0088.044.0296.003.0207-.009.0384-.03.0444z"/></g><path d="m125.343 32.8294c.003.0207-.009.0385-.03.0444-.719.151-1.364.228-1.965.228-.69 0-1.323-.1007-1.942-.302-.018-.0059-.03-.0266-.024-.0473.006-.0178.03-.0296.048-.0237 1.145.373 2.338.3967 3.869.071.02-.0029.038.0089.044.0296z" fill="#000"/></svg>