<svg fill="none" height="232" viewBox="0 0 190 232" width="190" xmlns="http://www.w3.org/2000/svg"><path d="m43.3992 20.9567s-2.2915 1.2201-2.3279 1.5115c-.0637.5098-.1032 1.0106-.1366 1.5053-.0151.2762-.0303.5463-.0394.8134-.0061.0516-.0091.1032-.0091.1548-.0182.3703-.0334.7284-.0486 1.0774-.1578 3.554-.5281 5.8394-6.0609 3.724-.0577-.0091-.1184-.0152-.1791-.0243-.0789-.0061-.1578-.0121-.2398-.0182-.1183-.0091-.2397-.0121-.3672-.0121-.1092 0-.2185.003-.3187.006h-.003c-.091.0031-.1791.0091-.264.0182-.0698.0031-.1366.0122-.2034.0213-.0394.003-.0789.0091-.1153.0152-.0698.0091-.1396.0212-.2034.0364-.1547.0334-.2944.0728-.4188.1214-.0607.0243-.1184.0485-.173.0789-.0546.0273-.1062.0577-.1548.091-.0485.0304-.0941.0668-.1366.1032-.0364.0304-.0698.0638-.1001.0972-.0486.0516-.0911.1092-.1244.1699-.0183.0213-.0304.0425-.0425.0668-.0122.0212-.0213.0425-.0304.0668-.0152.0273-.0243.0546-.0334.0819-.006.0152-.0121.0334-.0151.0516-.0122.0273-.0213.0577-.0274.088-.006.0213-.0121.0455-.0151.0698-.0091.0425-.0152.088-.0182.1366 0 .003-.0031.0091-.0031.0152-.0061.0576-.0091.1214-.0091.1851 0 .4128.1184.9166.3399 1.5114.0425.1154.085.2307.1305.34.3217.8346.6344 1.4993.9682 2.1548.0273.0516.0516.1032.0789.1548.0243.0455.0455.0911.0698.1366.2398.4765.4522.871.5949 1.126.0121.0212.0212.0425.0334.0637-.4189.0546-1.0228.0971-1.8939.1002-.003.003-.0091.003-.0121.003 0 0-.2853-1.1958-.862-2.3096-.0819-.1609-.1699-.3187-.264-.4705 0 0 .3369-1.4446.2398-3.7057-.0941-2.2641-.8165-4.3795-.8165-7.1232s.6253-5.5359 3.466-9.4359c.6252-.8589 1.1624-1.7147 1.6177-2.5281.1001-.1761.1942-.346.2822-.516.0881-.1608.17-.3217.2489-.4795.0395-.0789.0789-.1518.1154-.2276.1001-.19731.1912-.39155.2792-.57972.0394-.08194.0758-.16085.1092-.23673.1791-.39152.3369-.75875.4705-1.09564.0546-.13657.1062-.26404.1517-.38848.0728-.18514.1366-.35813.1943-.51595.0364-.10319.0698-.20031.1001-.29137.0061-.02124.0152-.04248.0213-.06069.0273-.07588.0485-.14569.0697-.20942.0122-.03946.0243-.07891.0365-.11533.091-.28226.4188-.4158.6737-.26708.0972.05766.2064.12747.3218.20942.0546.04249.1123.08801.1699.13657.0911.07588.1821.15782.2762.24887.1669.16692.3369.3642.5008.5979.0303.03642.0546.07284.0789.1123.1305.1912.2549.40668.3703.64645.0394.07891.0789.16086.1153.24887.0394.08802.0789.18211.1153.27619.0304.08195.0607.16693.0911.25494.1365.40669.2519.86498.3338 1.384.0152.0941.0273.1912.0395.2913.0212.1487.0364.3005.0516.4583.0364.4249.0698.8316.0971 1.211.0091.0971.0152.1882.0212.2822v.0182c.0152.2155.0304.4219.0425.6192.0182.2731.0334.5342.0486.78.0091.1305.0152.258.0212.3794.0061.1214.0091.2397.0152.3551-1.3748 1.3961-3.0745 1.7056-3.0927 1.7087-.1639.0273-.2762.1851-.2488.349.0273.1487.1547.2519.3004.2519.0152 0 .0334 0 .0516-.003.0152-.0031.0971-.0182.2307-.0516.0152.0061.0303.0121.0485.0212.0274.0122.0577.0243.0911.0334.0273.0091.0546.0182.085.0304.0425.0151.085.0273.1335.0394.1366.0395.2975.0759.4947.1153.1973.0395.428.079.6981.1184.346.0486.7587.0971 1.2504.1427l.088.091.428.4492.44.4613.0213.0213 1.7178 1.7997c.176.1852.1426.4826-.0728.6252z" fill="#e1a897"/><path d="m31.0283 34.4899c.5767 1.1139.862 2.3097.862 2.3097h-.2914c.003-.4128-.0607-1.2869-.5706-2.3097z" fill="#e1a897"/><path d="m37.5021 6.00629s.2094.05463.522.23673c-.2549-.14872-.5827-.01518-.6738.26708.1032-.32475.1518-.50381.1518-.50381z" fill="#e1a897"/><path d="m38.5159 6.58905c.088.06981.1821.15478.2762.24887-.0941-.09105-.1852-.17299-.2762-.24887z" fill="#e1a897"/><path d="m44.3825 41.5221c-3.6906-2.8924-9.0079-5.0382-9.3175-5.1626-.085-.0364-.1821-.0304-.261.0152-.0455.0273-.0819.0607-.1093.1032-.0516.0333-.2549.1396-.8983.2185-.0122-.0213-.0213-.0425-.0334-.0638-.2094-.3975-.4067-.7648-.5949-1.1259-.0243-.0456-.0455-.0911-.0698-.1366-.0273-.0516-.0516-.1032-.0789-.1548-.3338-.6556-.6465-1.3202-.9682-2.1549-.0455-.1092-.088-.2246-.1305-.3399-.2215-.5948-.3399-1.0987-.3399-1.5114 0-.0638.003-.1245.0091-.1852 0-.006.0031-.0121.0031-.0151.003-.0486.0091-.0941.0182-.1366.003-.0243.0091-.0486.0151-.0698.0061-.0304.0152-.0607.0273-.088.0031-.0182.0092-.0365.0152-.0516.0091-.0273.0182-.0547.0334-.082.0091-.0242.0182-.0455.0304-.0667.0121-.0243.0242-.0456.0424-.0668.0334-.0607.0759-.1184.1245-.17.0303-.0334.0637-.0667.1001-.0971.0425-.0364.0881-.0728.1366-.1032.0486-.0334.1002-.0637.1548-.091.0546-.0304.1123-.0547.173-.0789.1244-.0486.264-.0881.4188-.1214.0668-.0152.1336-.0274.2034-.0365.0364-.006.0759-.0121.1153-.0151.0668-.0091.1336-.0152.2034-.0213.0849-.0091.173-.0152.264-.0182h.003c.1002-.003.2095-.0061.3187-.0061.1275 0 .2489.0031.3672.0122.082.0061.1609.0121.2398.0182.0607.0091.1214.0152.1791.0243.7709.2944 1.4416.5038 2.0243.6343.0031.003.0031.003.0031.003.9256.8134 3.6784 3.2991 5.0927 5.3872.0486.0698.0941.1426.1396.2124.0547.088.1093.17.1579.255.0485.0819.0971.1639.1396.2458.2185.4067.4249.7891.613 1.1503.1912.3611.3673.7011.5221 1.0288.0515.1093.1031.2155.1517.3217.0486.1063.0941.2095.1396.3127.0455.1031.088.2063.1275.3065.0394.1001.0789.2003.1123.2974.0364.1002.0698.1973.1001.2944.0425.1214.0759.2428.1063.3642.0212.0729.0394.1427.0546.2155.0425.176.0728.3521.0971.5281.0091.0728.0182.1487.0243.2216z" fill="#a37052"/><path d="m45.0139 42.038c-.1001-.085-.2003-.167-.3035-.2519-.1062-.088-.2155-.1761-.3278-.2641-.006-.0728-.0151-.1487-.0242-.2215-.0243-.1761-.0547-.3521-.0972-.5281-.0151-.0729-.0334-.1427-.0546-.2155-.0303-.1214-.0637-.2428-.1062-.3642-.0304-.0971-.0638-.1943-.1002-.2944-.0334-.0971-.0728-.1973-.1123-.2974-.0394-.1002-.0819-.2034-.1274-.3066-.0425-.1032-.0911-.2064-.1397-.3126-.0455-.1062-.0971-.2124-.1517-.3217-.1548-.3278-.3308-.6677-.522-1.0289-.1882-.3611-.3946-.7435-.6131-1.1502-.0425-.082-.0911-.1639-.1396-.2459-.0486-.0849-.1032-.1669-.1578-.2549-.0456-.0698-.0911-.1427-.1396-.2125-1.4144-2.088-4.1671-4.5737-5.0928-5.3871.1335.0303.261.0546.3854.0789.255.0455.4917.0759.7133.088 1.4204 1.2899 3.9273 3.7179 4.9653 5.6451 1.2747 2.3643 2.1579 3.9972 2.1457 5.8455z" fill="#e2bc97"/><path d="m75.5701 63.7899-.4765 7.4874c-.5827.1335-1.2201.0212-1.7209-.3065-.1669-.1093-.3277-.2489-.3976-.4371-.0182-.0455-.0303-.0941-.0364-.1426-.0212-.1427 0-.2914.0213-.4371.3095-2.0365 1.0106-4.0881.8012-6.1125.604.0425 1.2049.0364 1.8089-.0516z" fill="#f7ebe7"/><path d="m33.3745 89.6513 16.6743 8.4677c.3612.1852.8043.0668 1.0289-.2762l16.987-26.0859c.258-.3976.1153-.9287-.3066-1.1442l-16.6743-8.4677c-.3612-.1851-.8043-.0668-1.0289.2762l-16.987 26.0859c-.2579.3976-.1153.9287.3066 1.1442z" fill="#00f8f6"/><path d="m167.829 120.177c-.513 1.412-7.764 1.797-9.624 1.73-1.864-.063-1.576-8.276-1.381-13.763.191-5.488.865-25.883.865-25.883-.865-1.6238-3.175-10.0247-3.175-10.0247s-2.407 10.2037-2.601 13.1872c-.191 2.9864.288 10.7834.58 13.6697.288 2.8888.625 23.8738.528 25.4148-.097 1.539-3.032 1.539-3.032 1.539l-.386 16.204-.482 28.945s1.35 14.246 1.253 17.809c-.085 3.123-2.394 21.525-2.956 25.983-.07.543-.546.935-1.092.899-.082-.007-.164-.01-.243-.016-3.232-.2-6.65-.124-8.826-.033-.473.018-.886.039-1.226.058-.568.03-1.041-.431-1.023-.999.137-4.385.653-21.151.738-27.816.094-7.703.576-12.804-.966-16.076-1.538-3.275-3.271-18.869-4.136-28.111-.868-9.241-3.466-12.13-3.466-12.13s-.289 1.253-1.733 10.206c-1.445 8.951-3.949 18.386-4.043 19.446-.097 1.059-.097 4.136-.385 13.669-.289 9.53.191 18.675-.577 25.027-.771 6.355-1.059 14.295-1.156 14.586-.061.176-.101.443-.738.668-.397.143-1.032.267-2.055.343-2.309.167-6.446-.212-7.915-.537-.215-.049-.373-.094-.458-.137-.674-.337-.771-.482-.58-5.487.194-5.008.771-43.996.674-47.844-.094-3.851-1.251-15.403-1.251-21.178 0-5.776.289-18.159.289-18.159-.577-.54-1.348-.998-1.348-.998s0-3.081 0-5.585c0-2.501 3.369-34.8478 3.852-39.7555.479-4.9106.255-12.4192.255-12.4192s-9.242 7.9578-11.1024 8.152c-1.8605.1912-21.4333 1.1533-23.2938 1.1533-1.8635 0-1.5418-.7709-.8346-2.4371.7041-1.6692.5129-5.8424.5129-5.8424s2.1822-.3187 3.6572-.4492c1.475-.1274 17.5849-4.1701 19.1904-5.7756 1.6025-1.6025 5.7423-5.196 6.8983-5.9668 1.154-.7709 5.87-5.7757 6.929-6.9472 1.059-1.1685 2.504-4.7012 5.488-5.4721 2.986-.7709 12.862-3.3173 12.862-3.3173.419-.3551 1.071-.7587 1.721-1.1169-.058 1.035-.125 2.0881-.158 2.5919h-.009c-.134 0-.252.0789-.295.2034-.264.7435-.437 1.4386-.534 2.082-.042.1062-.085.2185-.13.3338-.565 1.4477-1.311 3.4751-2.031 5.7969-.036.1153-.073.2307-.106.349-.252.8195-.498 1.6754-.731 2.5555-.094.3551-.185.7163-.277 1.0805-.018.0759-.039.1548-.057.2337-.049.1973-.094.3976-.143.5979-.009.0486-.027.1001-.027.1639.003.2124-.04.4218-.143.607-.006.0091-.006.0121-.006.0182-.042.1912-.082.3854-.121.5766-.155.7406-.292 1.4872-.407 2.2338-.036.2337-.07.4674-.103.7011-.595 4.2976-.78 10.2644-.75 15.4513 0 .1608.003.3186.003.4765.003.2974.006.5887.009.8771 0 .0455.003.088.003.1335.003.1942.006.3885.01.5797 0 .0546.003.1093.003.1639.003.2883.009.5736.018.8528 0 .1396.006.2793.009.4189.006.2549.012.5038.021.7466.003.1548.009.3095.015.4583.003.1335.006.261.012.3884.003.1275.01.2519.016.3764.018.5099.039.9924.063 1.4477.006.1123.012.2215.019.3308.006.1153.012.2307.018.3399.006.1123.015.2216.021.3278s.015.2094.021.3126.012.2034.021.3005c.031.3915.061.7466.092 1.0562.006.0789.015.1517.024.2245.006.0729.015.1397.024.2064.006.0668.015.1305.024.1912.016.1214.031.2337.049.3309 0 0 1.347-1.2505 3.897-6.9775.637-1.4326 1.341-2.8742 2.067-4.2946.088-.173.176-.3429.264-.5159.185-.3612.37-.7163.555-1.0714.091-.176.185-.349.276-.5251.107-.2063.216-.4097.322-.613.106-.2034.213-.4037.319-.604.109-.2003.215-.4006.318-.5979.85-1.5934 1.661-3.1109 2.35-4.4948.148-.2914.288-.5797.421-.859.261-.5372.498-1.047.705-1.5326.063-.1488.127-.2975.185-.4401 1.544-3.7634 4.868-12.8988 5.12-18.3285.009-.2185.015-.4309.015-.6343 0-.179-.003-.349-.006-.5099-.006-.2154-.015-.4158-.024-.6039-.01-.1609-.022-.3126-.034-.4553-.033-.3854-.082-.7132-.13-.9955-.022-.1092-.043-.2094-.064-.3065 0 0 0-.003 0-.0061-.009-.0394-.018-.0789-.027-.1183-.003-.0061-.003-.0122-.006-.0152-.022-.0941-.043-.1821-.067-.261-.046-.1548-.088-.2853-.131-.4006-.124-.343-.224-.519-.224-.6374 0-.088.136-.7223.334-1.6237 1.635.6495 4.425 2.0941 5.123 4.5707.944 3.3355-.24 9.363-.453 10.3888l-2.937 1.2839c-.089.0394-.155.1183-.177.2154-.018.0941.007.1943.073.2671l1.703 1.8817c-.525 1.3567-4.134 10.395-9.226 16.9809-4.468 5.7787-10.292 12.5316-12.587 15.169-.558.6404-.831 1.4568-.771 2.3036.131 1.8483.565 7.976.963 13.6999-.768 4.735-4.152 13.303-5.785 17.43-.465 1.178-.801 2.031-.929 2.41-.41 1.232-3.175 1.241-4.206 1.144-.167-.015-.316.103-.331.27-.018.167.106.316.273.334.048.003.413.037.926.037 1.274 0 3.453-.21 3.915-1.591.121-.364.455-1.211.916-2.382 1.418-3.588 4.158-10.52 5.372-15.433.237 3.435.44 6.48.531 8.012.034.543.055 1.147.076 1.788.185 5.217.465 13.099 7.315 13.9 2.467.289 5.235.383 7.827.383 5.141 0 9.594-.377 9.66-.383.167-.015.292-.161.277-.328-.016-.167-.161-.294-.328-.276-.1.009-10.067.853-17.367 0-6.331-.74-6.598-8.31-6.777-13.317-.021-.644-.042-1.251-.076-1.8-.255-4.328-1.417-20.702-1.648-23.9404-.048-.6829.173-1.3445.623-1.8635 2.3-2.6404 8.133-9.4055 12.61-15.1963 5.548-7.1717 9.345-17.2085 9.381-17.3087.043-.1062.018-.2276-.057-.3095l-1.545-1.7088 2.692-1.1806c.088-.0394.155-.1183.176-.2124.064-.2853 1.545-7.0473.476-10.832-.103-.3733-.248-.7223-.425-1.0501 3.776 1.6571 16.857 7.5997 17.27 10.5649.479 3.466 2.212 33.9496 2.212 38.4415 0 4.4918-.385 12.6438-.449 15.7239-.067 3.081 1.09 17.391.574 18.805z" fill="#003668"/><path d="m150.483 125.637c.016.167-.109.313-.276.328-.067.006-4.519.383-9.66.383-2.592 0-5.36-.094-7.828-.383-6.85-.801-7.129-8.683-7.314-13.9-.021-.641-.042-1.244-.076-1.788-.091-1.532-.294-4.577-.531-8.012-1.214 4.914-3.955 11.845-5.372 15.433-.461 1.171-.795 2.018-.916 2.382-.462 1.381-2.641 1.591-3.916 1.591-.513 0-.877-.034-.925-.037-.167-.018-.292-.167-.273-.334.015-.167.163-.285.33-.27 1.032.097 3.797.088 4.207-1.144.127-.379.464-1.232.929-2.41 1.632-4.127 5.017-12.695 5.784-17.43-.397-5.7238-.831-11.8515-.962-13.6998-.06-.8468.213-1.6632.771-2.3036 2.295-2.6374 8.119-9.3903 12.586-15.169 5.093-6.586 8.702-15.6242 9.227-16.9809l-1.703-1.8817c-.067-.0729-.091-.173-.073-.2671.022-.0971.088-.176.176-.2155l2.938-1.2838c.213-1.0258 1.396-7.0534.452-10.3888-.698-2.4766-3.487-3.9213-5.123-4.5708-.197.9014-.334 1.5357-.334 1.6238 0 .1183.101.2944.225.6373.043.1153.085.2459.131.4006.024.0789.045.167.066.2611.003.003.003.0091.006.0151.01.0395.019.0789.028.1184v.0061c.021.0971.042.1972.063.3065.049.2822.098.61.131.9955.012.1426.024.2944.033.4552.009.1882.019.3885.025.604.003.1609.006.3308.006.5099 0 .2033-.006.4158-.015.6343-.252 5.4296-3.576 14.565-5.121 18.3284-.057.1457-.121.2914-.185.4401-.206.4856-.443.9955-.704 1.5327-.133.2792-.273.5676-.422.8589-.689 1.384-1.499 2.9015-2.349 4.4949-.106.2003-.212.3976-.318.5979-.107.2003-.213.4006-.319.6039-.106.2034-.216.4067-.322.6131-.091.176-.185.349-.276.5251-.185.3551-.37.7102-.555 1.0713-.088.173-.176.343-.264.516-.726 1.4204-1.43 2.862-2.067 4.2945-2.55 5.7271-3.897 6.9775-3.897 6.9775-.018-.0971-.034-.2094-.049-.3308-.009-.0607-.018-.1244-.024-.1912-.009-.0668-.018-.1336-.024-.2064-.009-.0728-.019-.1487-.025-.2246-.03-.3096-.06-.6646-.091-1.0562-.006-.0971-.015-.1972-.021-.3004s-.015-.2064-.021-.3126c-.006-.1093-.012-.2186-.021-.3278-.007-.1093-.013-.2246-.019-.3399-.006-.1093-.012-.2186-.018-.3309-.024-.4552-.045-.9378-.064-1.4477-.006-.1244-.009-.2488-.015-.3763-.003-.1275-.009-.258-.012-.3885-.006-.1487-.012-.3035-.015-.4583-.009-.2428-.015-.4947-.021-.7466-.003-.1396-.009-.2792-.009-.4188-.006-.2792-.013-.5645-.019-.8528 0-.0547-.003-.1093-.003-.1639-.003-.1912-.006-.3855-.009-.5797 0-.0456-.003-.088-.003-.1336-.003-.2883-.006-.5797-.009-.8771 0-.1578-.003-.3156-.003-.4765-.03-5.1868.155-11.1537.75-15.4512.033-.2337.066-.4674.103-.7011.115-.7466.252-1.4932.407-2.2338.039-.1942.078-.3854.121-.5767 0-.006 0-.0091.003-.0151.049-.2277.1-.4553.152-.6799.006-.0333.015-.0637.021-.0941.049-.2003.094-.4006.143-.5978.018-.079.039-.1579.057-.2337.091-.3643.182-.7254.277-1.0805.233-.8802.479-1.736.731-2.5555.036-.1153.07-.2337.106-.349.719-2.3218 1.466-4.3492 2.031-5.7969.045-.1153.088-.2276.13-.3338.097-.6435.27-1.3385.534-2.0821.043-.1244.161-.2033.295-.2033h.009c.033-.4735.094-1.4325.148-2.4068.004-.0607.007-.1244.01-.1851 1.041-.5797 2.069-1.0532 2.069-1.0532s1.254-2.5008 7.03-.9621c.685.1821 1.292.3733 1.833.5676 4.009 1.4386 4.24 3.0593 4.24 3.0593s.373.1578 1.013.4401c.176.3277.322.6768.425 1.0501 1.069 3.7846-.413 10.5466-.476 10.8319-.022.0941-.088.173-.176.2125l-2.692 1.1806 1.544 1.7087c.076.082.101.2034.058.3096-.036.1001-3.833 10.1369-9.381 17.3087-4.477 5.7908-10.31 12.5558-12.611 15.1963-.449.519-.67 1.1806-.622 1.8635.231 3.2383 1.393 19.6123 1.648 23.9403.034.549.055 1.156.076 1.8.179 5.007.446 12.577 6.777 13.317 7.299.853 17.266.009 17.367 0 .167-.018.312.11.327.276z" fill="#003668"/><path d="m143.309 38.7086c.003.1609.006.3308.006.5099 0 .2033-.006.4158-.015.6343-.252 5.4296-3.576 14.565-5.12 18.3285-.058.1456-.122.2913-.186.44-.206.4856-.443.9955-.704 1.5327-.133.2792-.273.5676-.422.8589-.689 1.384-1.499 2.9015-2.349 4.4949-.106.2003-.212.3976-.318.5979-.107.2003-.213.4006-.319.6039-.106.2034-.216.4067-.322.6131-.091.176-.185.349-.276.5251-.185.3551-.37.7102-.555 1.0713-.088.173-.176.343-.264.516-.726 1.4204-1.43 2.862-2.067 4.2945-2.55 5.7271-3.897 6.9775-3.897 6.9775-.018-.0971-.034-.2094-.049-.3308-.009-.0607-.018-.1244-.024-.1912-.009-.0668-.018-.1335-.024-.2064-.009-.0728-.019-.1487-.025-.2246-.03-.3095-.06-.6646-.091-1.0561-.006-.0972-.015-.1973-.021-.3005s-.015-.2064-.021-.3126c-.006-.1093-.012-.2185-.021-.3278-.006-.1093-.013-.2246-.019-.3399-.006-.1093-.012-.2186-.018-.3309-.024-.4552-.045-.9378-.064-1.4477-.006-.1244-.009-.2488-.015-.3763-.003-.1275-.009-.258-.012-.3885-.006-.1487-.012-.3035-.015-.4583-.009-.2428-.015-.4947-.021-.7466-.003-.1396-.009-.2792-.009-.4188-.006-.2792-.013-.5645-.019-.8528 0-.0547-.003-.1093-.003-.1639-.003-.1912-.006-.3855-.009-.5797 0-.0455-.003-.088-.003-.1336-.003-.2883-.006-.5796-.009-.8771 0-.1578-.003-.3156-.003-.4765-.03-5.1868.155-11.1537.75-15.4512.033-.2337.066-.4674.103-.7011.115-.7466.252-1.4932.407-2.2338.039-.1942.079-.3854.121-.5766 0-.0061 0-.0091.006-.0183.106-.1851.146-.3945.143-.607 0-.0637.018-.1122.027-.1638.049-.2004.094-.4007.143-.5979.018-.0789.039-.1579.057-.2337.091-.3642.182-.7224.277-1.0805.233-.8802.479-1.736.731-2.5555.036-.1153.07-.2337.106-.349.719-2.3218 1.466-4.3492 2.031-5.7969.045-.1153.088-.2276.13-.3338.003-.0091.006-.0182.012-.0243.143-.3642.27-.6829.383-.95.036-.091.073-.173.103-.2519.021-.0485.039-.0941.058-.1396.057-.1335.106-.2489.145-.3399.076-.1821.119-.2762.119-.2762s.006-.1123.018-.3035c.033-.4735.094-1.4325.149-2.4068.003-.0607.006-.1244.009-.1851.009-.1973.021-.3976.03-.5888.03-.6586.052-1.2626.052-1.651 0-1.3142-.547-.9288-3.145-.3521-2.601.5766-4.397-.6738-4.91-2.8893-.11-.4735-.21-1.0228-.301-1.5934-.03-.2003-.064-.4037-.091-.607-.279-1.9364-.443-3.9122-.443-3.9122-.816.0972-2.094.2186-2.094-.4097 0-.6252 3.396-9.2628 3.396-13.33279 0 0 .358.04856.674 0 .312-.04553 1.035-.74358 1.997-.93782.962-.19121 1.49.67377 2.695.67377 1.202 0 .986-.88926 2.598-.28833 1.611.60094 5.8 1.01066 5.8 4.66787 0 .3854-.386 3.4417-.313 3.9243.024.1608.137.2367.276.2701.319.0728.641-.1093.789-.4006.316-.6131 1.169-1.7209 1.991-1.7209 1.035 0 1.469.7223 1.469 1.7816 0 1.6844-1.229 3.2747-1.229 3.7543 0 .4825 3.099 3.8332 3.099 4.8196 0 .8649-.783 4.4675-1.308 6.8773-.034.1639-.07.3217-.1.4704-.012.0486-.022.0971-.031.1427-.197.9014-.333 1.5357-.333 1.6237 0 .1184.1.2944.224.6374.043.1153.085.2458.131.4006.024.0789.045.1669.066.261 0 .003.003.0091.003.0152.01.0394.019.0758.031.1183v.0061c.021.0941.042.1973.064.3065.048.2823.097.6101.13.9955.012.1427.024.2944.033.4553.01.1851.019.3854.025.6009z" fill="#f6cabd"/><path d="m55.072 71.7628c-2.0365.2671-23.4425 3.0624-27.297 3.1534-.5038.0122-.9105.0334-1.2504.0486-1.7057.0819-1.7057.0819-4.2976-1.5813-.9621-.6191-2.2793-1.4659-4.1549-2.6101-7.8121-4.771-12.91701-12.0763-14.29491-14.2008-.09408-.1426-.20638-.3096-.33081-.4977-1.36576-2.0274-4.56466-6.7772-1.62374-10.0126 2.74973-3.0259 7.90925-6.3583 9.59066-7.4054.6009.431 1.3991.7861 2.8438.7861 3.0138 0 1.0258 3.466 6.674 1.7967 5.6451-1.6692 4.7467 4.1064 6.5465 4.3644 1.7967.2549.5129-1.1564 2.8226-3.466 1.6783-1.6784 1.8908-3.0836 1.6844-4.7346.0121.003.0243 0 .0364 0 1.9151-.0183 2.686-.2155 3.0017-.4067 1.0501.437 6.3796 2.7315 9.6574 5.554v.0031c1.0895.9348 1.9545 1.9302 2.3612 2.9379 1.7026 4.2156 3.3082 15.6212 3.4781 16.8564l-1.7542 2.8105c-9.0656-.1852-18.5591-.4887-19.4211-.8559-1.6419-.695-11.967-8.9442-14.9322-13.4117-.0911-.1397-.2792-.1791-.4189-.085-.1396.091-.179.2792-.0849.4188 3.0077 4.5374 13.524 12.9292 15.1993 13.6363 1.5539.6617 23.7065.9834 27.3394 1.0319.3187 2.4645-1.044 5.2415-1.3748 5.8697z" fill="#7451eb"/><path d="m55.5271 72.1939c-.0455.082-.1274.1396-.2246.1518-.4552.0607-5.812.7648-11.7303 1.4963-6.4919.7982-13.6606 1.6328-15.7851 1.6813-.4947.0122-.8953.0304-1.2353.0486-.3308.0152-.607.0273-.8498.0273-1.1472 0-1.5721-.2731-3.8028-1.7057-.9591-.6161-2.2733-1.4598-4.1428-2.601-4.589-2.8013-8.25526-6.4645-10.7986-9.4692.01518-.1366.03338-.2732.05463-.4097-1.81494-2.164-3.0077-3.9304-3.49027-4.677-1.15634-1.7785-5.29306-7.1717-1.92419-10.8775 2.74061-3.0137 7.7757-6.2825 9.55723-7.3993.082.0667.1669.1335.258.1972-1.6814 1.0471-6.84092 4.3796-9.59064 7.4055-2.94093 3.2353.25797 7.9851 1.62373 10.0125.12443.1882.23673.3551.33081.4977 1.3779 2.1245 6.4828 9.4298 14.2949 14.2008 1.8757 1.1442 3.1929 1.991 4.155 2.6102 2.5919 1.6631 2.5919 1.6631 4.2975 1.5812.34-.0152.7466-.0364 1.2505-.0486 3.8544-.091 25.2604-2.8863 27.2969-3.1533.3308-.6283 1.6935-3.4053 1.3748-5.8697-3.6329-.0486-25.7854-.3703-27.3394-1.032-1.6753-.7071-12.1916-9.0989-15.1993-13.6363-.0941-.1396-.0547-.3278.085-.4188.1396-.0941.3277-.0546.4188.085 2.9652 4.4675 13.2903 12.7167 14.9323 13.4117.8619.3672 10.3554.6707 19.421.8559l1.7542-2.8105c-.1699-1.2352-1.7754-12.6408-3.4781-16.8564-.3763-.9348-1.1502-1.8605-2.1336-2.7376-.0728-.0668-.1517-.1335-.2276-.2003v-.003c-.0941-.082-.1882-.1609-.2853-.2428-3.293-2.7103-8.3524-4.8864-9.3721-5.3113-.3157.1912-1.0866.3885-3.0017.4067l-.0607-.3035-.003-.0152-.0546-.2883c.871-.0031 1.475-.0456 1.8938-.1002.6434-.0789.8468-.1851.8984-.2185.0273-.0425.0637-.0759.1093-.1032.0789-.0455.176-.0516.261-.0152.3095.1245 5.6269 2.2702 9.3174 5.1626.1123.088.2216.176.3278.264.1032.085.2034.167.3035.2519 1.1867 1.0168 2.1367 2.1094 2.5889 3.2263 1.824 4.507 3.466 16.5984 3.5358 17.1114.0091.0698-.0061.1426-.0455.2033l-1.6207 2.5919c2.5312.0516 5.0108.0911 7.2415.1184.1457.003.2671.1092.2944.2519.5402 3.0562-1.3961 6.5071-1.4811 6.6527z" fill="#00eda2"/><path d="m43.5844 10.6256c0 3.2444-1.5145 3.6845-1.8241 7.8334-.003.0242-.003.0485-.006.0728l-.0213-.0212-.44-.4614-.428-.4491-.088-.0911c-.4917-.0455-.9044-.0941-1.2504-.1426-.2701-.0395-.5008-.0789-.6981-.1184s-.3611-.0789-.4947-.1153c-.0485-.0152-.0941-.0273-.1335-.0395-.0304-.0121-.0577-.0212-.085-.0303-.0334-.0122-.0637-.0243-.0911-.0334-.0182-.0091-.0333-.0152-.0485-.0213-.3248-.1426-.2823-.2458-.2823-.2458s.868-.1487 1.8908-.7405c.1548-.2489.3855-.4098.6435-.425.176-.1305.352-.2761.525-.437-.006-.1305-.0121-.264-.0182-.4067-.003-.1153-.0091-.2337-.0152-.3551-.006-.1214-.0121-.2489-.0212-.3794-.0243-.4249-.0516-.8892-.0911-1.3991v-.0182c-.006-.0941-.0121-.1851-.0212-.2823-.0273-.3793-.0607-.786-.0971-1.2109-.0152-.1579-.0304-.3096-.0516-.4583-.0122-.1002-.0243-.1973-.0395-.2914-.0819-.51897-.1973-.97726-.3338-1.38395-.0304-.08801-.0607-.17299-.0911-.25494-.0364-.09408-.0759-.18817-.1153-.27619-.0364-.08498-.0729-.16996-.1153-.24887-.1154-.23977-.2398-.45525-.3703-.64645-.0243-.03946-.0516-.07588-.0789-.1123-.1639-.2337-.3339-.43097-.5008-.5979-.0941-.09105-.1851-.17299-.2762-.24887-.0576-.05159-.1153-.09712-.1699-.13657-.1154-.08195-.2246-.15176-.3218-.20942-.2549-.14872-.5827-.01518-.6737.26708-.0122.03642-.0243.07587-.0365.11533-.0212.06373-.0455.13354-.0698.20942-.006.01821-.0151.03945-.0212.0607-.0304.09105-.0637.18817-.1002.29136-.0576.15782-.1214.33081-.1942.51595-.0455.12444-.0971.25494-.1517.38848-.1336.33689-.2914.70412-.4705 1.09564-.0364.07588-.0728.15782-.1092.23673-.0881.18817-.1791.38241-.2793.57967-.0364.0759-.0758.1518-.1153.2276-.0789.1579-.1608.3187-.2489.4796-.091.1699-.1851.3399-.2822.5159-.4553.8134-.9925 1.6693-1.6177 2.5282-2.8408 3.9-3.466 6.6922-3.466 9.4359 0 2.7436.7224 4.859.8165 7.1231.0971 2.2611-.2398 3.7058-.2398 3.7058.0941.1517.1821.3096.264.4704.5767 1.1139.862 2.3097.862 2.3097.0182.0971.0334.1912.0485.2852 0 .0061.0031.0091.0031.0152.0152.1032.0273.2034.0425.3035.2063 1.6511-.0061 3.0563-1.6845 4.7346-2.3096 2.3097-1.0258 3.721-2.8225 3.466-1.7998-.2579-.9014-6.0336-6.5465-4.3643-5.6482 1.6692-3.6603-1.7968-6.6741-1.7968-1.4446 0-2.2428-.355-2.8438-.786-.091-.0638-.176-.1305-.2579-.1973-.085-.0698-.1639-.1366-.2428-.2064-.4098-.3551-.7861-.7102-1.34151-.9287-.94389-.3703-1.75727-.7648-2.11844-1.1715-.16692-.1851-.23977-.3733-.18514-.5584 0 0 0-.0001 0-.0031.01214-.0425.03035-.085.05767-.1275.07588-.1274.14872-.261.21852-.4249.01518-.0394.03035-.0819.04856-.1274.03946-.1063.07891-.2246.11533-.3642.00304-.0091.00607-.0213.00911-.0334.11533-.4371.22762-1.0592.34902-2.0456 0-.0182.00304-.0364.00608-.0546.08802-.7345.17906-1.6632.27922-2.856 0-.0121.00303-.0273.00303-.0425.09712-1.1199.2519-2.0547.44918-2.8438 0-.003 0-.0091.00304-.0121.607-2.3947 1.61763-3.4873 2.62533-4.5465 1.3475-1.4113 1.0258-2.6951 1.0258-4.683 0-11.68177 8.2795-17.393662 15.4695-17.393662 11.4875 0 15.6576 6.868232 15.6576 10.589162z" fill="#a37052"/><path d="m43.3385 13.4542c-.6799 2.9015-1.2232 4.3188-1.5782 5.0048-.0092.0182-.0183.0364-.0274.0515l-.44-.4613c.3065-.6434.8133-1.9879 1.4537-4.7316.3308-1.4052.8316-5.0047-1.5933-8.06095-2.4463-3.08358-7.0261-4.649647-13.6121-4.649647-4.5282 0-8.2127 1.833147-10.9473 5.447847-3.3051 4.37345-4.161 10.11265-3.6754 11.83655.6131 2.164-.607 3.7513-1.6814 5.1504-.4947.6465-.9651 1.2565-1.25344 1.8939-.76786 1.6874-1.01673 4.3734-1.21401 6.5313-.04552.4947-.09105.9652-.13657 1.3961-.26102 2.4098-.89229 3.1231-.9621 3.1959-.0607.0607-.13961.0941-.21852.0941-.07588 0-.15175-.0304-.20942-.088-.1214-.1154-.12443-.3066-.0091-.428 0 0 .01213-.0121.03338-.0425 0 0 0 0 0-.003.05463-.0728.15782-.2458.27619-.5524.01517-.0394.03035-.0819.04856-.1274.03642-.1063.07587-.2277.11533-.3642.00303-.0091.00607-.0213.0091-.0334.11837-.4189.2337-.9803.31261-1.7148.01214-.1062.02428-.2185.03642-.3308 0-.0182.00304-.0364.00607-.0546.03036-.3187.0607-.6556.09409-1.0016.05463-.5888.11229-1.217.18513-1.8544 0-.0121.00304-.0273.00304-.0425.10622-.9591.24583-1.9394.44918-2.8438 0-.003 0-.0091.00303-.0121.16086-.7254.3642-1.4022.62522-1.9758.31867-.7011.82851-1.3688 1.32631-2.0122 1.0349-1.3506 2.1063-2.7437 1.5782-4.6163-.5311-1.8726.3005-7.7727 3.7756-12.36465 2.8164-3.72093 6.768-5.69065 11.4298-5.69065 6.7802 0 11.5209 1.64194 14.0885 4.8803 2.5889 3.26264 2.0578 7.0837 1.7088 8.5739z" fill="#e2bc97"/><path d="m32.0513 33.0604c.2974.7587.6495 1.5175.9681 2.1548-.3338-.6555-.6464-1.3202-.9681-2.1548z" fill="#e1a897"/><path d="m13.4953 229.556c-3.70578-1.311-6.16111-5.165-6.89862-6.458 2.83167-.726 6.82882-1.651 8.74692-1.651h2.6799c.1335 4.44-.9469 6.54-1.9303 7.533-.6737.676-1.6965.895-2.5979.576z" fill="#e27356"/><path d="m62.6442 226.709c0 1.733-2.9531 2.501-4.3007 2.501-1.3475 0-7.4418.258-10.2674-2.95-2.8226-3.211-5.0685-3.144-5.0685-3.144l-.0637 5.326c-.9014.513-3.5297.513-3.5297.513-.5251-1.884-.3642-6.977-.2884-8.786 3.1261-.452 8.6286-1.691 11.7547-4.971 1.2898 5.247 5.0806 6.695 6.9501 7.982 2.0547 1.411 4.8136 1.796 4.8136 3.529z" fill="#e27356"/><path d="m31.9572 37.0848h-.0183c-.0151-.094-.0303-.1881-.0485-.2853.003 0 .0091 0 .0121-.003z" fill="#e1a897"/><path d="m43.5722 73.8419c-.0456 1.478-.2459 7.8425-.2459 10.3312 0 0-6.7377 0-10.3949-.5129-3.6572-.513-5.551-1.2626-9.4996-1.0926-3.9455.173-9.6877 2.4401-9.6877 2.4401s-8.26438-11.3692-6.78633-23.1845c2.54334 3.0047 6.20963 6.668 10.79853 9.4693 1.8696 1.1411 3.1838 1.9849 4.1428 2.601 2.2308 1.4325 2.6557 1.7057 3.8029 1.7057.2428 0 .519-.0122.8498-.0274.3399-.0182.7406-.0364 1.2353-.0485 2.1245-.0486 9.2932-.8832 15.7851-1.6814z" fill="#7451eb"/><path d="m32.0208 37.4035c-.0121 0-.0243.0031-.0364 0-.0152-.1001-.0273-.2003-.0425-.3035.0061.0031.0121.0031.0182 0z" fill="#7451eb"/><path d="m1.59792 45.8591c2.74062-3.0138 7.7757-6.2825 9.55728-7.3994-.085-.0698-.1639-.1366-.2428-.2064-1.86352 1.1715-6.83183 4.4251-9.53907 7.4024-3.26264 3.5874.12443 8.6134 1.5691 10.7591.12444.1821.2337.346.32475.4887.58879.9074 1.84225 2.7376 3.69058 4.9197.01517-.1365.03338-.2731.05462-.4097-1.81493-2.164-3.00769-3.9303-3.49026-4.6769-1.15634-1.7786-5.29306-7.1718-1.9242-10.8775zm30.36228-8.7591-.003-.0152-.0547-.2883c-.003.003-.0091.003-.0121.003.0182.0972.0334.1913.0486.2853 0 .0061.003.0091.003.0152.0152.1032.0273.2034.0425.3035.0121.003.0243 0 .0364 0z" fill="#00eda2"/><path d="m13.7439 85.3112c-.0941 0-.1882-.0455-.2458-.1244-.085-.1184-8.50717-11.87-6.78631-23.8158.02428-.1669.17906-.2792.34295-.258.16693.0243.28226.1791.25798.343-1.56607 10.8745 5.47818 21.6275 6.54348 23.1814 1.1139-.4249 6.0033-2.2186 9.5633-2.3733 2.7892-.1214 4.5677.2124 6.6255.5978.8983.167 1.827.343 2.9288.4978 3.1564.4431 8.7013.5008 10.0519.5099.0152-3.0168.255-10.2705.255-10.3464.006-.1669.1517-.2974.3126-.2944.1669.0061.2974.1457.2944.3126-.0031.0789-.258 7.8455-.258 10.6317 0 .1669-.1366.3035-.3035.3035-.0668 0-6.8015-.0061-10.4374-.516-1.1139-.1578-2.0487-.3308-2.9531-.5008-2.0213-.3793-3.7695-.7041-6.4889-.5887-3.8514.1669-9.5329 2.3946-9.5906 2.4189-.0364.0151-.0759.0212-.1123.0212z" fill="#00eda2"/><path d="m40.7771 17.509c-.4917-.0455-.9045-.0941-1.2505-.1426-.2701-.0395-.5007-.0789-.698-.1184s-.3612-.0789-.4947-.1153c-.0486-.0152-.0941-.0273-.1336-.0395-.0303-.0121-.0576-.0212-.085-.0303-.0333-.0122-.0637-.0243-.091-.0334-.0182-.0091-.0334-.0152-.0486-.0213-.3247-.1426-.2822-.2458-.2822-.2458s.868-.1487 1.8908-.7405c.1548-.2489.3854-.4098.6434-.4249.176-.1306.3521-.2762.5251-.4371.0091.2307.0152.4462.0212.6404.0304 1.1624.0031 1.7087.0031 1.7087z" fill="#e1a897"/><path d="m39.39 16.7472c0 .2276.0486.4401.1366.6192-1.9637-.2823-1.8332-.604-1.8332-.604s.8681-.1487 1.8909-.7405c-.1214.1972-.1943.4491-.1943.7253z" fill="#f7ebe7"/><path d="m40.7769 17.509c-.4917-.0455-.9044-.0941-1.2504-.1426-.088-.1791-.1366-.3915-.1366-.6192 0-.2762.0728-.5281.1942-.7253l.6435-.4249c.176-.1306.352-.2762.525-.4371.0091.2307.0152.4462.0213.6404.0303 1.1624.003 1.7087.003 1.7087z" fill="#003668"/><path d="m37.0681 14.9596c-.0789 0-.1609-.0243-.2276-.0759-.167-.1245-.2003-.3612-.0759-.5281.0577-.0759 1.4143-1.8453 4.6436-.95.2033.0547.3217.2641.264.4674-.0546.2034-.264.3217-.4674.2641-2.7042-.7467-3.7877.6161-3.8332.6737-.0759.0972-.1882.1488-.3035.1488z" fill="#a37052"/><path d="m37.6932 17.0629c-.1457 0-.2731-.1032-.2974-.2519-.0273-.1639.0819-.3218.2488-.3491.0213-.003 2.0153-.3672 3.4296-2.082.1062-.1305.2974-.1487.428-.0425.1305.1062.1487.2975.0424.428-1.563 1.8938-3.7057 2.2793-3.7968 2.2944-.0212.0031-.0394.0031-.0546.0031z" fill="#000"/><path d="m12.0081 38.2047c-.1669 0-.3035-.1366-.3035-.3035 0-1.5327 1.0956-3.4629 2.1548-5.3264.6526-1.1473 1.3264-2.334 1.7148-3.381.4917-1.3233.4613-3.7179.431-6.2522-.0334-2.5706-.0668-5.2323.4613-7.0078.5251-1.7694 1.8635-3.2414 3.1564-4.6648 1.3354-1.46593 2.595-2.85293 2.9986-4.50398.0395-.16389.2034-.26405.3673-.22156.1639.03946.261.20335.2215.36724-.4431 1.8028-1.8149 3.3112-3.1412 4.768-1.2474 1.3718-2.5403 2.7892-3.0259 4.4281-.5008 1.6905-.4674 4.3036-.4371 6.8288.0334 2.5919.0638 5.0411-.4674 6.4706-.4067 1.0926-1.0926 2.3006-1.7572 3.469-1.0198 1.7968-2.076 3.6512-2.076 5.026.0061.1669-.1274.3035-.2974.3035z" fill="#e2bc97"/><path d="m17.465 41.2216c-.1638 0-.2974-.1305-.3035-.2944-.1426-4.8227.7042-6.155 1.5995-7.5694.3339-.525.6495-1.0228.9226-1.7269.7436-1.9029.2186-4.2824-.2033-6.1944-.1366-.6131-.264-1.1928-.3278-1.6784-.1335-1.0046-.088-2.9591.3339-4.8773.3581-1.6358 1.1108-3.7543 2.6526-4.5464 1.9424-.9955 3.2444-2.3886 5.4053-4.69823.7011-.74964 1.4963-1.59945 2.425-2.55851.1153-.1214.3096-.12444.4279-.00607.1214.11533.1245.30957.0061.42794-.9287.95603-1.7208 1.80279-2.4189 2.54937-2.2064 2.3582-3.5358 3.7817-5.5723 4.8257-2.3673 1.214-2.9379 6.7195-2.6617 8.8015.0607.4583.1852 1.0259.3187 1.6268.4401 1.991.9864 4.4706.176 6.5465-.2944.7588-.6404 1.3021-.9773 1.8302-.8437 1.3323-1.6419 2.5919-1.5053 7.2263.0061.1669-.1275.3066-.2944.3126.003.0031 0 .0031-.0031.0031z" fill="#e2bc97"/><path d="m28.555 45.5191c-.0334 0-.0668-.006-.1002-.0182-.1578-.0546-.2428-.2276-.1882-.3854.4674-1.3506.9136-1.8514 1.4265-2.4311.4037-.4552.8589-.9681 1.4234-2.0516 1.1139-2.1306.6161-3.463.0425-5.0048-.0516-.1396-.1032-.2792-.1548-.4188-.6525-1.7998-.6161-3.029-.3004-4.9471.1912-1.1594-.0274-2.1457-.3036-3.3931-.1669-.7527-.355-1.6086-.4855-2.6435-.2914-2.343-.3248-5.8879 2.7618-9.5998 1.5023-1.8088 2.683-4.1276 3.4448-5.85754-1.6238 2.00914-3.1959 2.88634-5.0685 3.92734-1.1624.6464-2.4796 1.3779-3.9729 2.5069-4.4766 3.3749-3.9637 6.0882-2.9773 8.7985.9014 2.4735 2.1397 6.9684.3399 9.275-1.6662 2.1336-2.1548 4.9896-1.2413 7.2719.0637.1548-.0121.3308-.17.3945-.1547.0607-.3308-.0121-.3945-.1699-.9925-2.4796-.4704-5.5723 1.3263-7.8729 1.6814-2.1548.258-6.7984-.431-8.6953-.9803-2.692-1.6207-5.8666 3.1837-9.4905 1.5297-1.1533 2.8651-1.8968 4.0457-2.5524 2.3704-1.3172 4.243-2.36124 6.3675-5.93345.0789-.13354.2458-.18513.3854-.1214.1396.06374.2094.22459.1609.37027-.0698.20942-1.7239 5.15038-4.5313 8.53448-2.9349 3.5327-2.9045 6.9046-2.6253 9.1354.1245 1.0076.3096 1.8453.4735 2.5888.2792 1.2596.519 2.3461.3095 3.6208-.2974 1.8089-.3338 2.9652.2732 4.6405.0516.1397.1002.2762.1517.4158.5737 1.5388 1.1655 3.1291-.0728 5.4995-.6009 1.1503-1.0835 1.6935-1.5084 2.173-.4886.5524-.8771.9895-1.305 2.2278-.0395.1274-.1579.2063-.2853.2063z" fill="#e2bc97"/><path d="m26.385 41.7345c-.1487 0-.2792-.1123-.3005-.264-.1062-.7952.1032-1.5266.6617-3.4781.173-.607.3824-1.3354.6282-2.2277.8802-3.1868.2549-5.1292-.2458-6.6922-.0729-.2216-.1396-.4401-.2034-.6495-.5281-1.7846-.349-4.6466.4522-7.1171.0516-.1609.2216-.2459.3824-.1943.1609.0516.2459.2216.1943.3824-.7527 2.3279-.9378 5.1049-.4462 6.756.0607.2064.1305.4188.2003.6373.5251 1.6389 1.1776 3.6785.252 7.0382-.2459.8923-.4553 1.6237-.6313 2.2338-.5342 1.8635-.7345 2.5615-.6434 3.2292.0212.167-.0941.3187-.2611.34-.0121.006-.0273.006-.0394.006z" fill="#e2bc97"/><path d="m126.798 38.5235c-3.123 3.1746-4.419 5.3841-4.319 6.1641.025.2033.14.3004.207.3399.203.1244.883.5797 1.323.8801l-2.285 1.3597c-.085.0516-.143.1427-.146.2428-.009.1123-.665 11.3631.483 20.2405 1.141 8.8562 2.012 14.2039 2.021 14.2585.024.1487.155.2519.3.2519.015 0 .034 0 .049-.003.167-.0273.279-.1821.252-.349-.009-.0516-.88-5.3932-2.022-14.2373-1.062-8.2431-.564-18.5621-.488-19.9643l2.558-1.5236c.088-.0516.143-.1457.146-.2519.003-.1032-.046-.2003-.13-.258-.055-.0364-1.242-.8467-1.667-1.1138.034-.3854.762-2.164 4.149-5.6117 1.991-2.0244 3.676-3.3689 4.795-4.1732.013-.258.028-.522.04-.7739-1.123.7739-2.987 2.2034-5.266 4.5222z" fill="#808080"/><path d="m150.483 125.637c.016.167-.109.313-.276.328-.067.006-4.519.383-9.66.383-2.592 0-5.36-.094-7.828-.383-6.85-.801-7.129-8.683-7.314-13.9-.021-.641-.042-1.245-.076-1.788-.091-1.532-.294-4.577-.531-8.012-1.214 4.913-3.955 11.845-5.372 15.433-.461 1.171-.795 2.018-.916 2.382-.462 1.381-2.641 1.591-3.916 1.591-.513 0-.877-.034-.925-.037-.167-.018-.292-.167-.273-.334.015-.167.163-.285.33-.27 1.032.097 3.797.088 4.207-1.144.127-.379.464-1.232.929-2.41 1.632-4.127 5.017-12.695 5.784-17.43-.397-5.7238-.831-11.8515-.962-13.6999-.06-.8467.213-1.6631.771-2.3035 2.295-2.6375 8.119-9.3904 12.586-15.169 5.093-6.586 8.702-15.6243 9.227-16.9809l-1.703-1.8817c-.067-.0729-.091-.173-.073-.2671.022-.0971.088-.176.176-.2155l2.938-1.2838c.213-1.0258 1.396-7.0534.452-10.3889-.698-2.4765-3.487-3.9212-5.123-4.5707.009-.0455.019-.0941.031-.1426.03-.1487.066-.3066.1-.4705 1.493.5767 3.997 1.818 5.153 3.9698.176.3278.322.6768.425 1.0502 1.069 3.7846-.413 10.5466-.476 10.8319-.022.0941-.088.173-.176.2125l-2.692 1.1806 1.544 1.7087c.076.0819.101.2033.058.3096-.036.1001-3.833 10.1369-9.381 17.3086-4.477 5.7909-10.31 12.5559-12.611 15.1964-.449.5189-.67 1.1806-.622 1.8635.231 3.2383 1.393 19.6123 1.648 23.9403.034.549.055 1.156.076 1.8.179 5.007.446 12.577 6.777 13.317 7.299.853 17.266.009 17.367 0 .167-.018.312.11.327.276z" fill="#808080"/><path d="m143.315 39.2185c0 .2033-.006.4158-.015.6343-.252 5.4296-3.576 14.565-5.12 18.3284-.058.1457-.122.2914-.186.4401-.206.4856-.443.9955-.704 1.5327-.133.2792-.273.5675-.422.8589-.689 1.384-1.499 2.9015-2.349 4.4948-.106.2004-.212.3976-.318.5979-.107.2004-.213.4007-.319.604-.106.2034-.216.4067-.322.6131-.094.173-.185.349-.276.525-.185.3551-.37.7102-.555 1.0714-.088.17-.176.343-.264.516-.726 1.4203-1.43 2.862-2.067 4.2945-2.55 5.7271-3.897 6.9775-3.897 6.9775-.018-.0971-.034-.2094-.049-.3308-.009-.0607-.018-.1245-.024-.1912-.009-.0668-.018-.1336-.024-.2064-.009-.0729-.019-.1487-.025-.2246-.03-.3096-.06-.6647-.091-1.0562-.006-.0971-.015-.1973-.021-.3005-.006-.1031-.015-.2063-.021-.3126-.006-.1092-.012-.2185-.021-.3277-.006-.1093-.013-.2246-.019-.34-.006-.1092-.012-.2185-.018-.3308-.024-.4552-.045-.9378-.064-1.4477-.006-.1244-.009-.2488-.015-.3763-.003-.1275-.009-.258-.012-.3885-.006-.1487-.012-.3035-.015-.4583-.009-.2428-.015-.4947-.021-.7466-.003-.1396-.009-.2792-.009-.4188-.006-.2793-.013-.5645-.019-.8529 0-.0546-.003-.1092-.003-.1639-.003-.1912-.006-.3854-.009-.5797 0-.0455-.003-.088-.003-.1335-.003-.2883-.006-.5797-.009-.8771 0-.1578-.003-.3157-.003-.4765-.03-5.1868.155-11.1537.75-15.4513.033-.2337.066-.4674.103-.701.115-.7467.252-1.4933.407-2.2338.039-.1943.079-.3855.121-.5767 0-.006 0-.0091.003-.0151.049-.2277.1-.4553.152-.6799.006-.0334.015-.0637.021-.0941.049-.2003.094-.4006.143-.5979.018-.0789.039-.1578.057-.2337.091-.3642.182-.7253.277-1.0804.233-.8802.479-1.7361.731-2.5555.036-.1153.07-.2337.106-.349.719-2.3218 1.466-4.3492 2.031-5.7969.045-.1123.088-.2216.13-.3248.003-.0121.006-.0242.012-.0334.143-.3642.27-.6828.383-.9499.036-.0911.073-.173.103-.2519.021-.0486.039-.0941.058-.1396.057-.1336.106-.2489.145-.3399.704 1.1684 1.909 3.0046 3.108 4.0244.137.1183.276.2246.413.3187l.17-.1366.067-.0516.191-.1548 7.269-5.8151c.024.0789.045.1669.066.261.003.0031.003.0091.006.0152.01.0395.019.0789.028.1184v.006c.021.0972.042.1973.064.3066.048.2822.097.61.13.9955.012.1426.024.2944.033.4552.01.1882.019.3885.025.604.003.1608.006.3308.006.5099z" fill="#f6cabd"/><path d="m143.315 39.2185c0 .2033-.006.4158-.015.6343-.252 5.4296-3.576 14.565-5.12 18.3284-.058.1457-.122.2914-.186.4401-.206.4856-.443.9955-.704 1.5327-.133.2792-.273.5675-.422.8589-.689 1.384-1.499 2.9015-2.349 4.4948-.106.2004-.212.3976-.318.5979-.107.2004-.213.4007-.319.604-.106.2034-.216.4067-.322.6131-.094.173-.185.349-.276.525-.185.3551-.37.7102-.555 1.0714-.088.17-.176.343-.264.516-.726 1.4203-1.43 2.862-2.067 4.2945-2.55 5.7271-3.897 6.9775-3.897 6.9775-.018-.0971-.034-.2094-.049-.3308-.009-.0607-.018-.1245-.024-.1912-.009-.0668-.018-.1336-.024-.2064-.009-.0729-.019-.1487-.025-.2246-.03-.3096-.06-.6647-.091-1.0562-.006-.0971-.015-.1973-.021-.3005-.006-.1031-.015-.2063-.021-.3126-.006-.1092-.012-.2185-.021-.3277-.006-.1093-.013-.2246-.019-.34-.006-.1092-.012-.2185-.018-.3308-.024-.4552-.045-.9378-.064-1.4477-.006-.1244-.009-.2488-.015-.3763-.003-.1275-.009-.258-.012-.3885-.006-.1487-.012-.3035-.015-.4583-.009-.2428-.015-.4947-.021-.7466-.003-.1396-.009-.2792-.009-.4188-.006-.2793-.013-.5645-.019-.8529 0-.0546-.003-.1092-.003-.1639-.003-.1912-.006-.3854-.009-.5797 0-.0455-.003-.088-.003-.1335-.003-.2883-.006-.5797-.009-.8771 0-.1578-.003-.3157-.003-.4765-.03-5.1868.155-11.1537.75-15.4513.033-.2337.066-.4674.103-.701.115-.7467.252-1.4933.407-2.2338.039-.1943.079-.3855.121-.5767 0-.006 0-.0091.003-.0151.049-.2277.1-.4553.152-.6799.006-.0334.015-.0637.021-.0941.049-.2003.094-.4006.143-.5979.018-.0789.039-.1578.057-.2337.091-.3642.182-.7253.277-1.0804.233-.8802.479-1.7361.731-2.5555.036-.1153.07-.2337.106-.349.719-2.3218 1.466-4.3492 2.031-5.7969.045-.1123.088-.2216.13-.3248.003-.0121.006-.0242.012-.0334.143-.3642.27-.6828.383-.9499.036-.0911.073-.173.103-.2519.021-.0486.039-.0941.058-.1396.057-.1336.106-.2489.145-.3399.704 1.1684 1.909 3.0046 3.108 4.0244.137.1183.276.2246.413.3187l.17-.1366.067-.0516.191-.1548 7.269-5.8151c.024.0789.045.1669.066.261.003.0031.003.0091.006.0152.01.0395.019.0789.028.1184v.006c.021.0972.042.1973.064.3066.048.2822.097.61.13.9955.012.1426.024.2944.033.4552.01.1882.019.3885.025.604.003.1608.006.3308.006.5099z" fill="#fff"/><path d="m136.768 43.6132s0 .2033-.03.5068c-.061.5828-.234 1.5327-.741 2.1246-.767.8983-1.347 1.3475-1.347 1.3475l-.768 19.1176c-.106.2033-.216.4066-.322.613-.094.173-.185.3491-.276.5251-.185.3551-.37.7102-.555 1.0713-.088.17-.176.343-.264.516-.726 1.4204-1.43 2.862-2.067 4.2945-2.55 5.7271-3.897 6.9775-3.897 6.9775-.018-.0971-.034-.2094-.049-.3308-.009-.0607-.018-.1244-.024-.1912-.009-.0668-.018-.1335-.024-.2064-.009-.0728-.019-.1487-.025-.2246-.03-.3095-.06-.6646-.091-1.0561-.006-.0972-.015-.1973-.021-.3005s-.015-.2064-.021-.3126c-.006-.1093-.012-.2185-.021-.3278-.006-.1093-.013-.2246-.019-.3399-.006-.1093-.012-.2185-.018-.3308-.024-.4553-.045-.9379-.064-1.4477-.006-.1245-.009-.2489-.015-.3764-.003-.1275-.009-.258-.012-.3885-.006-.1487-.012-.3035-.015-.4582-.009-.2429-.015-.4948-.021-.7467-.003-.1396-.009-.2792-.009-.4188-.006-.2792-.013-.5645-.019-.8528 0-.0547-.003-.1093-.003-.1639-.003-.1912-.006-.3855-.009-.5797 0-.0455-.003-.088-.003-.1336-.003-.2883-.006-.5796-.009-.8771 0-.1578-.003-.3156-.003-.4765l7.873-22.9598-1.126-1.9121-.689-1.1685.197-.1669c.11.2185.216.3945.307.5311.573-.8589 1.642-1.8604 2.176-2.3369-.061-.0395-.121-.082-.182-.1275l.285-.2398c.137.1184.276.2246.413.3187l.17-.1366.067-.0516.191-.1548z" fill="#00eea2"/><path d="m135.497 41.9166c-.006-.0091-.012-.0182-.025-.0243-.018-.0242-.042-.0424-.069-.0546-2.265-1.2079-3.245-4.4068-3.254-4.4402-.039-.1214-.146-.2094-.273-.2155h-.009c-.134 0-.252.0789-.295.2033-.264.7436-.437 1.4386-.534 2.0821v.0091c-.552 3.6663 1.248 5.6694 1.339 5.7665.057.0637.139.0971.224.0971.015 0 .031 0 .046-.003.036-.0061.073-.0182.106-.0425.052-.0273.094-.0728.121-.1275.513-1.0713 2.562-2.8134 2.583-2.8316.015-.0122.031-.0274.043-.0425.048-.0638.07-.1427.06-.2216-.006-.0577-.027-.1123-.063-.1548zm-2.929 2.5737c-.091-.1366-.197-.3126-.307-.5311-.513-1.0137-1.095-2.8924-.379-5.5389.419.9894 1.272 2.6071 2.68 3.6056.061.0455.121.088.182.1275-.534.4765-1.603 1.478-2.176 2.3369z" fill="#d9d9d9"/><path d="m143.309 38.7086c-.871 1.387-3.169 4.9259-5.084 6.7347-.382-.6798-1.29-2.2398-2.091-3.3142 1.369-1.0835 5.512-4.4068 6.893-5.9061h.003c-.003-.0061-.003-.0122-.006-.0152-.022-.0941-.043-.1821-.067-.261-.046-.1548-.088-.2853-.131-.4007-.564.777-4.036 3.7119-7.302 6.2916-.021.0152-.039.0334-.052.0547-.018.0242-.033.0485-.042.0758-.036.0941-.024.2094.045.2944.01.0091.016.0182.025.0304.394.5099.84 1.1867 1.238 1.8271.628 1.0136 1.135 1.9363 1.144 1.9515.046.0789.122.1335.213.1517.018.0031.036.0031.054.0031.073 0 .143-.0243.198-.0729 1.739-1.5145 3.802-4.5222 4.953-6.3007.009-.2185.015-.4309.015-.6343 0-.1791-.003-.349-.006-.5099z" fill="#d9d9d9"/><path d="m148.025 227.723c-.938 1.603-2.565 2.768-4.364 3.223-1.8.456-3.755.216-5.427-.588-.668-.319-1.308-.741-1.718-1.354-.631-.95-.601-2.197-.361-3.314s.665-2.198.756-3.336c.091-1.18-.182-2.358-.261-3.539-.067-1.025.045-2.133.604-2.977 2.176-.091 5.593-.167 8.826.033-.304 1.882-.143 3.852.752 5.515.635 1.178 1.633 2.213 1.839 3.533.152.968-.154 1.96-.646 2.804z" fill="#a37052"/><path d="m120.146 227.605-.113.158c-2.734.479-5.511.713-8.288.695-.176 0-.364-.007-.507-.113-.128-.091-.191-.246-.249-.391-.167-.416-.334-.832-.498-1.248-.925.972-2.249 1.484-3.572 1.703-1.326.215-2.677.167-4.018.185-4.4678.061-8.9809.868-13.3695.043-.2459-.046-.5039-.107-.6708-.289-.264-.288-.1821-.743-.0425-1.107.4644-1.224 1.3961-2.219 2.4432-3.002 4.4281-3.314 10.7626-3.138 15.1596-6.492 1.145-.874 2.182-2.185 2.152-3.575 1.469.324 5.606.704 7.915.537 1.023-.076 1.658-.2 2.055-.343-.079 1.223-.1 2.461.282 3.618.243.737.638 1.417.874 2.155.286.898.322 1.851.353 2.792.048 1.56.078 3.117.094 4.674z" fill="#a37052"/><path d="m126.091 14.9201c-.115 0-.227-.0668-.276-.1791-.07-.1517 0-.3338.152-.4006 1.699-.7678 3.672-.8255 5.411-.1608.158.0607.234.2367.176.3915-.06.1578-.237.2337-.391.176-1.591-.61-3.393-.5554-4.944.1457-.043.0182-.085.0273-.128.0273z" fill="#000"/><path d="m131.008 17.8489c-.683.7284-1.709 1.1108-2.704 1.0532-.361-.0213-.723-.0971-1.057-.2398-.534-.2246-1.22-.695-1.687-1.0926-.052-.0455-.055-.1275-.003-.176.753-.7072 1.724-1.214 2.75-1.2626.036-.003.07-.0061.106-.0061 1.041-.0182 2.112.4978 2.634 1.387.064.1063.046.2459-.039.3369z" fill="#f7ebe7"/><path d="m127.375 25.4213c-1.014.9773-2.264 1.6996-3.615 2.0941-.03-.2003-.063-.4036-.091-.607 1.226-.3702 2.361-1.0349 3.287-1.9242.118-.1183.313-.1123.428.0061.115.1214.112.3126-.009.431z" fill="#e27356"/><path d="m128.504 17.509c0 .5008-.073.9773-.2 1.3931-.361-.0213-.723-.0972-1.057-.2398-.534-.2246-1.22-.695-1.687-1.0926-.052-.0455-.055-.1275-.003-.176.753-.7072 1.724-1.214 2.75-1.2626.127.4128.197.8832.197 1.3779z" fill="#000"/><path d="m189.374 145.817c-.233-1.973-.434-3.982-1.268-5.781-1.047-2.252-2.802-4.095-4.647-5.758-.255-.228-.522-.458-.85-.555-.34-.103-.701-.046-1.05.015-3.557.613-6.953 1.314-10.428 2.294-.458-1.469-.856-2.728-1.682-4.027-.825-1.299-2.066-2.407-3.572-2.732-.768-.167-1.569-.124-2.343.009-2.37.413-4.58 1.691-6.121 3.539-1.539 1.849-2.395 4.377-2.368 6.781-2.279.637-5.259 1.475-7.539 2.109-.928.261-1.875.528-2.674 1.068-1.186.804-1.927 2.143-2.288 3.533-.358 1.387-.373 2.838-.379 4.27-.025 6.644.145 13.287.506 19.922.013.194.025.398.134.561.106.161.288.252.461.337 1.624.796 3.081 2.131 4.872 2.389 2.042.294 7.627-1.888 12.631-2.659 5.008-.771 13.542-3.593 16.945-4.492 3.399-.898 10.908-2.567 11.229-3.978.322-1.412-.255-6.292-.127-7.542 1.988-.771.962-5.873.558-9.303zm-31.895-6.741c-.042-.874.198-1.733.459-2.567.352-1.12.801-2.307 1.772-2.962.486-.325 1.059-.489 1.624-.65 1.092-.306 2.231-.619 3.35-.422.55.094 1.072.31 1.585.528.361.149.725.307 1.023.559.297.249.509.583.695.922.4.747.679 1.202.773 2.046z" fill="#e2bc97"/><path d="m149.606 164.419c-.631 0-1.147-.058-1.514-.185-1.839-.644-1.688-3.925-1.515-7.721.098-2.104.198-4.277-.036-6.134-.516-4.11-1.223-4.625-1.311-4.674-.14-.003-.261-.1-.291-.243-.034-.164.072-.325.236-.358.061-.012.225-.024.428.121.659.474 1.175 2.183 1.539 5.081.237 1.909.137 4.109.039 6.237-.157 3.408-.303 6.625 1.108 7.12 2.009.704 9.612-1.092 14.644-2.279 1.19-.279 2.31-.546 3.223-.747 5.123-1.132 20.605-5.044 22.547-5.797.158-.06.331.019.392.173.061.155-.018.331-.173.392-1.958.759-17.5 4.686-22.635 5.821-.911.2-2.031.464-3.217.747-4.486 1.059-10.359 2.446-13.464 2.446z" fill="#a37052"/><path d="m167.707 128.779c-.033 1.162-.264 2.309-.719 3.378-.182.425-.41.874-.801 1.135-.34.227-.829.273-1.145.015-.179.492-.853.722-1.296.443-.282.288-.588.589-.983.674-.395.082-.883-.173-.883-.577-.219.771-1.16 1.163-1.946 1.002-.449-.091-.901-.364-1.038-.802-.106-.333-.015-.692.067-1.034.316-1.312.474-2.662.468-4.01 0-.179-.237-.252-.334-.103-.695 1.071-.883 2.437-1.399 3.627-.085.194-.192.401-.386.489-.215.094-.476.009-.646-.155-.167-.164-.258-.392-.325-.616-.337-1.123-.31-2.328.067-3.439.622-1.845 1.435-3.627 2.413-5.311 2.415-.037 4.825-.534 7.062-1.457.407-.167.835-.376 1.111-.704.352.704.573 1.484.695 2.264.261 1.712.07 3.466.018 5.181z" fill="#f6cabd"/><path d="m167.282 120.693c-.012.094-.036.189-.069.28-.052.136-.128.255-.219.361-.276.328-.704.537-1.111.704-2.237.923-4.646 1.42-7.062 1.457h-.025c-.06 0-.124 0-.182-.028-.079-.042-.118-.127-.154-.209-.183-.437-.307-.898-.368-1.366.037.009.073.015.113.015.783.028 2.516-.024 4.303-.197 1.591-.158 3.223-.41 4.258-.789.195-.07.368-.146.516-.228z" fill="#f7ebe7"/><g fill="#e27356"><path d="m43.8849 45.1883c-.7193.9743-.956 2.1609-.7102 3.3416.0789.3824.6647.2215.5858-.1609-.2155-1.0319.0273-2.0304.6495-2.8741.2307-.3157-.2974-.6192-.5251-.3066z"/><path d="m33.6295 48.4327c.3399 1.0775.346 2.1519.0151 3.2323-.1153.3733.4705.5342.5858.1609.3612-1.1746.3551-2.3855-.0152-3.554-.1183-.3703-.7041-.2125-.5857.1608z"/><path d="m36.9649 58.9672c-.1821 1.1989.3035 2.34 1.3081 3.0229.3247.2185.6282-.3065.3065-.5251-.7618-.5159-1.1685-1.4234-1.0319-2.3369.0607-.3824-.522-.5463-.5827-.1609z"/><path d="m31.3077 58.5363c-.9864.4825-1.6966 1.3839-1.9454 2.4523-.0881.3793.4977.5432.5857.1608.2155-.9287.8073-1.6723 1.6662-2.0911.3491-.17.0425-.692-.3065-.522z"/><path d="m36.0059 81.8421c.3642-.959.4067-1.9697.1396-2.9591-.1001-.3763-.6859-.2155-.5857.1608.2397.8923.1881 1.7725-.1396 2.6375-.1366.3672.4491.525.5857.1608z"/><path d="m16.858 78.5219c-.4826 1.0653-.6344 2.164-.4674 3.3203.0546.3855.6404.2216.5857-.1608-.1426-.9804-.003-1.9516.4067-2.853.1609-.352-.3642-.6616-.525-.3065z"/><path d="m17.1159 62.9341c.4158.8711.5706 1.818.4371 2.774-.0516.3824.5311.5463.5857.1609.1548-1.1321-.006-2.2095-.4977-3.2445-.17-.349-.695-.0394-.5251.3096z"/><path d="m23.7445 52.3479c.5493.865 1.3263 1.4993 2.2732 1.8787.3612.1457.519-.4401.1609-.5858-.7952-.3186-1.4538-.8801-1.9121-1.5994-.2064-.3278-.7314-.0243-.522.3065z"/><path d="m14.3875 44.0623c.9348-.5463 1.7512-1.2534 2.4159-2.1093.2367-.3035-.1912-.7375-.428-.4279-.6343.8164-1.3991 1.4932-2.2914 2.0152-.3399.1943-.0364.7193.3035.522z"/><path d="m7.08223 47.7377c1.21704-.5675 2.52817.258 2.5737 1.5873.01214.3885.62217.3915.60697 0-.0637-1.8149-1.85437-2.8711-3.48721-2.1093-.35206.1639-.04552.6859.30654.522z"/><path d="m13.8806 73.0316c1.2444.3338 2.513.1456 3.5995-.5494.3278-.2094.0243-.7344-.3065-.525-.953.61-2.0365.783-3.1321.4886-.3794-.1001-.5403.4856-.1609.5858z"/></g><g fill="#f7ebe7"><path d="m46.8592 45.1003c-.1548.4491-.434.8498-.8346 1.1077-1.1594.7467-2.4948-.179-2.5616-1.4689-.0485-.8984.343-1.7482.9288-2.4311.0971.082.1942.1609.2883.2429v.003c.9469.8134 1.7269 1.6723 2.1791 2.5464z"/><path d="m39.0256 57.1311c.0425 1.0168-.8164 2.5069-1.0592 2.7133s-.4583.4523-.7679.3855c-.9955-.2155-1.1715-1.5995-1.1381-2.4493.0334-.8801.4765-1.9181 1.3748-2.2277 1.1017-.3794 1.5509.6708 1.5904 1.5782z"/><path d="m34.8253 48.6907c-.0758.2974-.346.5372-.7223.4158-.8316-.2671-1.6207-.9014-1.5297-1.8666.082-.8801 1.0744-1.4932 1.8666-1.0045.7284.4522.4613 2.1578.3854 2.4553z"/><path d="m24.3575 52.6818c-1.2201.5433-2.334-.7739-2.598-1.5994-.3763-1.1594.4583-2.5919 1.7998-2.2945 1.302.2914 2.0182 3.3507.7982 3.8939z"/><path d="m17.823 41.6465c-.6039.6738-1.6085.8134-2.3825.2762-.786-.5463-.9954-1.5691-.7891-2.4583 1.7694.2124 1.4508 1.8786 3.1716 2.1821z"/><path d="m10.7849 51.4647c-.1245.6313-.5919 1.2322-1.29901 1.1169-.77393-.1214-1.11385-.9682-1.1442-1.6632-.03946-.9348.42794-1.7451.91354-2.513.34903-.5554.80127-.5008 1.11077.4188.3096.9196.5828 1.7664.4189 2.6405z"/><path d="m17.304 63.6625c-1.211-.5797-2.9258-2.7467-1.3233-3.8545.6313-.437 1.4356-.2246 1.8301.4219.4583.7557.3916 2.0122.3885 2.6647-.003.6526-.3429 1.032-.8953.7679z"/><path d="m14.697 72.7766c-.4401.8802-1.5448.7466-2.3279.6009-.8407-.1578-1.6419-.8528-1.5327-1.7785.0972-.8346.9379-1.2777 1.7179-1.1776.8225.1063 2.5828 1.4751 2.1427 2.3552z"/><path d="m19.0007 77.9088c-.1366.9348-1.7239 1.9606-2.4098 1.6753-.6859-.2852-.7011-1.2443-.6252-1.5782.1244-.5463.5402-.9105.9773-1.2231.4309-.3095.9469-.5099 1.4477-.2124.4522.2671.6829.8316.61 1.3384z"/><path d="m35.6357 79.9908c-1.0349-.1821-2.1063-1.3657-2.167-2.5979-.0516-1.0592.8225-2.0578 1.9212-1.5661.5797.261.8953.8255 1.0289 1.4265.1244.5645.2519 2.9196-.7831 2.7375z"/><path d="m30.4793 63.0403c-.0911.5098-.2853.9894-.601 1.3748-.264-.0364-.4461-.0728-.5341-.1123-.2914-.1244-.8559-.4856-1.6025-1.0228.0182-.4977.1426-.9924.3733-1.4507.346-.6859 1.0744-1.3961 1.8969-.9591.7375.3946.5918 1.475.4674 2.1701z"/></g><path d="m58.1494 80.097c-.0395-.0182-.082-.0425-.1184-.0728.0395.0151.0789.0425.1184.0728z" fill="#00f8f6"/><g fill="#e1a897"><path d="m65.9098 82.5767c-.179.7708-.5402 1.5296-1.1745 1.997-.9014.6555-2.1761.5797-3.1807.0971-.4795-.2307-.9166-.5372-1.3202-.8862-.4401-.3794-.8498-.8013-1.2504-1.2201-.5524-.5736-1.7543-2.0668-1.5995-2.3309.1335-.2246.3945-.3338.6465-.2094.0364.0304.0789.0546.1183.0728-.0394-.0303-.0789-.0576-.1183-.0728-.2853-.2216-.519-.7679-.3551-1.041.1851-.3096.8589-.1366 1.0592.1639-.1912-.4158-.3551-.9773-.0091-1.2717.2064-.176.525-.1669.7678-.0516.2459.1184.434.3248.6161.5251-.1214-.1821-.2458-.3733-.2731-.5888s.0728-.4674.2792-.5342c.2003-.0668.4128.0516.5858.1791.8285.607 1.5387 1.478 2.3946 1.9879.0091.003.0152.0091.0243.0122l-.0213-.0213 1.3992-2.1457c.1487.2094.3308.4613.525.7344.9378 1.3081 1.2474 3.0381.8862 4.6042z"/><path d="m58.031 80.0242c.0395.0151.0789.0425.1184.0728-.0395-.0182-.082-.0425-.1184-.0728z"/><path d="m162.105 128.7c.136 1.824-.043 3.472-.486 5.244-.094.38.492.54.586.161.455-1.833.646-3.521.507-5.405-.028-.389-.635-.392-.607 0z"/><path d="m163.695 128.587c.237 1.715.036 3.381-.267 5.072-.07.382.516.546.586.161.324-1.803.519-3.569.267-5.396-.052-.383-.638-.219-.586.163z"/><path d="m165.316 128.108c.051 1.654.054 3.402-.292 5.026-.082.382.504.543.586.161.361-1.682.367-3.475.316-5.187-.015-.389-.622-.392-.61 0z"/></g><path d="m57.7971 80.0607c1.0137 1.2807 1.9758 2.7709 3.5146 3.4599.176.0789.3308-.1821.1517-.261-1.5084-.6738-2.4553-2.1549-3.4508-3.4114-.1214-.1548-.3369.0607-.2155.2125z" fill="#a37052"/><path d="m58.6439 79.2502c.9803 1.1472 2.0456 2.1822 3.1686 3.1928.1457.1306.3612-.0849.2155-.2154-1.123-1.0077-2.1883-2.0426-3.1686-3.1929-.1274-.1487-.3399.0668-.2155.2155z" fill="#a37052"/><path d="m59.9431 78.3974c.9074 1.1806 2.0031 2.2156 3.2201 3.0684.1609.1123.3126-.1517.1518-.261-1.1716-.8225-2.2399-1.824-3.1109-2.9591-.1184-.1548-.3824-.0031-.261.1517z" fill="#a37052"/><path d="m43.9241 65.0465c-.0334.2033-.0698.4067-.1093.61-.2033-.0061-.4097-.0121-.6161-.0182.0425-.2034.082-.4037.1123-.607.6313-3.7483 0-7.7363-1.7876-11.0869-.0789-.1487-.0212-.3308.1275-.4097.1487-.079.3308-.0243.4097.1244 1.8332 3.4417 2.4948 7.5329 1.8635 11.3874z" fill="#00eda2"/><path d="m148.966 11.0687c-.103.3551-.225.7102-.34 1.0531-.231.6738-.467 1.3719-.561 2.0821-.076.5888-.055 1.1988-.034 1.7876.015.4704.034.953.003 1.4325-.142 2.1943-1.259 4.1428-2.34 6.0276-.458.8012-.931 1.6267-1.326 2.4674.006-.0455.006-.088.006-.1244 0-.9864-3.099-4.3371-3.099-4.8196 0-.4796 1.229-2.0699 1.229-3.7543 0-1.0592-.434-1.7816-1.468-1.7816-.823 0-1.676 1.1108-1.991 1.7209-.152.2944-.471.4765-.79.4036-.139-.0334-.251-.1092-.276-.2701-.073-.4826.313-3.5388.313-3.9243 0-3.65715-4.188-4.06688-5.8-4.66781s-1.396.28833-2.598.28833c-1.205 0-1.733-.86498-2.695-.67378-.962.19425-1.685.8923-1.997.93782-.225.03339-.468.02125-.592.00607-.115-.22155-.152-.46739-.188-.68287-.395-2.51603-.644-4.9319.625-6.86217.094-.14568.203-.29136.361-.38545.149-.09408.319-.12443.468-.14568.925-.13354 1.884-.05463 2.81.01821 1.348.10926 2.619.21245 3.8-.276185.179-.075875.358-.163891.534-.251907.477-.236731.965-.485601 1.521-.473461.658.01214 1.205.379376 1.733.734473.391.26101.795.53416 1.232.64949.695.1821 1.402-.02731 2.155-.24583.749-.21852 1.526-.44615 2.3-.25191.632.16086 1.138.57665 1.627.97728.461.37634.892.7284 1.42.89229.331.10319.677.12443 1.044.14568.389.02124.793.04552 1.175.17603 1.572.5372 1.979 2.50389 2.082 3.32334.188 1.48412.067 3.02894-.343 4.46754z" fill="#000"/><path d="m51.6391 213.656c.0212.41-.1123.807-.3764 1.12-.1214.145-.2489.285-.3824.422-3.1261 3.28-8.6285 4.519-11.7546 4.971-.3187.046-.6161.085-.8802.115-.8346.1-1.5842-.507-1.6662-1.344-.9621-9.818-1.9272-57.071-2.1093-59.681-.1912-2.792-2.0213-15.788-3.5601-28.696-1.0562-8.841-1.5691-11.572-1.7876-12.416-.0213-.088-.1487-.073-.1518.015-.522 14.632-5.5844 37.519-6.3431 40.873-.0607.279-.1002.555-.1184.84-.1487 2.441-.9742 15.203-2.9834 32.308-1.7239 14.674-.2641 24.101.4977 27.661.1761.823-.4492 1.603-1.2929 1.603h-3.3871c-1.9181 0-5.91521.925-8.74688 1.651-.45828.118-.88622.23-1.26863.334-.94085.249-1.85136-.48-1.8119-1.451.24887-5.94.98941-23.579 1.31415-28.836.37634-6.058 4.01837-32.842 4.35829-35.327.01517-.125.02124-.249.01821-.374-.07588-2.033-.71626-20.21-.52809-34.198.15782-11.691 3.61165-29.2243 5.06545-36.129.0455-.2094.088-.4066.1275-.5948.1122-.5372.2124-.9894.2913-1.3506 1.2322-.4644 5.9456-2.1518 9.2841-2.3005 2.7194-.1184 4.4645.2094 6.4858.5887.9075.17 1.8423.343 2.9561.5008 3.636.5099 10.3707.516 10.4374.516.085 0 .1609-.0334.2155-.088.3825 4.1519 2.249 24.4044 3.5085 38.7384 1.4113 16.047.255 26.184 1.1533 34.657.8407 7.913 3.1352 50.309 3.4357 55.872z" fill="#808080"/><path d="m41.4781 86.5162c-.088.0789-2.2489 1.9424-11.8487 1.9424-.1608 0-.3217-.0031-.4856-.0031-7.6331-.0485-13.1993-.9287-15.3997-1.3384.0456-.2094.0881-.4067.1275-.5949 2.1731.4067 7.6968 1.2778 15.2752 1.3263 9.7819.0607 11.9034-1.7633 11.9216-1.7815.1244-.1123.3186-.1032.4309.0182.1123.1244.1032.3187-.0212.431z" fill="#d9d9d9"/><path d="m34.3184 36.6083c-.1305.0304-.3004.0607-.522.0881-.7132-1.3506-1.2656-2.334-1.8756-3.9759-.4553-1.2262-.4735-2.0638.0789-2.5403.0941 1.7299.7254 3.0744 1.5721 4.8772l.261.5524c.1761.3764.3369.7072.4856.9985z" fill="#e2bc97"/><path d="m42.5129 40.1958c-.3642-.2368-.7315-.4644-1.0987-.6829h-.003c-.7709-1.1533-1.9242-2.3006-3.4448-3.4205-1.3263-.9773-3.296-4.5009-4.2945-6.3978.1001-.003.2094-.0061.3187-.0061.1274 0 .2488.0031.3672.0122 1.0167 1.9029 2.8074 5.0502 3.9668 5.9031 2.0182 1.4841 3.4234 3.0259 4.1883 4.592z" fill="#e2bc97"/><path d="m40.9347 23.9736c-.0152.2762-.0304.5463-.0395.8134-.0061.0516-.0091.1032-.0091.1548-.0182.3702-.0334.7284-.0486 1.0774-1.1624-.3915-2.7284-1.6753-2.9166-2.2216-.0273-.082.0546-.1609.1366-.1245.5129.2246 2.3126.258 2.8772.3005z" fill="#e27356"/><path d="m40.8952 24.787c-.006.0516-.0091.1032-.0091.1548h-.0121c-.9651-.1973-2.0213-.601-2.0335-.607-.0394-.0152-.0576-.0577-.0424-.0972.0151-.0394.0576-.0576.0971-.0425.0091.0031 1.0501.4007 2 .5919z" fill="#000"/><path d="m40.698 14.0188c-2.3339-.4552-3.2839.7375-3.3264.7922-.0759.0971-.1882.1487-.3035.1487-.0789 0-.1578-.0243-.2276-.0759-.167-.1244-.2003-.3612-.0759-.5281.0516-.0698 1.1988-1.563 3.8848-1.1169.0182.2732.0334.5342.0486.78z" fill="#a37052"/><path d="m70.1042 63.2345c-.7466-.1487-1.4932-.2823-2.2429-.343 1.2292-.3095 2.2095-.4158 2.3006-.006.0273.1244.003.2428-.0577.349z" fill="#e1a897"/><path d="m72.9631 65.5563c.1912.1821.2367.4613.1791.7284v.0121c-.0486.3642-.2671.7345-.7467.8863.3642.3399.2095.9894-.179 1.2989-.3642.2853-.8468.3551-1.3111.3915-.0334.0031-.0638.0061-.0972.0092 0 0-.2944-.0091-.7739-.0213.2337-.3369.437-.692.607-1.0653.1062-.2337.2034-.4916.1518-.7466-.0547-.261-.2793-.4765-.5433-.519-.2641-.0455-.5463.088-.6829.3157.0577-.3582-.176-.7436-.522-.8529-.346-.1092-.7588.0638-.9227.3885-.0212-.3096-.2549-.5858-.5523-.6647l-.0091-.003c-.2914-.0759-.6252.0486-.8013.2974.2246-.4218-.2246-.953-.698-.9833-.4765-.0364-.9136.2489-1.2899.5433-.8043.6282-1.56 1.4112-1.8089 2.4037-.0455.1912-.0698.4006-.0425.5948.0213.1488.0759.2853.167.4067.0485.0607.1123.1093.1821.1457-.1305.0273-.2519.0546-.3612.082-2.0213.5281-4.8864 1.824-7.1444 2.5433.519-1.0501 1.6783-3.7543 1.2443-6.2066-.0121-.0607-.0394-.1123-.0789-.1548 1.9181-.1426 3.8727-.0759 5.6694-.7375.2367-.088 1.3203-.5099 2.598-.9499.343.5098 1.6875.695 2.4462.8103.088.0152.1791.0243.2701.0334.1184.0121.2398.0182.3582.0243.091.003.1821.006.2731.006.3946.0061.7922-.0273 1.1928-.0758.003.003.003.003.006 0 .258-.0304.516-.0668.777-.1063.3915-.0576.783-.1244 1.1746-.176.3035-.0394.6191-.0728.9165 0 .3005.0728.5858.2732.6768.5676.0941.2944-.0728.6677-.3763.7253.0182.0152.0364.0304.0516.0486z" fill="#e1a897"/><path d="m69.7369 64.4971c-.4006.0485-.7982.0819-1.1927.0758.3976 0 .7952-.0303 1.1927-.0758z" fill="#e1a897"/><path d="m69.7369 64.4971c-.4006.0485-.7982.0819-1.1927.0758.3976 0 .7952-.0303 1.1927-.0758z" fill="#f6cabd"/><path d="m72.9602 69.954c-.0212.1457-.0424.2944-.0212.437-1.2777.3794-3.4053.1882-4.3583.0638-.0364.0334-.0698.0607-.1062.091-.2003.1609-.4219.2732-.7466.1639-.2276-.0728-.3824-.2944-.431-.5372-.0243-.1153-.1517-.176-.2549-.1153-.2216.1366-.5069.17-.7466.0698-.2064-.085-.3612-.264-.4401-.4704-.0607-.1639-.2641-.2094-.4006-.0971-.2155.176-.4644.2943-.7376.2943-.3824.0061-.7617-.3156-.783-.6737-.0061-.0577-.0668-.085-.1153-.0547-.1548.0911-.3764.085-.5494-.003-.0698-.0364-.1335-.085-.1821-.1457-.091-.1214-.1456-.258-.1669-.4067-.0273-.1942-.003-.4036.0425-.5948.2489-.9925 1.0046-1.7755 1.8089-2.4038.3763-.2943.8134-.5796 1.2899-.5432.4734.0303.9226.5615.698.9833.176-.2489.5099-.3733.8013-.2974l.0091.003c.2974.0789.5311.3551.5523.6647.1639-.3248.5767-.4977.9227-.3885.346.1093.5797.4947.522.8528.1366-.2276.4188-.3611.6829-.3156.264.0425.4886.258.5432.519.0516.2549-.0455.5129-.1517.7466-.17.3733-.3733.7284-.607 1.0653.4795.0121.7739.0212.7739.0212.0334-.003.0638-.006.0971-.0091.4644-.0364.947-.1062 1.3112-.3915.3884-.3095.5432-.959.179-1.299.4796-.1517.6981-.522.7466-.8862v-.0121c.0577-.2671.0122-.5463-.179-.7284-.0152-.0182-.0334-.0334-.0516-.0486.3035-.0577.4704-.431.3763-.7254-.091-.2944-.3763-.4947-.6768-.5675-.2974-.0728-.6131-.0395-.9166 0-.3915.0516-.783.1184-1.1745.176-.258.0364-.519.0759-.777.1063-.003.003-.003.003-.006 0-.3976.0455-.7952.0758-1.1928.0758-.091 0-.1821-.003-.2732-.006-.1183-.0061-.2397-.0122-.3581-.0243-.091-.0091-.1821-.0182-.2701-.0334-.7587-.1153-2.1033-.3005-2.4462-.8104-.0425-.0576-.0698-.1214-.0789-.1881-.1063-.6556.6889-.5828 1.1502-.6222.5312-.0486 1.0623-.0395 1.5934.003.7497.0607 1.4963.1943 2.2429.343 1.2201.2398 2.4371.525 3.6572.607.2094 2.0243-.4917 4.076-.8013 6.1125z" fill="#f6cabd"/></svg>