<svg fill="none" height="233" viewBox="0 0 203 233" width="203" xmlns="http://www.w3.org/2000/svg"><path d="m41.5436 193.899c-1.8639-3.892-4.6228-7.273-8.0102-9.879-4.635-3.57-10.4472-5.696-16.7621-5.696s-12.13321 2.126-16.7713 5.703l9.23939 11.048c2.12741-1.506 4.72701-2.392 7.53191-2.392 4.1783 0 7.8967 1.961 10.2817 5.01v.003c.1318.168.2575.336.3801.51.2973.418.5702.858.8185 1.313.4751.886.8522 1.83 1.1128 2.823.1011.375.1839.76.2513 1.148.1196.706.1809 1.433.1809 2.172 0 .205-.0061.409-.0153.614-.0092.204-.0246.409-.043.614-.0306.317-.0705.632-.1226.941-.0368.207-.0766.415-.1226.62-.0705.336-.1594.669-.2606.992-.0643.217-.1348.428-.2115.639-.3065.849-.702 1.658-1.1771 2.416-.2606.421-.5488.828-.8553 1.216-.2177.271-.4445.534-.6805.788-.558.595-1.1711 1.139-1.8301 1.622l-.0031.003c-2.1581 1.576-4.819 2.511-7.7036 2.511-2.7927 0-5.3799-.874-7.50125-2.368l-9.2424617 11.049c4.6319617 3.564 10.4411117 5.681 16.7437117 5.681 15.1527 0 27.4362-12.24 27.4362-27.338 0-4.212-.9565-8.202-2.6639-11.763z" fill="#003668"/><path d="m96.1676 147.626c-.8063 0-1.6064.033-2.3973.103-.702.058-1.3978.147-2.0845.26-.0644.009-.1257.021-.1901.031-.1502.027-.3004.052-.4506.082-.0552.009-.1103.018-.1655.031-.2054.039-.4077.082-.6101.128-.3126.064-.6223.137-.9288.217-.6928.177-1.3764.382-2.0447.608-.1165.039-.233.079-.3495.122-.0306.012-.0643.021-.095.033-2.7099.975-5.2175 2.365-7.4553 4.087l9.2394 11.049c.5058-.358 1.0362-.678 1.591-.963 1.7811-.913 3.8012-1.429 5.941-1.429 7.1944 0 13.0254 5.813 13.0254 12.979 0 5.516-3.455 10.229-8.326 12.102-1.4562.565-3.041.873-4.6994.873-2.0631 0-4.0158-.476-5.7509-1.331-.3188-.153-.6284-.321-.9319-.501-.279-.168-.5518-.349-.8185-.535l-1.824 2.181-.5395.645-6.879 8.222c4.632 3.565 10.4411 5.682 16.7438 5.682 15.1524 0 27.4364-12.24 27.4364-27.338 0-15.099-12.284-27.338-27.4364-27.338z" fill="#003668"/><path d="m178.715 117.108c-1.033-.119-2.084-.181-3.151-.181-2.652 0-5.218.376-7.642 1.076-3.351.965-6.438 2.553-9.13 4.627l9.24 11.049c.874-.617 1.827-1.131 2.839-1.519.916-.357 1.885-.61 2.89-.748.328-.046.662-.079 1-.101.266-.015.533-.024.803-.024 1.588 0 3.111.284 4.515.8 4.969 1.83 8.51 6.595 8.51 12.179 0 4.307-2.106 8.122-5.346 10.483-.938.681-1.968 1.243-3.072 1.655 0 0 0 0-.003 0-1.431.541-2.983.837-4.604.837-1.674 0-3.274-.314-4.746-.889-.981-.381-1.906-.879-2.755-1.478l-1.588 1.9-7.655 9.148c4.632 3.565 10.441 5.682 16.744 5.682 15.153 0 27.436-12.24 27.436-27.338 0-14.036-10.616-25.604-24.285-27.158z" fill="#003668"/><path d="m195.088 67.4256c0 2.9538-.046 6.0541-2.431 9.6371-2.382 3.586-5.444 7.5569-8.749 14.2433-3.308 6.6864-4.764 12.499-5.398 16.568-.632 4.068 1.41 21.928 1.508 23.541.098 1.616.552 2.713-.39 3.07-.061.024-.134.049-.217.079-.776.285-2.471.868-3.991 1.238-.325.079-.644.149-.942.204-.459.083-.873.132-1.201.125-.249-.003-.463-.027-.647-.067-1.058-.229-1.208-1.014-1.429-2.193-.257-1.39-1.774-9.002-3.142-15.245-1.367-6.241-2.924-11.778-2.618-16.36.307-4.5821 1.533-15.5784 3.372-21.993 1.84-6.4145 2.759-12.2181 2.759-12.2181 4.599-5.4982 17.167-14.0509 17.167-14.0509 5.708 6.0541 6.349 10.4648 6.349 13.4216z" fill="#7451eb"/><path d="m183.733 145.942c0 1.885-.576 10.053-.576 10.053s-.288.51-1.631.51c-1.346 0-1.962-.253-1.962-.253v-6.397s-1.036.196-4.57 3.715c-3.532 3.522-6.352 3.228-7.584 3.228-1.23 0-4.473-.094-4.473-1.808 0-1.897 4.368-4.227 5.972-5.822 2.884-2.874 2.918-7.859 3.972-8.947v-.003c.132-.137.282-.211.454-.211 3.722 0 5.116-1.466 6.232-1.224.233.048.454.171.678.397 1.315 1.307 3.488 4.881 3.488 6.762z" fill="#000"/><path d="m91.1739 171.283c-.7541.922-1.2875 1.115-4.448 2.083-3.1606.968-5.7877.874-6.223-.098-.4384-.968-5.3983-18.892-6.1248-21.216-.7296-2.325-.3097-3.455-3.4518-3.632-3.1452-.177-19.0091-1.308-19.6896-.727-.6806.58 1.1648 4.603 3.0624 10.318 1.8945 5.715 3.3046 12.157.5334 16.229-2.7712 4.068-15.07 22.185-16.8694 25.093-1.7995 2.905-2.6731 3.632-4.1323 2.905-1.4592-.73-6.7564-3.828-6.7778-4.542-.0184-.718 1.7718-6.308 6.1095-13.092 4.3407-6.781 7.7189-14.726 7.7189-16.855 0-2.132-2.0416-5.233-8.3626-15.6-6.3211-10.367-7.9734-19.314-7.9734-20.67s.7909-5.015 1.5573-5.489c.095-.058.2483-.079.4537-.07h.003c.1686.098.3618.195.5794.296 2.5934 1.195 13.5464 5.975 19.8981 6.653 6.2015.663 8.0776-.385 8.1634-.434 1.8087-.082 10.2326-.424 16.5935-.097 3.0318.152 5.5915.458 6.7472 1.017 2.4585 1.182 4.7607 5.822 6.4988 10.462.046.122.0889.241.1349.363.699 1.9 1.3029 3.785 1.7811 5.419.1747.586.328 1.136.4659 1.646 1.4899 5.489 4.5063 19.119 3.7522 20.038z" fill="#00eda2"/><path d="m65.479 88.7859s.9718-.9194 1.6033-4.5543.8736-6.1519 1.4591-8.9621c.5825-2.8101 1.3611-5.9105 1.9435-7.7493.5825-1.8419 2.5291-2.7613 5.006-2.5689 2.48.1924 4.2794-1.4051 5.9317-1.3562s3.5008 2.1321 4.8129 2.1321c1.312 0 3.5988-.6781 3.3536 1.1637-.2422 1.8419-.9779 2.3307-1.2385 4.0931-.2605 1.7625-1.4837 6.7567-2.0661 10.0525-.5824 3.2959.6805 3.4547.2912 3.8762-.3617.388-.9166.556-2.1305.5529-.1778 0-.3403.11-.4016.278-.233.6262-.843 2.1443-1.5542 2.8529-.9074.9042-1.5542 2.0679-4.4082 1.0966-2.8509-.9683-4.7975 4.3588-4.7975 4.3588l-4.7637-2.2939z" fill="#e1a897"/><path d="m86.7258 78.764c-.1502.7362-.2882 1.4448-.4077 2.0924-.5058-.0428-.9319-.1191-1.2967-.2199-1.4837-.3971-1.9068-1.1546-2.0233-1.6373-.0551-.2321.1227-.4551.3587-.4765 1.2231-.116 2.1152-.0397 2.7283.0764.2636.0489.4752.11.6407.1649z" fill="#f7ebe7"/><path d="m119.508 88.6576c0 .5804-7.844 5.9411-13.871 10.4649-6.03 4.5205-11.8636 8.7175-14.3436 9.1055-2.4831.388-15.6677-.192-15.6677-.192.7112 1.292 2.4616 10.205 3.3689 14.014.9074 3.812 3.1759 6.848 4.7975 9.496 1.6217 2.649 5.9624 9.686 5.9624 9.686s-.0398.052-.187.187c-.2146.195-.6682.577-1.5634 1.237-1.0484.77-2.2225 1.286-2.8294 1.524-.046-.122-.0889-.241-.1349-.363-1.7381-4.64-4.0403-9.28-6.4989-10.462-1.1556-.559-3.7153-.865-6.7471-1.017-.6315-1.488-1.0852-2.841-1.355-3.764-.7142-2.455-3.2739-10.333-3.2739-10.333s-2.2685 3.971-4.7331 6.879c-2.4616 2.905-7.2284 7.312-7.2284 7.312s0 0-.0031.003c-.0858.049-1.9619 1.097-8.1634.434-6.3517-.678-17.3047-5.458-19.8981-6.653-.2177-.101-.4108-.198-.5794-.296h-.0031c-1.8055-1.039-.5763-2.022 3.3383-7.875 4.2764-6.393 9.8679-12.062 17.2097-18.8431 7.3388-6.7811 14.3894-9.802 17.0135-10.9322 2.6271-1.1302 2.5014.4154 5.5761 2.1321.4415.2474 1.355.8216 2.9306 1.292 2.7314.8156 1.5696 2.1871 1.3795 3.1981-.2023 1.0783.42.8706 1.7811.9989 1.361.1313 17.1453 1.7136 20.7442-.5804 3.5987-2.294 14.3897-8.4611 16.9187-9.8814 2.529-1.4204 2.431-.9378 2.786-.5499.356.388 3.274 3.1982 3.274 3.7785z" fill="#f7ebe7"/><path d="m89.5919 66.891c-.2421 1.8419-.9778 2.3306-1.2384 4.0931-.1012.6781-.3433 1.8327-.6376 3.1859-.886-.6781-2.9552-1.9397-5.1562-1.0141-2.7344 1.1515-3.9606 1.6769-4.5829 4.8048-.0766.3879-.3924.6842-.7848.73l-.561.0641c-.2728.0306-.4904-.2229-.4107-.4826.2084-.7086.5242-1.903.4107-2.3703-.2329-.9622-3.3229-2.3031-3.0777 1.454.095 1.4661.5824 1.3867 0 2.4528-.5058.9224-4.0771 2.4314-6.1187 2.3092.3985-2.5689.6468-4.6154 1.1097-6.8452.5855-2.8102 1.3611-5.9106 1.9466-7.7525.5824-1.8388 2.5259-2.7613 5.0059-2.5658 2.48.1925 4.2794-1.4051 5.9317-1.3562s3.5008 2.129 4.8129 2.129c1.3089 0 3.5958-.6781 3.3505 1.1638z" fill="#e2bc97"/><path d="m86.7258 78.764c-.1502.7362-.2882 1.4448-.4077 2.0924-.5058-.0428-.9319-.1191-1.2967-.2199-1.4837-.3971-1.9068-1.1546-2.0233-1.6373-.0551-.2321.1227-.4551.3587-.4765 1.2231-.116 2.1152-.0397 2.7283.0764.2636.0489.4752.11.6407.1649z" fill="#fae9e7"/><path d="m86.7257 78.7641c-.1502.7362-.2881 1.4448-.4077 2.0924-.5058-.0428-.9319-.1191-1.2967-.2199-.0613-.1619-.095-.336-.095-.5132 0-.6842.4782-1.2707 1.1587-1.5242.2637.0489.4752.1099.6407.1649z" fill="#94632a"/><path d="m83.8626 86.2141c-.0736.1802-.1594.3848-.2544.5956-1.9865-.2108-3.0165-1.2768-3.0625-1.3257-.1165-.1222-.1103-.3176.0154-.4307.1226-.116.3157-.1099.4322.0123.0092.0122.9932 1.0171 2.8693 1.1485z" fill="#94632a"/><path d="m87.1028 76.9924c-.0429.1985-.0859.397-.1288.5956-1.5327-.1833-3.9483-.1222-3.979-.1222-.1625.0122-.3096-.1283-.3127-.2963-.0061-.168.1288-.3085.2974-.3146.1226-.0031 2.5382-.0641 4.1231.1375z" fill="#94632a"/><path d="m83.8626 86.2141c-.0736.1802-.1594.3848-.2544.5956-1.9865-.2108-3.0165-1.2768-3.0625-1.3257-.1165-.1222-.1103-.3176.0154-.4307.1226-.116.3157-.1099.4322.0123.0092.0122.9932 1.0171 2.8693 1.1485z" fill="#94632a"/><path d="m87.1028 76.9924c-.0429.1985-.0859.397-.1288.5956-1.5327-.1833-3.9483-.1222-3.979-.1222-.1625.0122-.3096-.1283-.3127-.2963-.0061-.168.1288-.3085.2974-.3146.1226-.0031 2.5382-.0641 4.1231.1375z" fill="#e2bc97"/><path d="m62.7263 123.476c-.0306 0-.0643-.003-.095-.009-.0736-.015-7.4093-1.57-14.4599-3.167-7.1334-1.616-14.2208-6.482-14.2913-6.531-.2085-.143-.2606-.431-.1165-.638.1441-.208.4322-.26.6407-.116.0705.049 7.0138 4.814 13.9694 6.387 7.0445 1.594 14.3741 3.149 14.4477 3.164.2483.052.4077.297.3556.544-.0491.22-.2391.366-.4507.366z" fill="#000"/><path d="m60.5714 126.375c-.043 0-.0828-.006-.1257-.018-.0491-.012-4.9324-1.393-12.1057-2.89-7.256-1.512-16.7651-6.466-16.8602-6.518-.2237-.119-.3126-.394-.1931-.62.1196-.223.3955-.312.6223-.193.095.049 9.4908 4.946 16.6211 6.433 7.21 1.503 12.121 2.893 12.17 2.908.2453.07.3863.324.3158.565-.0614.202-.2453.333-.4445.333z" fill="#000"/><path d="m58.965 128.339c-.0245 0-.049-.003-.0766-.006-.1134-.018-11.3086-1.86-16.1368-3.158-4.8496-1.304-13.0589-5.382-13.4053-5.556-.2269-.113-.3189-.388-.2054-.614.1134-.226.3893-.318.6161-.205.0828.043 8.473 4.209 13.2338 5.489 4.7821 1.286 15.9344 3.122 16.0478 3.14.2514.04.42.278.3801.526-.0367.222-.2299.384-.4537.384z" fill="#000"/><path d="m56.1324 130.994c-.0246 0-.0491-.003-.0767-.006-.0827-.013-8.286-1.366-15.0209-2.661-6.8115-1.31-13.5372-5.504-13.8192-5.681-.2146-.135-.279-.419-.1441-.633.1349-.213.42-.278.6345-.143.0675.043 6.8637 4.282 13.5035 5.556 6.7227 1.292 14.9137 2.642 14.9964 2.654.2514.04.42.278.3801.526-.0398.229-.2329.388-.4536.388z" fill="#000"/><g fill="#f7ebe7"><path d="m43.1747 137.283-1.4101-.923c-.1104-.07-.2483-.094-.3771-.058-.1287.037-.2329.126-.2912.248-.0153.033-1.6737 3.503-3.418 4.872-1.8393 1.448-3.1237 2.627-3.1391 2.639-.0919.086-.144.208-.1471.333 0 .125.049.247.141.336l1.266 1.21c.0859.082.1993.128.3189.128.0551 0 .1134-.012.1686-.034.1256-.049 3.0685-1.243 4.8312-3.852 1.7228-2.55 2.2286-4.319 2.247-4.395.0552-.192-.0215-.397-.1901-.504zm-2.8202 4.389c-1.309 1.934-3.4058 3.046-4.1415 3.394l-.6867-.657c.5028-.443 1.4837-1.292 2.7222-2.266 1.5205-1.198 2.9061-3.69 3.4456-4.732l.6805.443c-.2176.599-.797 2.007-2.0201 3.818z"/><path d="m51.3809 145.188h-1.8485c-.1686 0-.3066-.137-.3066-.305s.138-.306.3066-.306h1.8485c.1686 0 .3065.138.3065.306s-.1379.305-.3065.305z"/><path d="m55.1729 144.751h-1.9435c-.1686 0-.3065-.137-.3065-.305s.1379-.305.3065-.305h1.9435c.1686 0 .3066.137.3066.305s-.138.305-.3066.305z"/><path d="m59.5012 144.751h-2.3328c-.1686 0-.3066-.137-.3066-.305s.138-.305.3066-.305h2.3328c.1686 0 .3066.137.3066.305s-.138.305-.3066.305z"/><path d="m65.7241 144.751h-3.5499c-.1686 0-.3065-.137-.3065-.305s.1379-.305.3065-.305h3.5499c.1686 0 .3065.137.3065.305s-.1379.305-.3065.305z"/><path d="m70.4392 144.751h-2.6241c-.1686 0-.3066-.137-.3066-.305s.138-.305.3066-.305h2.6241c.1686 0 .3065.137.3065.305s-.1379.305-.3065.305z"/><path d="m73.891 145.915c-.0522 0-.1043-.012-.1533-.04l-1.2661-.727c-.1471-.085-.1962-.271-.1134-.418.0858-.147.2728-.195.42-.113l1.266.727c.1472.085.1962.272.1134.418-.0582.098-.1624.153-.2666.153z"/><path d="m76.5638 151.099c-.1134 0-.2237-.064-.2759-.171l-1.2139-2.471c-.0736-.153-.0123-.336.141-.41.1533-.076.3342-.012.4108.141l1.2139 2.471c.0736.153.0123.336-.141.409-.0429.022-.0889.031-.1349.031z"/><path d="m77.8269 157.299c-.141 0-.2698-.097-.3004-.244l-.4875-2.324c-.0337-.165.0706-.327.2361-.361.1655-.037.328.07.3617.235l.4874 2.325c.0338.165-.0705.327-.236.36-.0184.006-.0399.009-.0613.009z"/><path d="m79.3966 163.112c-.1318 0-.2513-.082-.2912-.214l-.7418-2.373c-.0491-.162.0398-.333.2023-.382s.3341.04.3832.202l.7418 2.373c.0491.162-.0398.333-.2023.382-.0307.006-.0613.012-.092.012z"/><path d="m81.7171 168.732c-.1226 0-.236-.073-.285-.192l-.9718-2.422c-.0644-.156.0122-.333.1717-.397.1594-.064.3341.012.3985.171l.9717 2.422c.0644.156-.0122.333-.1716.397-.0368.012-.0736.021-.1135.021z"/><path d="m83.3691 172.752c-.1165 0-.2269-.064-.279-.177l-.7295-1.552c-.0706-.152-.0062-.336.1471-.406s.3372-.006.4077.147l.7296 1.551c.0705.153.0061.336-.1471.407-.0399.021-.0828.03-.1288.03z"/></g><path d="m179.567 138.783c-1.116-.242-2.51 1.224-6.232 1.224-.171 0-.322.074-.454.211-.036-1.188-.183-3.25-.251-4.154.184.04.399.064.647.067 1.545.028 4.935-1.127 6.134-1.567z" fill="#986129"/><path d="m175.42 135.801c-.325.08-.644.15-.941.205l-.08-.516.346-.055-.033-.232-.35.055-.098-.605.359-.058-.034-.226-.359.055-.092-.605.362-.058-.033-.232-.365.058-.092-.605.368-.058-.034-.232-.374.058-.092-.605.377-.058-.034-.229-.377.058-.098-.605.386-.061-.033-.232-.387.061-.092-.605.39-.061-.034-.229-.389.061-.098-.605.398-.064-.034-.229-.398.061-.095-.604.405-.065-.034-.229-.408.064-.092-.604.411-.065-.034-.232-.411.065-.098-.605.42-.067-.033-.23-.423.068-.092-.605.426-.067-.034-.233-.429.068-.092-.605.432-.067-.04-.266.607-.086z" fill="#f7ebe7"/><path d="m179.209 66.5366s1.361 2.2298 5.413 1.8725" stroke="#f7ebe7" stroke-linecap="round" stroke-miterlimit="10" stroke-width=".613099"/><path d="m177.133 65.9533s1.135 2.5506 3.112 3.5524c1.977 1.0019 3.501.8706 3.501.8706" stroke="#f7ebe7" stroke-linecap="round" stroke-miterlimit="10" stroke-width=".613099"/><path d="m89.7638 173.653c-1.0178-.22-4.8006 1.842-5.7264 2.358-.0552-.537-.1226-1.341-.1778-2.028.8584-.098 1.8363-.299 2.8663-.617 1.3917-.427 2.2715-.699 2.8877-.956.0582.412.1103.861.1502 1.243z" fill="#e1a897"/><path d="m33.1377 204.025c.0522-.41.0276-.715-.1134-.862-.6805-.705-4.7944-.925-6.0267-.977l1.4867-3.165c1.683 1.182 4.3714 2.728 5.3462 3.217.0614.03.1196.058.1778.082z" fill="#e1a897"/><path d="m89.7883 173.656c-1.1189-.29-5.9562 2.472-5.9562 2.472s-.5917-.63-1.5971-.63c-1.0055 0-1.4899.807-1.4899 1.243 0 .437.7449.776 1.5542.776s1.5389-.388 1.5389-.388 1.7289 10.734 2.7375 11.739c1.0085 1.005 13.8563-.678 14.7543-2.181s-.632-4.53-2.0417-4.967c-1.4101-.436-5.9808.449-6.8545-.308-.8706-.755-1.5266-7.465-2.6455-7.756z" fill="#f7ebe7"/><g fill="#000"><path d="m91.0788 176.818c-1.0576 1.112-2.9215 2.236-3.0042 2.285-.0491.03-.1042.042-.1594.042-.1042 0-.2054-.052-.2606-.146-.0889-.144-.0429-.333.1042-.419.0184-.012 2.0417-1.234 3.0042-2.318.0429-.049.0981-.083.1564-.095.0551.211.1073.431.1594.651z"/><path d="m91.4469 178.437c-.9534 1.057-2.8938 2.211-2.9858 2.266-.049.028-.1012.043-.1563.043-.1043 0-.2054-.055-.2637-.15-.0858-.146-.0368-.333.1073-.418.0245-.015 2.4034-1.433 3.087-2.453.0122-.018.0276-.037.0398-.049.0583.257.1165.51.1717.761z"/><path d="m91.8361 180.022c-.9196 1.039-2.5106 2.102-2.5842 2.147-.0521.037-.1103.052-.1686.052-.0981 0-.1962-.045-.2544-.134-.0951-.141-.0583-.33.0827-.425.0184-.012 1.7658-1.179 2.5935-2.193.0429-.052.1011-.088.1624-.104.0583.233.1135.452.1686.657z"/><path d="m101.333 186.687c-.892 1.491-13.5556 3.162-14.7297 2.199.7143-.473 2.198-1.432 3.461-2.101 1.732-.92 2.2041-.468 2.7712-.031.5671.434 1.0208.031.3065-.745-.7142-.773-2.1703-.629-3.467 0-.7817.382-2.3451 1.411-3.464 2.169-.1073-.275-.2177-.617-.3311-1.008 1.2262-1.072 3.6265-2.89 5.1132-3.024 1.5941-.147 2.6854 1.234 3.7062 1.331 1.0208.098 1.263-.171 3.3782-.604 1.358-.281 2.6485-.272 3.3965-.229.193.751.187 1.496-.141 2.043z"/><path d="m89.9937 173.786c-.0184-.018-.0337-.034-.0521-.046-.0491-.043-.1012-.07-.1533-.082-.0061-.003-.0153-.003-.0245-.003-.0276-.006-.0521-.01-.0828-.013-.1257-.012-.2851 0-.4629.037-.0092.003-.0183.003-.0275.006-.0981.022-.2054.049-.3189.08-.1134.03-.2299.067-.3525.11-.0613.021-.1226.042-.187.067h-.003c-.1104.039-.2238.082-.3373.128-1.4867.59-3.3444 1.604-3.9544 1.943-.1319.073-.2054.116-.2054.116s-.5917-.629-1.5971-.629c-1.0025 0-1.4899.806-1.4899 1.243s.7449.776 1.5573.776c.8093 0 1.5389-.388 1.5389-.388s.003.012.0061.036c.0031.016.0061.037.0092.064.0031.007.0031.013.0031.022.003.015.0061.033.0092.055.0183.107.0429.259.0766.455.0123.061.0215.128.0337.195.0061.034.0123.071.0184.107.5028-.528 1.1649-1.322 1.6309-1.6.5242-.315 3.464-1.799 4.5921-2.364-.0736-.132-.1502-.239-.2269-.315zm-7.6269 3.07c-.4108 0-.7449-.141-.7449-.315s.3341-.314.7449-.314c.4138 0 .7479.14.7479.314s-.3341.315-.7479.315z"/></g><path d="m33.0245 203.164c-.8001-.831-6.3732-.99-6.3732-.99s-.1747-.846-1.03-1.368c-.8583-.523-1.6952-.086-1.922.284-.2299.373.2299 1.048.9196 1.469.6898.422 1.5174.471 1.5174.471s-4.1476 10.055-3.8134 11.436c.3341 1.38 12.173 6.628 13.7272 5.816 1.5542-.813 1.8332-4.191.8584-5.297s-5.337-2.728-5.6865-3.827c-.3525-1.1 2.6026-7.163 1.8025-7.994z" fill="#f7ebe7"/><g fill="#000"><path d="m32.4696 206.529c-1.4837.397-3.6633.388-3.7583.385-.0582 0-.1103-.018-.1594-.046-.0889-.055-.1471-.149-.1441-.259 0-.168.138-.306.3096-.303.0215 0 2.3881.01 3.7767-.415.0613-.018.1257-.018.184 0-.0675.211-.138.425-.2085.638z"/><path d="m31.9333 208.102c-1.3673.407-3.6265.382-3.7338.379-.0552-.003-.1073-.015-.1564-.046-.0889-.055-.1471-.152-.1471-.265.0031-.171.1441-.303.3096-.303.0276 0 2.8019.028 3.9177-.485.0215-.01.0429-.019.0583-.022-.0797.254-.1625.501-.2483.742z"/><path d="m31.4367 209.657c-1.3273.406-3.2433.486-3.3291.489-.0644.003-.1226-.012-.1717-.043-.0827-.052-.1441-.14-.1471-.247-.0061-.168.1226-.312.2943-.318.0214 0 2.1244-.089 3.3598-.522.0643-.022.1318-.025.1931-.003-.0705.226-.141.44-.1993.644z"/><path d="m37.2366 218.613c-.2299.739-.6254 1.375-1.1925 1.668-1.5419.809-13.2184-4.353-13.715-5.785.8583-.034 2.6241-.08 4.0526.009 1.9588.116 2.1244.745 2.3788 1.414.2575.666.8553.556.653-.476-.2054-1.03-1.5205-1.665-2.9582-1.803-.8645-.082-2.7375-.018-4.0894.046.0521-.29.1379-.638.2452-1.029 1.6063-.278 4.6075-.581 5.9471.079 1.4346.703 1.6431 2.45 2.4616 3.064s1.1679.51 3.1973 1.24c1.3059.467 2.4033 1.146 3.0195 1.573z"/><path d="m33.1594 203.573c0-.022-.0031-.043-.0062-.065-.003-.033-.0061-.064-.0122-.094-.0092-.04-.0184-.074-.0307-.107-.0061-.018-.0122-.037-.0214-.052 0-.003 0-.003 0-.003h-.0031c0-.006-.0031-.012-.0092-.018-.0153-.028-.0306-.049-.0521-.071-.0215-.021-.046-.042-.0736-.064-.0214-.015-.046-.033-.0705-.049-.0368-.021-.0766-.046-.1226-.067-.233-.116-.5641-.214-.9503-.299-.0766-.019-.1563-.034-.2361-.049-.095-.018-.1931-.037-.2942-.055-.0736-.012-.1441-.025-.2177-.037-.0214-.003-.0398-.006-.0613-.009-.0521-.006-.1042-.015-.1594-.024-.2851-.04-.5824-.08-.8829-.11-.0705-.006-.144-.016-.2146-.022-.1287-.015-.2513-.027-.377-.036-.1042-.013-.2115-.022-.3157-.031h-.0154c-.1073-.009-.2146-.018-.3188-.024-.1778-.013-.3464-.025-.5119-.037-.0154 0-.0307 0-.0491-.003-.0521-.003-.1011-.006-.1532-.009-.0154-.003-.0307-.003-.046-.003-.1288-.006-.2545-.016-.371-.022-.0183 0-.0337 0-.0521-.003-.003-.003-.0061-.003-.0092 0-.0368-.003-.0735-.006-.1073-.006-.1011-.006-.1962-.012-.2789-.012-.0153 0-.0307 0-.046-.003-.0307-.003-.0613-.003-.0889-.006-.2238-.009-.3525-.012-.3525-.012s-.1165-.556-.6162-1.045c-.0766-.076-.1655-.15-.2606-.22-.049-.034-.0981-.067-.1532-.101-.4261-.259-.8492-.284-1.1956-.195-.0582.015-.1134.033-.1655.055-.0797.03-.1533.067-.2207.107-.1104.067-.2024.143-.2698.223-.0153.015-.0276.033-.0398.048-.0123.016-.0215.031-.0307.046-.1226.202-.0491.489.1533.779.0429.055.0858.11.1318.165.1655.193.3862.376.6345.529.6898.421 1.5175.47 1.5175.47s-.138.327-.3556.877c.705-.19 1.686-.523 2.2286-.517.233.003.8553.043 1.6094.098 1.2139.086 2.765.211 3.5437.275h.003v-.079c0-.04 0-.077-.003-.113zm-7.3388-1.424c-.0889.15-.4476.095-.8001-.119s-.5641-.507-.4721-.657c.092-.146.4506-.094.8001.119.3525.217.5641.511.4721.657z"/></g><path d="m93.7704 147.729c-.0214.547-.2881 1.152-1.0913.957-.5548-.135-.843-.446-.9932-.697-.2698.043-.5395.092-.8062.144-1.3826.268-2.7283.641-4.0281 1.108-.4629-1.548-1.0269-3.298-1.6768-5.061.607-.238 1.7811-.754 2.8295-1.524.8951-.66 1.3488-1.042 1.5634-1.237.5609.76 1.8668 2.532 2.578 3.464.9227 1.212 1.5083 1.89 1.6033 2.471.0184.113.0276.244.0214.375z" fill="#e2a799"/><path d="m191.201 48.1942c-1.849-1.6006-10.794-8.6719-13.176-10.3672-2.381-1.6952-7.78-5.9105-9.772-7.6546-1.616-1.4143-4.577-4.3283-9.39-6.7597.466.0427 1.005.0885 1.628.1405 1.082.0886 2.204.1832 2.93.284 1.751.2444 3.265 2.7369 3.28 2.7613.059.0947.16.1497.264.1497.055 0 .107-.0153.156-.0427.148-.0886.194-.275.108-.4185-.068-.113-1.68-2.7705-3.722-3.0546-.745-.1038-1.873-.1985-2.964-.2901-.392-.0336-.828-.0703-1.257-.1069.797-.1253 1.603-.3238 2.201-.6262.175-.0856.334-.1711.484-.2505 1.245-.6537 1.711-.898 3.231.223.135.1008.328.0733.43-.0642.101-.1344.07-.3268-.065-.4245-1.83-1.3532-2.559-.9683-3.881-.275-.15.0795-.306.1619-.475.2475-1.211.6109-3.482.7514-4.42.7819-.117-.0488-.233-.0977-.35-.1466.911-.9438 2.186-2.4925 1.984-3.5646-.059-.2994-.258-.7087-.883-.9378-.635-.2321-1.076-.0489-1.337.1436-.751.5559-1.014 1.9549-1.1 3.1339-.006.0795-.013.1589-.016.2383-.012.2321-.018.4521-.021.6506-.484.559-2.244 2.5444-3.222 3.2898-1.143.8735-3.062 1.6708-3.062 1.6708s.003.1344.009.3757c.027 1.289.135 5.5959.257 8.2717.148 3.1737.779 2.1565-.266 4.6765-1.046 2.5169-5.129 12.3037-6.199 14.7259-1.07 2.4223-6.903 9.3378-9.043 12.5175-2.14 3.1768-3.501 5.3669-3.501 5.3669s.037.0305.101.0824c.007.0062.013.0092.019.0123.018.0183.04.0336.064.0549.092.0734.215.1711.356.278.04.0336.083.0672.129.1008.539.4215 1.238.9377 1.397.9377l-1.045 1.454 2.624 1.2463.074.0366s3.283-4.1175 6.879-7.0712c3.599-2.9538 9.334-8.3817 10.94-9.9792 1.604-1.5976 3.986-4.0687 4.519-4.7957.402-.5437.638-1.1393.73-1.405.033-.0917.049-.1436.049-.1436s.018.0214.052.0611c.012.0122.027.0275.043.0458.003.0031.003.003.006.0061.944 1.0783 8.464 9.5974 12.832 13.498.993.8278 1.266 1.2493 1.701 1.1516.291-.0642.656-.3635 1.361-.9378 1.751-1.4264 8.703-7.6241 12.348-10.1441 1.453-1.0049 2.805-1.9243 3.973-2.856 1.76-1.4081 3.096-2.8468 3.709-4.6521 0 0 .144-.0488-1.701-1.6463zm-35.379-26.1408c-.046-.0214-.092-.0367-.138-.055.015-1.2432.187-3.0484.886-3.5677.086-.0611.208-.1313.395-.1313.102 0 .221.0213.365.0733.387.1405.466.3421.491.4795.144.7514-.978 2.1718-1.999 3.2012z" fill="#013668"/><path d="m161.508 36.7091c-.079-.0213-.165.0306-.183.1131-.019.0763-1.907 7.7554-4.596 16.803-.024.0764.019.1588.099.1863.033-.0916.049-.1436.049-.1436s.018.0214.052.0611c.012.0123.027.0275.043.0459.003.003.003.003.006.0061.021-.0153.036-.0397.046-.0703 2.691-9.0536 4.58-16.7419 4.598-16.8183.021-.0794-.031-.1649-.114-.1833zm-8.448-1.292c-.083-.0214-.166.0275-.187.1099-.04.1405-3.841 14.1028-5.469 17.4445-1.582 3.2439-9.46 14.8115-14.175 20.5082-.055.0642-.046.1619.022.2138.027.0245.061.0367.095.0367.046 0 .089-.0214.119-.0581 4.727-5.7089 12.627-17.31 14.215-20.5692 1.64-3.3631 5.451-17.3559 5.487-17.4965.025-.0824-.024-.1649-.107-.1893z" fill="#013668"/><path d="m153.167 35.6064c-.036.1406-3.847 14.1334-5.487 17.4965-1.588 3.2592-9.488 14.8603-14.215 20.5692-.03.0367-.073.0581-.119.0581-.034 0-.068-.0122-.095-.0367-.068-.0519-.077-.1496-.022-.2138 4.715-5.6967 12.593-17.2643 14.175-20.5082 1.628-3.3417 5.429-17.304 5.469-17.4445.021-.0824.104-.1313.187-.1099.083.0244.132.1069.107.1893z" fill="#000"/><path d="m161.622 36.8924c-.018.0763-1.907 7.7646-4.598 16.8183-.009.0305-.025.055-.046.0702-.068-.0733-.101-.113-.101-.113s-.016.0519-.049.1436c-.08-.0275-.123-.11-.098-.1863 2.688-9.0476 4.576-16.7267 4.595-16.8031.018-.0825.104-.1344.184-.113.082.0183.135.1039.113.1833z" fill="#000"/><path d="m155.104 21.076c-.006.0794-.012.1588-.015.2382-.012.2322-.018.4521-.021.6506-.485.559-2.244 2.5445-3.222 3.2898-1.144.8736-3.063 1.6708-3.063 1.6708s.003.1344.01.3757c-.681-.5132-2.808-2.1015-3.161-2.1015-.423 0-1.882 1.8388-3.338 1.8388-.662 0-1.515-.6475-2.247-1.3501-.313-.3054-.604-.6201-.849-.898-.439-.4979-.73-.8828-.73-.8828h-2.216c-.264 0-.479-.2077-.485-.4704-.015-.5254-.043-1.402-.082-2.1321-.028-.4948-.062-.9255-.102-1.1301-.012-.0642-.043-.1314-.088-.2016-.068-.1069-.169-.22-.292-.3299h.016s-.341-.4154-.816-1.005c0 0 0 0 0-.003-.132-.1619-.27-.336-.414-.5193-.827-1.0446-1.836-2.3489-2.228-2.9904.187.0764 6.189 2.5628 10.306 2.5628 3.571 0 6.054-1.3532 8.378-3.9434.469 1.069 1.382 1.9365 2.633 2.4528.111.0458.224.0885.334.1252.233 1.8419 1.098 3.6746 1.692 4.7529z" fill="#97602d"/><path d="m154.041 8.45458c-.883-.09775-2.084-.16189-2.946.60174-.668.59259-1.005 1.59138-1.005 2.96598 0 .171.009.3421.027.507.049.4277.16.8339.328 1.2157-2.323 2.5903-4.806 3.9435-8.378 3.9435-4.117 0-10.119-2.4864-10.306-2.5628.714 1.1668 3.458 4.5177 3.458 4.5177h-.015c-3.103.0824-5.423-4.814-5.681-6.1672-.26-1.3562.098-2.6482 1.913-5.16824 1.815-2.51694 4.114-3.42109 4.114-3.42109.254-.07331 2.241-4.487117 6.744-4.8444982 6.392-.5101088 8.605 3.7540382 8.605 3.7540382s1.554.0733 2.452 1.45395c.583.88888.69 2.31229.69 3.20422z" fill="#000"/><path d="m156.359 15.8649c-.537.5346-1.791.5712-3.008.11-1.327-.4979-2.618-1.5853-2.897-3.2623-.039-.2199-.058-.449-.058-.6903 0-3.74486 2.526-3.39053 3.921-3.22864s1.524 1.68004 1.524 1.68004c3.402.7728 1.716 4.1969.518 5.3912z" fill="#000"/><path d="m158.063 11.9093c-.169-.5773-.644-1.3257-1.95-1.6831-.129-.64143-.604-1.60361-1.76-1.73496l-.067-.00916c-.077-.00916-.159-.01833-.245-.02749-.883-.09774-2.085-.16189-2.946.60175-.668.59258-1.006 1.59136-1.006 2.96596 0 .171.01.3421.028.507.049.4277.159.8339.328 1.2158.469 1.069 1.382 1.9365 2.633 2.4527.111.0459.224.0886.334.1253.546.1894 1.086.281 1.573.281.671 0 1.241-.1772 1.591-.5223.867-.8645 1.901-2.7308 1.487-4.1725zm-4.819 3.699c-.546-.2413-1.852-.9438-2.348-2.3825-.031-.0947-.062-.1955-.086-.2994-.068-.2779-.108-.5773-.108-.9041 0-1.1943.267-2.03738.801-2.50778.45-.40015 1.051-.50706 1.64-.50706.303 0 .607.02749.882.06109.065.00611.126.01528.187.02139l.068.0061c1.122.13135 1.251 1.35016 1.254 1.40206l.018.223.221.0488c.938.2139 1.511.6537 1.698 1.3104.343 1.1882-.589 2.8316-1.33 3.5708-.466.4643-1.68.4551-2.827-.0153-.021-.0091-.046-.0183-.07-.0275z" fill="#a37052"/><path d="m135.958 17.4991c.03.1649-.08.3238-.245.3543-1.162.2138-1.297.7423-1.309.785-.129-.1619-.27-.339-.414-.5223.217-.3054.668-.6903 1.612-.8644.169-.0306.325.0794.356.2474z" fill="#000"/><path d="m137.634 19.0843c-.432.1863-.754.3727-.993.5498.141.6109-.055 1.1302-.067 1.1546-.046.1192-.163.1955-.285.1955-.037 0-.074-.0091-.111-.0213-.159-.0611-.236-.2383-.174-.3941.003-.0061.055-.1527.073-.3665-.098.1466-.116.2382-.116.2413-.007.0427-.059.4826-.184.7514-.055.11-.163.1741-.279.1741-.043 0-.089-.0092-.132-.0275-.153-.0733-.218-.2566-.144-.4062.064-.1344.113-.4185.129-.5682.009-.0702.082-.5376.748-1.0874.297-.2444.711-.507 1.29-.7545.156-.0672.337.0031.405.1589.067.1557-.006.3329-.16.4001z" fill="#000"/><path d="m129.192 77.8384s-2.434.3146-3.54.9927c-1.104.6782-1.567 1.454-.472 1.4051 1.094-.0488 1.701.0031 1.701.0031s-1.505 2.0068-2.14 2.5414c-.631.5315-.582 1.3073 0 1.066 0 0-.089.3574.04.5651-.248.2077-.475.3665-.671.4673-1.524.7759-1.165-.2596-3.759 1.7778-.561.4398-1.03.7911-1.419 1.0752-.831-1.005-2.299-2.4375-2.655-2.8071 1.72-1.0813 4.071-2.5995 4.494-3.0821.681-.7758 1.233-5.0064 2.401-5.0705 1.165-.0642.809 1.7777.809 1.7777s.953-.6659 1.671-1.3776c0 0 0-.003.003-.0061.009-.0091.033-.0336.067-.0641.285-.2749 1.386-1.1913 2.575-.3788 1.38.9439.895 1.1149.895 1.1149z" fill="#dfa998"/><path d="m133.686 77.026-.021.0367s-.341.5101-1.775 2.5444c-1.435 2.0343-3.21 3.7296-4.887 4.9483-1.676 1.2188-1.603-.0794-1.603-.0794-.359.1466-.536.0733-.619-.0641-.129-.2077-.04-.5651-.04-.5651-.582.2413-.631-.5346 0-1.066.635-.5346 2.14-2.5414 2.14-2.5414s-.607-.0519-1.702-.0031c-1.094.0489-.631-.727.473-1.4051 1.106-.6781 3.54-.9927 3.54-.9927s.485-.171-.895-1.1149c-1.189-.8125-2.29.1039-2.575.3788l-.031.0305c-.009.0061-.015.0153-.021.0214s-.012.0091-.015.0122c.107-.617.306-.9744.885-1.4112.586-.4337 1.775-.5315 1.775-.5315l1.827-2.2817c.384.3054 1.736 1.3837 1.965 1.3837l-1.045 1.4539z" fill="#9b5e2c"/><path d="m142.551 14.2643c-2.017 0-4.141-.6078-6.385-1.2523-1.315-.3757-2.676-.7667-4.148-1.0813-.165-.0367-.27-.1986-.236-.3635.037-.165.196-.2719.365-.2352 1.49.3176 2.86.7117 4.187 1.0904 2.3.6598 4.286 1.228 6.217 1.228 2.955 0 5.224-1.8786 5.248-1.8969.129-.11.322-.0916.433.0367.11.1282.092.3207-.037.4306-.098.0856-2.456 2.0435-5.644 2.0435z" fill="#a37052"/><path d="m140.973 11.2862c-1.64 0-2.848-.5162-3.942-.9866-.847-.36048-1.644-.70258-2.533-.75146-.168-.00916-.297-.15272-.291-.32072.009-.168.157-.29935.322-.29018.996.05192 1.846.41541 2.741.80028 1.376.58958 2.805 1.20048 5.033.81858 3.654-.62309 6.548-3.50046 6.576-3.53101.119-.11913.312-.12218.432-.00305.119.11912.123.31156.003.43069-.123.12524-3.062 3.04847-6.907 3.70207-.512.0947-.99.1314-1.434.1314z" fill="#a37052"/><path d="m140.835 22.7773s-.028 1.7717-.788 2.911c-.181-.1741-.353-.3543-.512-.5254-.018-.0183-.034-.0366-.052-.0549-.101-.11-.196-.2169-.285-.3177.785-.8583 1.303-1.4356 1.637-2.013z" fill="#e27356"/><path d="m140.553 23.6021c-.025.0488-.46.9041-1.018 1.5608-.018-.0183-.034-.0366-.052-.0549.555-.6598.996-1.5273 1.002-1.5395.01-.0214.031-.0275.049-.0184.022.0092.028.0336.019.052z" fill="#000"/></svg>